<svg width="92" height="31" viewBox="0 0 92 31" fill="none" xmlns="http://www.w3.org/2000/svg">
<path fill-rule="evenodd" clip-rule="evenodd" d="M84.5137 0.492999H7.73806C7.48384 0.492999 7.16606 0.492999 6.91183 0.492999C6.72117 0.492999 6.46694 0.492999 6.21272 0.492999C5.70427 0.492999 5.19582 0.556555 4.68737 0.620111C4.17893 0.747223 3.73403 0.874336 3.22558 1.12856C2.78069 1.31923 2.39936 1.63701 2.01802 2.01834C1.63668 2.39968 1.3189 2.78102 1.12824 3.22591C0.874012 3.73436 0.7469 4.17925 0.619788 4.6877C0.556232 5.19615 0.492676 5.70459 0.492676 6.21304C0.492676 6.46727 0.492676 6.65793 0.492676 6.91216V24.5172C0.492676 24.7714 0.492676 24.9621 0.492676 25.2163C0.492676 25.7247 0.556232 26.2332 0.619788 26.7416C0.683344 27.2501 0.874012 27.7585 1.12824 28.2034C1.38246 28.6483 1.63668 29.0932 2.01802 29.411C2.39936 29.7923 2.78069 30.0466 3.22558 30.3008C3.67048 30.555 4.17893 30.6821 4.68737 30.8092C5.19582 30.9363 5.70427 30.9999 6.21272 30.9999C6.46694 30.9999 6.65761 30.9999 6.91183 30.9999C7.16606 30.9999 7.48384 30.9999 7.73806 30.9999H84.4502C84.7044 30.9999 85.0222 30.9999 85.2764 30.9999C85.5306 30.9999 85.7213 30.9999 85.9755 30.9999C86.484 30.9999 86.9924 30.9363 87.5009 30.8728C88.0093 30.8092 88.5178 30.6186 88.9627 30.3643C89.4076 30.1101 89.8525 29.8559 90.1702 29.4745C90.5516 29.0932 90.8058 28.7119 91.06 28.267C91.3142 27.8221 91.4414 27.3136 91.5049 26.8052C91.5685 26.2967 91.632 25.7883 91.632 25.2799C91.632 25.0256 91.632 24.835 91.632 24.5807C91.632 24.3265 91.632 24.0087 91.632 23.7545V7.73839C91.632 7.48416 91.632 7.16638 91.632 6.91216C91.632 6.65793 91.632 6.46727 91.632 6.21304C91.632 5.70459 91.5685 5.19615 91.5049 4.6877C91.4414 4.17925 91.2507 3.6708 91.06 3.22591C90.6151 2.33612 89.8525 1.57345 88.8991 1.065C88.4542 0.81078 87.9458 0.683667 87.4373 0.556555C86.9289 0.492999 86.4204 0.429443 85.912 0.429443C85.6577 0.429443 85.4671 0.429443 85.2129 0.429443C85.0222 0.492999 84.768 0.492999 84.5137 0.492999Z" fill="#A6A6A6"/>
<path fill-rule="evenodd" clip-rule="evenodd" d="M6.91177 30.3644C6.65755 30.3644 6.46688 30.3644 6.21266 30.3644C5.70421 30.3644 5.25932 30.3009 4.81442 30.2373C4.36953 30.1738 3.92464 30.0467 3.5433 29.7924C3.16197 29.6018 2.78063 29.3475 2.46285 29.0298C2.14507 28.712 1.89085 28.3306 1.70018 27.9493C1.50951 27.568 1.3824 27.1231 1.25529 26.6782C1.19173 26.2333 1.12817 25.7248 1.12817 25.28C1.12817 25.0893 1.12817 24.5808 1.12817 24.5808V6.91226C1.12817 6.91226 1.12817 6.40381 1.12817 6.21314C1.12817 5.7047 1.19173 5.2598 1.25529 4.81491C1.31884 4.37002 1.44595 3.92513 1.70018 3.54379C1.89085 3.16246 2.14507 2.78112 2.46285 2.46334C2.78063 2.14556 3.16197 1.89133 3.5433 1.70067C3.92464 1.51 4.36953 1.38289 4.81442 1.25577C5.25932 1.19222 5.76776 1.12866 6.27621 1.12866H6.97533H85.3399H86.039C86.4839 1.12866 86.9924 1.19222 87.4373 1.25577C87.8822 1.31933 88.327 1.44644 88.7084 1.70067C89.4711 2.082 90.1702 2.78112 90.5515 3.54379C90.7422 3.92513 90.8693 4.37002 90.9328 4.81491C90.9964 5.2598 91.06 5.76825 91.06 6.2767C91.06 6.46737 91.06 6.72159 91.06 6.97582C91.06 7.23004 91.06 7.54782 91.06 7.80204V23.7546C91.06 24.0088 91.06 24.3266 91.06 24.5808C91.06 24.8351 91.06 25.0257 91.06 25.28C91.06 25.7248 90.9964 26.2333 90.9328 26.6782C90.8693 27.1231 90.7422 27.568 90.5515 27.9493C90.3608 28.3306 90.1066 28.712 89.7888 29.0298C89.4711 29.3475 89.0897 29.6018 88.7084 29.7924C88.327 29.9831 87.8822 30.1102 87.4373 30.2373C86.9924 30.3009 86.4839 30.3644 86.039 30.3644C85.7848 30.3644 85.5941 30.3644 85.3399 30.3644H84.5137H6.91177Z" fill="black"/>
<path fill-rule="evenodd" clip-rule="evenodd" d="M19.3691 16.0008C19.3691 14.7297 20.0682 13.5221 21.1486 12.823C20.4495 11.8061 19.3055 11.2341 18.0979 11.1705C16.8268 11.0434 15.5557 11.9332 14.9201 11.9332C14.2846 11.9332 13.2677 11.1705 12.1872 11.2341C10.789 11.2976 9.45431 12.0603 8.7552 13.3314C7.29341 15.8737 8.37386 19.6235 9.77209 21.7208C10.4712 22.7377 11.2974 23.8817 12.3779 23.8182C13.4583 23.7546 13.8397 23.1191 15.1108 23.1191C16.3819 23.1191 16.7633 23.8182 17.8437 23.7546C18.9877 23.7546 19.6868 22.7377 20.3859 21.7208C20.8944 21.0217 21.2757 20.1955 21.53 19.3693C20.2588 18.7337 19.3691 17.4626 19.3691 16.0008ZM17.2717 9.83586C17.9073 9.07318 18.225 8.11984 18.0979 7.1665C17.1446 7.29362 16.2548 7.73851 15.6828 8.43762C15.0472 9.13674 14.7295 10.0901 14.793 10.9799C15.8099 10.9799 16.6997 10.535 17.2717 9.83586Z" fill="white"/>
<path d="M32.7788 21.2123H29.1561L28.2663 23.7545H26.741L30.173 14.2847H31.7619L35.1939 23.7545H33.6686L32.7788 21.2123ZM29.5374 20.0047H32.3975L30.9992 15.8736H30.9357L29.5374 20.0047ZM42.5664 20.3225C42.5664 22.4834 41.4224 23.8181 39.7064 23.8181C38.8166 23.8816 37.9904 23.3732 37.5455 22.6105H37.4819V26.0425H36.0837V16.8269H37.4819V17.9709C37.9268 17.2082 38.7531 16.6998 39.7064 16.7634C41.4224 16.7634 42.5664 18.1616 42.5664 20.3225ZM41.1046 20.3225C41.1046 18.9243 40.4055 18.0345 39.2615 18.0345C38.1811 18.0345 37.4184 18.9878 37.4184 20.3225C37.4184 21.7207 38.1175 22.6741 39.2615 22.6741C40.4055 22.6105 41.1046 21.7207 41.1046 20.3225ZM50.1931 20.3225C50.1931 22.4834 49.0491 23.8181 47.3331 23.8181C46.4433 23.8816 45.6171 23.3732 45.1722 22.6105H45.1087V26.0425H43.7104V16.8269H45.1087V17.9709C45.5536 17.2082 46.3798 16.6998 47.3331 16.7634C48.9856 16.7634 50.1931 18.1616 50.1931 20.3225ZM48.7314 20.3225C48.7314 18.9243 48.0322 18.0345 46.8882 18.0345C45.8078 18.0345 45.1087 18.9878 45.1087 20.3225C45.1087 21.7207 45.8078 22.6741 46.8882 22.6741C47.9687 22.6105 48.7314 21.7207 48.7314 20.3225Z" fill="white"/>
<path fill-rule="evenodd" clip-rule="evenodd" d="M55.2143 21.0852C55.3414 22.0385 56.2312 22.6105 57.5023 22.6105C58.7099 22.6105 59.5361 21.9749 59.5361 21.1487C59.5361 20.386 59.0277 20.0047 57.8201 19.6869L56.6125 19.3691C54.8965 18.9243 54.0703 18.1616 54.0703 16.8269C54.0703 15.1744 55.4685 14.094 57.5023 14.094C59.4726 14.094 60.8708 15.238 60.9344 16.8269H59.4726C59.409 15.8736 58.5828 15.3016 57.4388 15.3016C56.2948 15.3016 55.5321 15.8736 55.5321 16.6998C55.5321 17.3989 56.0405 17.7802 57.2481 18.0345L58.265 18.2887C60.2352 18.7336 60.9979 19.5598 60.9979 20.8945C60.9979 22.6741 59.5997 23.7545 57.3117 23.7545C55.2143 23.7545 53.8161 22.6741 53.689 20.958L55.2143 21.0852ZM64.0486 15.238V16.8905H65.3833V18.0345H64.0486V21.8478C64.0486 22.4198 64.3028 22.7376 64.8748 22.7376C65.0019 22.7376 65.1926 22.7376 65.3197 22.6741V23.8181C65.0655 23.8816 64.8113 23.8816 64.557 23.8816C63.1588 23.8816 62.5868 23.3732 62.5868 22.0385V18.098H61.5699V16.954H62.5868V15.3016H64.0486V15.238Z" fill="white"/>
<path d="M66.146 20.3228C66.146 18.1619 67.4171 16.7637 69.4509 16.7637C71.4847 16.7637 72.7558 18.0983 72.7558 20.3228C72.7558 22.4837 71.4847 23.8819 69.4509 23.8819C67.4171 23.8184 66.146 22.4837 66.146 20.3228ZM71.2305 20.3228C71.2305 18.861 70.5314 17.9712 69.3874 17.9712C68.2433 17.9712 67.5442 18.861 67.5442 20.3228C67.5442 21.8482 68.2433 22.6744 69.3874 22.6744C70.5314 22.6744 71.2305 21.7846 71.2305 20.3228Z" fill="white"/>
<path fill-rule="evenodd" clip-rule="evenodd" d="M73.8359 16.8271H75.1706V17.9711H75.2342C75.4248 17.2084 76.124 16.7 76.8866 16.7C77.0773 16.7 77.2044 16.7 77.3951 16.7635V18.0982C77.2044 18.0346 76.9502 18.0346 76.7595 18.0346C76.3146 18.0346 75.9333 18.1617 75.6791 18.4795C75.4248 18.7973 75.2342 19.1786 75.2977 19.6235V23.6911H73.8995V16.8271H73.8359Z" fill="white"/>
<path d="M83.9416 21.721C83.751 22.9922 82.5434 23.8184 80.9545 23.8184C78.9207 23.8184 77.7131 22.4837 77.7131 20.3228C77.7131 18.1619 78.9843 16.7637 80.8909 16.7637C82.7976 16.7637 84.0052 18.0983 84.0052 20.1957V20.7041H79.1114V20.7677C79.0478 21.2761 79.2385 21.7846 79.6198 22.1659C80.0012 22.5473 80.446 22.7379 81.018 22.7379C81.7172 22.8015 82.3527 22.4202 82.6069 21.7846H83.9416V21.721ZM79.1114 19.6872H82.5434C82.5434 19.2424 82.4163 18.7975 82.0985 18.4161C81.7807 18.0983 81.3358 17.9077 80.8909 17.9077C80.446 17.9077 80.0012 18.0983 79.6198 18.4161C79.302 18.7339 79.1114 19.1788 79.1114 19.6872Z" fill="white"/>
<path d="M29.3471 7.1664C29.9191 7.10285 30.5547 7.35707 30.936 7.80196C31.3809 8.24686 31.5716 8.81886 31.4445 9.45442C31.4445 10.9162 30.6818 11.7424 29.2836 11.7424H27.6311V7.1664H29.3471ZM28.3938 11.0433H29.22C29.6649 11.0433 30.0462 10.9162 30.364 10.5984C30.6818 10.2806 30.8089 9.83576 30.7453 9.45442C30.8089 9.00953 30.6818 8.62819 30.364 8.31041C30.0462 7.99263 29.6649 7.80196 29.22 7.86552H28.3938V11.0433ZM32.2707 9.96287C32.2071 9.32731 32.5249 8.7553 33.0334 8.43752C33.5418 8.11974 34.2409 8.11974 34.7494 8.43752C35.2578 8.7553 35.5756 9.39086 35.512 9.96287C35.5756 10.5984 35.2578 11.1704 34.7494 11.4882C34.2409 11.806 33.5418 11.806 33.0334 11.4882C32.5249 11.1704 32.2071 10.5984 32.2707 9.96287ZM34.8129 9.96287C34.8129 9.2002 34.4952 8.7553 33.9231 8.7553C33.3511 8.7553 33.0334 9.2002 33.0334 9.96287C33.0334 10.7255 33.3511 11.1704 33.9231 11.1704C34.4952 11.1704 34.8129 10.7255 34.8129 9.96287Z" fill="white"/>
<path fill-rule="evenodd" clip-rule="evenodd" d="M39.8339 11.6791H39.1348L38.4356 9.13681H38.3721L37.673 11.6791H36.9738L36.0205 8.24703H36.7196L37.3552 10.8528L38.0543 8.24703H38.6899L39.389 10.8528H39.4525L40.0881 8.24703H40.7872L39.8339 11.6791ZM41.5499 8.24703H42.1854V8.81903H42.249C42.4397 8.4377 42.821 8.18347 43.2659 8.18347C43.5837 8.18347 43.965 8.31059 44.1557 8.56481C44.4099 8.81903 44.4735 9.13681 44.4735 9.51815V11.7426H43.7743V9.70882C43.7743 9.13681 43.5201 8.88259 43.0117 8.88259C42.7574 8.88259 42.5668 8.94615 42.3761 9.13681C42.1854 9.32748 42.1219 9.51815 42.1854 9.77237V11.8062H41.4863V8.24703H41.5499ZM45.5539 6.91235H46.253V11.6791H45.5539V6.91235Z" fill="white"/>
<path d="M47.2061 9.96296C47.1425 9.3274 47.4603 8.75539 47.9687 8.43761C48.4772 8.11983 49.1763 8.11983 49.6848 8.43761C50.1932 8.75539 50.511 9.39095 50.4474 9.96296C50.511 10.5985 50.1932 11.1705 49.6848 11.4883C49.1763 11.8061 48.4772 11.8061 47.9687 11.4883C47.3967 11.1705 47.1425 10.5985 47.2061 9.96296ZM49.7483 9.96296C49.7483 9.20028 49.4305 8.75539 48.8585 8.75539C48.2865 8.75539 47.9687 9.20028 47.9687 9.96296C47.9687 10.7256 48.2865 11.1705 48.8585 11.1705C49.367 11.1705 49.7483 10.7256 49.7483 9.96296ZM51.1465 10.7256C51.1465 10.0901 51.5914 9.77229 52.4177 9.70873L53.371 9.64518V9.3274C53.371 8.94606 53.1168 8.75539 52.6719 8.75539C52.2905 8.75539 52.0363 8.8825 51.9728 9.13673H51.3372C51.4008 8.56472 51.9728 8.18339 52.7354 8.18339C53.6252 8.18339 54.0701 8.62828 54.0701 9.3274V11.679H53.4346V11.1705H53.371C53.1803 11.5519 52.7354 11.7425 52.3541 11.679C52.0363 11.679 51.7821 11.6154 51.5279 11.4247C51.2737 11.2341 51.1465 11.0434 51.1465 10.7256ZM53.371 10.4078V10.0901L52.5448 10.1536C52.0999 10.1536 51.8457 10.3443 51.8457 10.6621C51.8457 10.9799 52.0999 11.1705 52.4812 11.1705C52.6719 11.1705 52.9261 11.107 53.0532 10.9799C53.2439 10.8527 53.3074 10.6621 53.371 10.4078ZM54.8963 9.96296C54.8963 8.8825 55.4684 8.18339 56.2946 8.18339C56.7395 8.18339 57.1208 8.37406 57.375 8.75539H57.4386V6.84871H58.1377V11.6154H57.5021V11.0434H57.4386C57.2479 11.4247 56.803 11.679 56.3581 11.6154C55.4684 11.7425 54.8963 11.0434 54.8963 9.96296ZM55.5955 9.96296C55.5955 10.6621 55.9132 11.107 56.4852 11.107C57.0573 11.107 57.4386 10.6621 57.4386 9.96296C57.4386 9.26384 57.0573 8.81895 56.4852 8.81895C55.9768 8.81895 55.5955 9.26384 55.5955 9.96296ZM60.9977 7.23005C60.9977 7.03938 61.0613 6.91227 61.2519 6.78516C61.4426 6.7216 61.6333 6.7216 61.7604 6.84871C61.8875 6.97582 61.9511 7.16649 61.8875 7.35716C61.824 7.54783 61.6333 7.61138 61.5062 7.61138C61.3791 7.61138 61.2519 7.54783 61.1884 7.48427C61.0613 7.48427 60.9977 7.35716 60.9977 7.23005ZM61.1248 8.24694H61.824V11.679H61.1248V8.24694Z" fill="white"/>
<path fill-rule="evenodd" clip-rule="evenodd" d="M62.8411 8.24715H63.4767V8.81915H63.5403C63.7309 8.43782 64.1123 8.18359 64.5572 8.18359C64.8749 8.18359 65.2563 8.31071 65.4469 8.56493C65.7012 8.81915 65.7647 9.13693 65.7647 9.51827V11.7427H65.0656V9.70894C65.0656 9.13693 64.8114 8.88271 64.3029 8.88271C64.0487 8.88271 63.858 8.94627 63.6674 9.13693C63.5403 9.3276 63.4131 9.51827 63.4767 9.77249V11.8063H62.7776V8.24715H62.8411Z" fill="white"/>
<path d="M68.4978 9.96288C68.4978 8.88243 69.0698 8.18331 69.896 8.18331C70.3409 8.18331 70.7223 8.37398 70.9765 8.75531H71.04V6.84863H71.7392V11.6153H71.1036V11.0433H71.04C70.8494 11.4247 70.4045 11.6789 69.9596 11.6153C69.0698 11.7424 68.4978 11.0433 68.4978 9.96288ZM69.2605 9.96288C69.2605 10.662 69.5783 11.1069 70.1503 11.1069C70.7223 11.1069 71.1036 10.662 71.1036 9.96288C71.1036 9.26376 70.7223 8.81887 70.1503 8.81887C69.5783 8.81887 69.2605 9.26376 69.2605 9.96288ZM75.7432 10.7891C75.5525 11.4247 74.917 11.8696 74.2814 11.806C73.8365 11.806 73.3916 11.6153 73.0738 11.2976C72.7561 10.9798 72.6289 10.4713 72.6925 10.0264C72.6289 9.58154 72.7561 9.13665 73.0738 8.75531C73.3916 8.43753 73.8365 8.24687 74.2814 8.24687C75.2347 8.24687 75.8067 8.88243 75.8067 9.96288V10.2171H73.3916V10.2807C73.3916 10.5349 73.4552 10.7891 73.6458 10.9798C73.8365 11.1704 74.0907 11.2976 74.345 11.2976C74.6627 11.3611 74.9805 11.1704 75.1712 10.8527H75.7432V10.7891ZM73.3916 9.6451H75.1076C75.1076 9.39087 75.0441 9.20021 74.8534 9.00954C74.6627 8.81887 74.4721 8.75531 74.2178 8.75531C73.9636 8.75531 73.773 8.81887 73.5823 9.00954C73.4552 9.20021 73.3916 9.45443 73.3916 9.6451Z" fill="white"/>
</svg>
