<svg xmlns="http://www.w3.org/2000/svg" fill="none" width="120" height="40" viewBox="0 0 120 40">
  <g clip-path="url(#ios-app-badge-es)">
    <path fill="#A6A6A6" d="M110.135 0H9.535c-.367 0-.73 0-1.095.002-.306.002-.61.008-.919.013C6.85.022 6.18.081 5.517.19a6.665 6.665 0 0 0-1.9.627A6.438 6.438 0 0 0 .195 5.52a12.993 12.993 0 0 0-.179 2.002c-.01.307-.01.615-.015.921V31.56c.005.31.006.61.015.921.008.671.068 1.34.18 2.002.11.663.32 1.306.624 1.905.303.597.7 1.142 1.178 1.612a6.274 6.274 0 0 0 1.618 1.179 6.7 6.7 0 0 0 1.901.63c.663.109 1.332.168 2.004.177.31.007.613.011.919.011.366.002.728.002 1.095.002h100.6c.36 0 .724 0 1.084-.002.304 0 .617-.004.922-.01.67-.009 1.339-.068 2-.178a6.796 6.796 0 0 0 1.908-.63A6.28 6.28 0 0 0 117.666 38a6.404 6.404 0 0 0 1.182-1.614c.302-.6.511-1.242.619-1.905a13.57 13.57 0 0 0 .185-2.002c.004-.31.004-.61.004-.921.008-.364.008-.725.008-1.094V9.536c0-.366 0-.73-.008-1.092 0-.306 0-.614-.004-.92a13.584 13.584 0 0 0-.185-2.003 6.616 6.616 0 0 0-.62-1.903 6.468 6.468 0 0 0-2.798-2.8 6.761 6.761 0 0 0-1.908-.627c-.661-.11-1.33-.169-2-.176-.305-.005-.618-.011-.922-.013-.36-.002-.725-.002-1.084-.002Z"/>
    <path fill="#000" d="M8.445 39.125c-.305 0-.602-.004-.904-.01a12.68 12.68 0 0 1-1.87-.164 5.886 5.886 0 0 1-1.656-.548 5.405 5.405 0 0 1-1.397-1.016 5.32 5.32 0 0 1-1.02-1.397 5.722 5.722 0 0 1-.544-1.657 12.414 12.414 0 0 1-.166-1.875c-.007-.21-.015-.913-.015-.913v-23.1s.009-.692.015-.895a12.37 12.37 0 0 1 .165-1.872 5.8 5.8 0 0 1 .544-1.662 5.36 5.36 0 0 1 1.015-1.398 5.565 5.565 0 0 1 3.055-1.567C6.287.95 6.915.895 7.543.887l.902-.012h102.769l.913.013c.623.007 1.244.061 1.858.162a5.942 5.942 0 0 1 1.671.548 5.594 5.594 0 0 1 2.415 2.42 5.74 5.74 0 0 1 .535 1.649c.104.624.162 1.255.174 1.887.003.283.003.588.003.89.008.375.008.732.008 1.092v20.929c0 .363 0 .718-.008 1.075 0 .325 0 .623-.004.93-.011.621-.068 1.24-.17 1.853a5.716 5.716 0 0 1-.54 1.67c-.264.513-.607.98-1.016 1.386a5.41 5.41 0 0 1-1.4 1.022 5.852 5.852 0 0 1-1.668.55c-.618.1-1.243.155-1.869.163-.293.007-.6.011-.897.011l-1.084.002-101.69-.002Z"/>
    <path fill="#fff" d="M24.769 20.3a4.95 4.95 0 0 1 2.356-4.151 5.067 5.067 0 0 0-3.99-2.158c-1.68-.176-3.308 1.005-4.164 1.005-.872 0-2.19-.988-3.608-.958a5.315 5.315 0 0 0-4.473 2.728c-1.934 3.348-.491 8.269 1.361 10.976.927 1.325 2.01 2.805 3.428 2.753 1.387-.058 1.905-.885 3.58-.885 1.658 0 2.144.885 3.59.852 1.489-.025 2.426-1.332 3.32-2.67a10.96 10.96 0 0 0 1.52-3.092 4.78 4.78 0 0 1-2.92-4.4Zm-2.732-8.09a4.872 4.872 0 0 0 1.115-3.49 4.957 4.957 0 0 0-3.208 1.66 4.636 4.636 0 0 0-1.144 3.36 4.099 4.099 0 0 0 3.237-1.53Zm20.265 14.93H37.57l-1.137 3.356h-2.005l4.484-12.418h2.083l4.483 12.418h-2.039l-1.137-3.356Zm-4.243-1.55h3.752l-1.85-5.446h-.051l-1.851 5.446Zm17.101.38c0 2.813-1.506 4.62-3.779 4.62a3.07 3.07 0 0 1-2.848-1.583h-.043v4.484h-1.86V21.442h1.8v1.506h.033a3.213 3.213 0 0 1 2.883-1.6c2.298 0 3.813 1.816 3.813 4.622h.001Zm-1.91 0c0-1.833-.948-3.038-2.393-3.038-1.42 0-2.375 1.23-2.375 3.038 0 1.824.955 3.046 2.375 3.046 1.445 0 2.393-1.197 2.393-3.046Zm11.875 0c0 2.813-1.506 4.62-3.779 4.62a3.07 3.07 0 0 1-2.848-1.583h-.043v4.484h-1.859V21.442h1.799v1.506h.034a3.213 3.213 0 0 1 2.883-1.6c2.298 0 3.813 1.816 3.813 4.622Zm-1.91 0c0-1.833-.948-3.038-2.393-3.038-1.42 0-2.375 1.23-2.375 3.038 0 1.824.955 3.046 2.375 3.046 1.445 0 2.392-1.197 2.392-3.046h.001Zm8.495 1.066c.138 1.232 1.334 2.04 2.97 2.04 1.566 0 2.693-.808 2.693-1.919 0-.964-.68-1.54-2.29-1.936l-1.609-.388c-2.28-.55-3.339-1.617-3.339-3.348 0-2.142 1.867-3.614 4.519-3.614 2.624 0 4.423 1.472 4.483 3.614h-1.876c-.112-1.239-1.136-1.987-2.634-1.987s-2.521.757-2.521 1.858c0 .878.654 1.395 2.255 1.79l1.368.336c2.548.603 3.606 1.626 3.606 3.443 0 2.323-1.85 3.778-4.793 3.778-2.754 0-4.614-1.42-4.734-3.667h1.902ZM83.346 19.3v2.142h1.722v1.472h-1.722v4.991c0 .776.345 1.137 1.102 1.137.204-.004.408-.018.611-.043v1.463a5.03 5.03 0 0 1-1.032.086c-1.833 0-2.548-.689-2.548-2.445v-5.189h-1.316v-1.472h1.316V19.3h1.867Zm2.719 6.67c0-2.849 1.678-4.639 4.294-4.639 2.625 0 4.295 1.79 4.295 4.64 0 2.855-1.661 4.637-4.295 4.637-2.633 0-4.294-1.782-4.294-4.638Zm6.695 0c0-1.954-.895-3.108-2.401-3.108-1.506 0-2.4 1.162-2.4 3.108 0 1.962.894 3.106 2.4 3.106 1.506 0 2.401-1.144 2.401-3.106Zm3.426-4.528h1.773v1.541h.043a2.16 2.16 0 0 1 2.177-1.635c.214 0 .428.022.637.07v1.737a2.594 2.594 0 0 0-.835-.112 1.872 1.872 0 0 0-1.937 2.083v5.37h-1.858v-9.054Zm13.198 6.395c-.25 1.643-1.85 2.771-3.898 2.771-2.634 0-4.269-1.764-4.269-4.595 0-2.84 1.644-4.682 4.19-4.682 2.506 0 4.08 1.72 4.08 4.466v.637h-6.394v.112a2.353 2.353 0 0 0 .639 1.832 2.361 2.361 0 0 0 1.797.732 2.05 2.05 0 0 0 2.09-1.273h1.765Zm-6.282-2.702h4.526a2.183 2.183 0 0 0-.608-1.634 2.169 2.169 0 0 0-1.612-.664 2.291 2.291 0 0 0-2.306 2.298ZM35.428 11.716c0-1.935 1.03-3.13 2.687-3.13a2.384 2.384 0 0 1 2.482 2.067h-.923a1.535 1.535 0 0 0-1.559-1.203c-1.071 0-1.741.873-1.741 2.266 0 1.39.67 2.261 1.745 2.261a1.494 1.494 0 0 0 1.555-1.1h.923a2.329 2.329 0 0 1-2.478 1.964c-1.658 0-2.691-1.194-2.691-3.125Zm6.182.728a2.134 2.134 0 1 1 4.247 0 2.134 2.134 0 1 1-4.247 0Zm3.333 0c0-.977-.438-1.548-1.208-1.548-.772 0-1.207.571-1.207 1.547 0 .985.435 1.55 1.207 1.55.77 0 1.208-.57 1.208-1.55Zm2.107-2.25h.855v.715h.067a1.348 1.348 0 0 1 1.343-.802 1.466 1.466 0 0 1 1.559 1.676v2.915h-.889v-2.693c0-.724-.314-1.084-.971-1.084a1.033 1.033 0 0 0-1.076 1.142v2.634h-.888v-4.502Zm6.845-.087c1.012 0 1.674.472 1.761 1.266h-.852c-.082-.33-.406-.541-.91-.541-.496 0-.872.234-.872.585 0 .27.227.44.715.55l.748.175c.857.199 1.258.567 1.258 1.229 0 .846-.79 1.413-1.865 1.413-1.071 0-1.77-.484-1.849-1.282h.89a.913.913 0 0 0 .98.563c.553 0 .947-.248.947-.608 0-.27-.211-.443-.662-.55l-.786-.182c-.856-.204-1.252-.588-1.252-1.258 0-.798.731-1.36 1.749-1.36Zm2.97-.665 1.038-1.422h1.042l-1.162 1.422h-.918Zm.092.752h.885v4.503h-.885v-4.502Zm2.269 4.954h.909c.075.327.451.537 1.05.537.74 0 1.18-.351 1.18-.947v-.864h-.067a1.515 1.515 0 0 1-1.39.756c-1.15 0-1.86-.888-1.86-2.236 0-1.373.719-2.274 1.869-2.274a1.56 1.56 0 0 1 1.414.794h.07v-.72h.852v4.54c0 1.03-.807 1.684-2.08 1.684-1.125 0-1.853-.504-1.947-1.27Zm3.155-2.758c0-.898-.464-1.473-1.22-1.473-.765 0-1.195.575-1.195 1.473 0 .897.43 1.471 1.194 1.471.762 0 1.22-.57 1.22-1.472h.001Zm6.084 2.307h-.856v-.715h-.07a1.35 1.35 0 0 1-1.36.803 1.464 1.464 0 0 1-1.552-1.668v-2.923h.89v2.692c0 .728.293 1.075.946 1.075a1.021 1.021 0 0 0 1.113-1.133v-2.633h.89l-.001 4.502Zm5.224-1.215a1.828 1.828 0 0 1-1.951 1.303 2.046 2.046 0 0 1-2.08-2.325 2.077 2.077 0 0 1 2.076-2.353c1.253 0 2.009.857 2.009 2.27v.31h-3.18v.05a1.19 1.19 0 0 0 1.2 1.29 1.08 1.08 0 0 0 1.07-.545h.856Zm-3.126-1.451h2.274a1.087 1.087 0 0 0-1.108-1.168 1.152 1.152 0 0 0-1.166 1.168Zm4.414-3.594h.889v6.26h-.889v-6.26Zm2.124 4.007a2.132 2.132 0 1 1 4.247 0 2.134 2.134 0 1 1-4.247 0Zm3.333 0c0-.977-.438-1.548-1.208-1.548-.772 0-1.207.571-1.207 1.547 0 .985.435 1.55 1.207 1.55.77 0 1.208-.57 1.208-1.55Zm8.358 1.037a1.828 1.828 0 0 1-1.952 1.303 2.046 2.046 0 0 1-2.08-2.325 2.077 2.077 0 0 1 2.076-2.351c1.253 0 2.01.855 2.01 2.27v.31h-3.18v.05a1.189 1.189 0 0 0 1.199 1.29 1.08 1.08 0 0 0 1.071-.546h.856Zm-3.126-1.45h2.274a1.087 1.087 0 0 0-1.108-1.168 1.152 1.152 0 0 0-1.166 1.168Zm4.373-1.837h.855v.715h.066a1.348 1.348 0 0 1 1.344-.802 1.466 1.466 0 0 1 1.559 1.676v2.915h-.889v-2.693c0-.724-.314-1.084-.972-1.084a1.033 1.033 0 0 0-1.075 1.142v2.634h-.888v-4.502Zm11.449 3.287a1.828 1.828 0 0 1-1.951 1.303 2.046 2.046 0 0 1-2.08-2.325 2.077 2.077 0 0 1 2.076-2.351c1.253 0 2.009.855 2.009 2.27v.31h-3.18v.05a1.189 1.189 0 0 0 1.2 1.29 1.08 1.08 0 0 0 1.07-.546h.856Zm-3.126-1.45h2.274a1.09 1.09 0 0 0-.666-1.085 1.086 1.086 0 0 0-.442-.082 1.152 1.152 0 0 0-1.166 1.166Zm4.414-3.594h.889v6.26h-.89l.001-6.26Z"/>
  </g>
  <defs>
    <clipPath id="ios-app-badge-es">
      <path fill="#fff" d="M0 0h119.664v40H0z"/>
    </clipPath>
  </defs>
</svg>
