<svg width="153" height="153" viewBox="0 0 153 153" fill="none" xmlns="http://www.w3.org/2000/svg">
<g filter="url(#filter0_i_36_13)">
<circle cx="76.2439" cy="76.416" r="75.7927" fill="#FF0000"/>
</g>
<g filter="url(#filter1_d_36_13)">
<path d="M100.438 38.5556C103.684 35.3096 108.946 35.3096 112.193 38.5556L114.104 40.4672C117.35 43.7133 117.35 48.9762 114.104 52.2222L52.0501 114.276C48.8041 117.522 43.5412 117.522 40.2951 114.276L38.3835 112.365C35.1375 109.119 35.1375 103.856 38.3835 100.61L100.438 38.5556Z" fill="white"/>
<path d="M114.104 100.61C117.35 103.856 117.35 109.119 114.104 112.365L112.193 114.276C108.947 117.522 103.684 117.522 100.438 114.276L38.3835 52.2223C35.1375 48.9762 35.1375 43.7133 38.3835 40.4672L40.2951 38.5556C43.5412 35.3096 48.8041 35.3096 52.0501 38.5556L114.104 100.61Z" fill="white"/>
</g>
<defs>
<filter id="filter0_i_36_13" x="0.451172" y="0.623291" width="151.585" height="151.585" filterUnits="userSpaceOnUse" color-interpolation-filters="sRGB">
<feFlood flood-opacity="0" result="BackgroundImageFix"/>
<feBlend mode="normal" in="SourceGraphic" in2="BackgroundImageFix" result="shape"/>
<feColorMatrix in="SourceAlpha" type="matrix" values="0 0 0 0 0 0 0 0 0 0 0 0 0 0 0 0 0 0 127 0" result="hardAlpha"/>
<feOffset/>
<feGaussianBlur stdDeviation="9.04194"/>
<feComposite in2="hardAlpha" operator="arithmetic" k2="-1" k3="1"/>
<feColorMatrix type="matrix" values="0 0 0 0 0 0 0 0 0 0 0 0 0 0 0 0 0 0 0.01 0"/>
<feBlend mode="normal" in2="shape" result="effect1_innerShadow_36_13"/>
</filter>
<filter id="filter1_d_36_13" x="30.6302" y="36.1211" width="91.2274" height="93.8867" filterUnits="userSpaceOnUse" color-interpolation-filters="sRGB">
<feFlood flood-opacity="0" result="BackgroundImageFix"/>
<feColorMatrix in="SourceAlpha" type="matrix" values="0 0 0 0 0 0 0 0 0 0 0 0 0 0 0 0 0 0 127 0" result="hardAlpha"/>
<feOffset dy="7.97818"/>
<feGaussianBlur stdDeviation="2.65939"/>
<feComposite in2="hardAlpha" operator="out"/>
<feColorMatrix type="matrix" values="0 0 0 0 0 0 0 0 0 0 0 0 0 0 0 0 0 0 0.25 0"/>
<feBlend mode="normal" in2="BackgroundImageFix" result="effect1_dropShadow_36_13"/>
<feBlend mode="normal" in="SourceGraphic" in2="effect1_dropShadow_36_13" result="shape"/>
</filter>
</defs>
</svg>
