<svg width="104" height="31" viewBox="0 0 104 31" fill="none" xmlns="http://www.w3.org/2000/svg">
<mask id="mask0_35_29" style="mask-type:luminance" maskUnits="userSpaceOnUse" x="0" y="0" width="104" height="31">
<path d="M103.312 0.493164H0.351318V31.0001H103.312V0.493164Z" fill="white"/>
</mask>
<g mask="url(#mask0_35_29)">
<path d="M99.4987 0.493164H4.16468C2.06733 0.493164 0.351318 2.20918 0.351318 4.30653V27.1867C0.351318 29.284 2.06733 31.0001 4.16468 31.0001H99.4987C101.596 31.0001 103.312 29.284 103.312 27.1867V4.30653C103.312 2.20918 101.596 0.493164 99.4987 0.493164Z" fill="black"/>
<path d="M99.4987 1.12872C101.278 1.12872 102.677 2.59051 102.677 4.30653V27.1867C102.677 28.9663 101.215 30.3645 99.4987 30.3645H4.16468C2.38511 30.3645 0.986879 28.9027 0.986879 27.1867V4.30653C0.986879 2.52696 2.44867 1.12872 4.16468 1.12872H99.4987ZM99.4987 0.493164H4.16468C2.06733 0.493164 0.351318 2.20918 0.351318 4.30653V27.1867C0.351318 29.284 2.06733 31.0001 4.16468 31.0001H99.4987C101.596 31.0001 103.312 29.284 103.312 27.1867V4.30653C103.312 2.20918 101.596 0.493164 99.4987 0.493164Z" fill="#A6A6A6"/>
<path d="M52.3402 17.0811C50.5606 17.0811 49.0989 18.5429 49.0989 20.3225C49.0989 22.1021 50.5606 23.5639 52.3402 23.5639C54.1198 23.5639 55.5816 22.1021 55.5816 20.3225C55.5816 19.4327 55.2638 18.6065 54.6282 18.0345C53.9927 17.3989 53.1664 17.0811 52.3402 17.0811ZM52.3402 22.2927C51.514 22.3563 50.7513 21.9114 50.4335 21.1487C50.1158 20.4496 50.2429 19.5598 50.7513 18.9878C51.3233 18.4158 52.1495 18.2251 52.9122 18.4794C53.6749 18.7972 54.1833 19.4963 54.1833 20.3225C54.1833 20.8309 54.0562 21.3394 53.6749 21.7207C53.2936 22.0385 52.8487 22.2927 52.3402 22.2927ZM45.2219 17.0811C43.4424 17.0811 41.9806 18.5429 41.9806 20.3225C41.9806 22.1021 43.4424 23.5639 45.2219 23.5639C47.0015 23.5639 48.4633 22.1021 48.4633 20.3225C48.4633 19.4327 48.1455 18.6065 47.51 18.0345C46.9379 17.3989 46.0482 17.0811 45.2219 17.0811ZM45.2219 22.2927C44.3957 22.3563 43.633 21.9114 43.3153 21.2123C42.9339 20.5132 43.1246 19.6234 43.633 19.0514C44.1415 18.4794 45.0313 18.2887 45.7939 18.5429C46.5566 18.8607 47.0651 19.5598 47.0651 20.3861C47.0651 20.8945 46.9379 21.4029 46.5566 21.7843C46.1753 22.0385 45.7304 22.2927 45.2219 22.2927ZM36.769 18.098V19.4963H40.0739C40.0103 20.1318 39.7561 20.7674 39.3112 21.2123C38.6757 21.9114 37.7223 22.2292 36.769 22.2292C34.7352 22.2292 33.0827 20.5767 33.0827 18.5429C33.0827 16.5091 34.7352 14.8567 36.769 14.8567C37.7223 14.8567 38.6121 15.1745 39.2477 15.81L40.201 14.8567C39.3112 13.9033 38.0401 13.3949 36.769 13.4584C34.9259 13.3949 33.2098 14.3482 32.2565 15.9371C31.3032 17.526 31.3032 19.4963 32.2565 21.0852C33.2098 22.6741 34.9259 23.6274 36.769 23.5639C38.1037 23.6274 39.3748 23.119 40.2646 22.1656C41.0908 21.2758 41.4721 20.1318 41.4721 18.9243C41.4721 18.6065 41.4721 18.3523 41.4086 18.0345L36.769 18.098ZM71.3435 19.1785C70.9621 17.9709 69.8181 17.1447 68.547 17.0811C67.7208 17.0811 66.8945 17.3989 66.3225 18.0345C65.7505 18.67 65.4328 19.4963 65.4963 20.3225C65.4963 21.2123 65.8141 22.0385 66.3861 22.6105C67.0217 23.2461 67.8479 23.5639 68.6741 23.5639C69.7546 23.5639 70.7715 23.0554 71.3435 22.1021L70.263 21.3394C69.9452 21.9114 69.3097 22.2292 68.6741 22.2292C67.975 22.2292 67.403 21.8478 67.0852 21.2758L71.407 19.4963L71.3435 19.1785ZM66.8945 20.2589C66.8945 19.814 67.0217 19.3056 67.3394 18.9878C67.6572 18.67 68.1021 18.4158 68.6106 18.4158C69.119 18.3523 69.5639 18.67 69.8181 19.1149L66.8945 20.2589ZM63.399 23.3732H64.7972V13.8398H63.399V23.3732ZM61.0474 17.7803C60.5389 17.2718 59.9669 17.0176 59.2678 17.0176C57.5518 17.0811 56.1536 18.5429 56.1536 20.2589C56.1536 21.975 57.4882 23.4367 59.2678 23.5003C59.9034 23.5003 60.5389 23.2461 60.9838 22.7376H61.0474V23.1825C61.0474 24.4536 60.4118 25.0892 59.3314 25.0892C58.6323 25.0892 57.9331 24.6443 57.6789 23.9452L56.4078 24.4536C56.9162 25.5976 57.9967 26.3603 59.2678 26.3603C60.9203 26.3603 62.3185 25.407 62.3185 22.9918V17.2082H60.9838V17.7803H61.0474ZM59.3949 22.2927C58.378 22.2292 57.6154 21.3394 57.6154 20.3225C57.6154 19.3056 58.378 18.4158 59.3949 18.3523C59.9034 18.3523 60.3483 18.6065 60.6661 18.9878C60.9838 19.3692 61.1745 19.814 61.1109 20.3225C61.1745 20.8309 60.9838 21.2758 60.6661 21.6572C60.3483 22.0385 59.9034 22.2927 59.3949 22.2927ZM78.0168 13.8398H74.5848V23.3732H75.9831V19.7505H77.9533C79.0337 19.814 80.1142 19.3056 80.6862 18.3523C81.2582 17.3989 81.2582 16.1914 80.6862 15.238C80.1778 14.2847 79.0973 13.7762 78.0168 13.8398ZM78.0168 18.4158H75.9831V15.1745H78.0168C78.9066 15.1745 79.6693 15.9371 79.6693 16.8269C79.6693 17.7167 78.9066 18.4158 78.0168 18.4158ZM86.7876 17.0176C85.7071 16.954 84.7538 17.526 84.2453 18.4794L85.5165 18.9878C85.7707 18.5429 86.2791 18.2251 86.7876 18.2887C87.1689 18.2251 87.5503 18.3523 87.8045 18.6065C88.1223 18.8607 88.2494 19.1785 88.3129 19.5598V19.6869C87.868 19.4327 87.3596 19.3056 86.8511 19.3056C85.5165 19.3056 84.1182 20.0683 84.1182 21.4665C84.1182 22.0385 84.436 22.6105 84.8809 22.9918C85.3258 23.3732 85.8978 23.5639 86.5334 23.5639C87.296 23.6274 87.9951 23.2461 88.3765 22.6741H88.44V23.3732H89.8383V19.6869C89.7112 18.0345 88.44 17.0811 86.7876 17.0176ZM86.5969 22.2927C86.152 22.2927 85.4529 22.0385 85.4529 21.4665C85.4529 20.7038 86.2791 20.4496 86.9783 20.4496C87.4231 20.4496 87.868 20.5767 88.2494 20.7674C88.2494 21.5936 87.4867 22.2927 86.5969 22.2927ZM94.7321 17.2718L93.0796 21.4029H93.0161L91.3001 17.2718H89.7747L92.317 23.0554L90.8552 26.2968H92.317L96.1939 17.3354H94.7321V17.2718ZM81.8938 23.3732H83.292V13.8398H81.8938V23.3732Z" fill="white"/>
<path fill-rule="evenodd" clip-rule="evenodd" d="M8.29564 6.21313C8.04142 6.53091 7.91431 6.91225 7.91431 7.29359V24.1359C7.91431 24.5173 8.04142 24.8986 8.29564 25.2164L8.3592 25.2799L17.829 15.8101V15.6194L8.29564 6.21313Z" fill="url(#paint0_linear_35_29)"/>
<path fill-rule="evenodd" clip-rule="evenodd" d="M20.9438 18.9879L17.8296 15.8101V15.6195L20.9438 12.4417L21.0074 12.5052L24.7572 14.6026C25.8377 15.1746 25.8377 16.1915 24.7572 16.827L21.0074 18.9244L20.9438 18.9879Z" fill="url(#paint1_linear_35_29)"/>
<path fill-rule="evenodd" clip-rule="evenodd" d="M21.0071 18.9879L17.8293 15.7466L8.2959 25.28C8.74079 25.6613 9.43991 25.7249 9.8848 25.3435L21.0071 18.9879Z" fill="url(#paint2_linear_35_29)"/>
<path fill-rule="evenodd" clip-rule="evenodd" d="M21.0071 12.5053L9.8848 6.21323C9.43991 5.8319 8.74079 5.89545 8.2959 6.27679L17.8293 15.8102L21.0071 12.5053Z" fill="url(#paint3_linear_35_29)"/>
<path opacity="0.2" fill-rule="evenodd" clip-rule="evenodd" d="M20.9436 18.9246L9.8848 25.2166C9.43991 25.5344 8.80435 25.5344 8.35945 25.2166L8.2959 25.2802L8.35945 25.3437C8.80435 25.6615 9.43991 25.6615 9.8848 25.3437L21.0071 18.9881L20.9436 18.9246Z" fill="black"/>
<path opacity="0.12" fill-rule="evenodd" clip-rule="evenodd" d="M8.29564 25.153C8.04142 24.8353 7.91431 24.4539 7.91431 24.0726V24.1997C7.91431 24.581 8.04142 24.9624 8.29564 25.2802V25.153ZM24.7567 16.7636L20.9433 18.9245L21.0068 18.9881L24.7567 16.8908C25.2015 16.7001 25.4558 16.2552 25.5193 15.8103C25.4558 16.1916 25.138 16.573 24.7567 16.7636Z" fill="black"/>
<path opacity="0.25" fill-rule="evenodd" clip-rule="evenodd" d="M9.88471 6.27657L24.7568 14.7295C25.1382 14.9202 25.4559 15.3015 25.5195 15.7464C25.4559 15.3015 25.2017 14.8566 24.7568 14.666L9.88471 6.21302C8.80426 5.64101 7.97803 6.08591 7.97803 7.35703V7.48414C7.97803 6.21302 8.80426 5.70457 9.88471 6.27657Z" fill="white"/>
<path d="M35.6249 9.8359C34.6716 10.7892 33.2098 10.7892 32.2564 9.8359C31.3667 8.88256 31.3667 7.42077 32.2564 6.46743C32.7013 6.02253 33.2733 5.76831 33.9089 5.76831C34.5445 5.76831 35.1165 6.02253 35.5614 6.46743C36.5147 7.35721 36.5147 8.88256 35.6249 9.8359ZM32.7013 9.45456C33.4005 10.1537 34.4809 10.1537 35.18 9.45456C35.8791 8.69189 35.8791 7.54788 35.18 6.84876C34.4809 6.14965 33.4005 6.14965 32.7013 6.84876C32.0022 7.54788 32.0022 8.69189 32.7013 9.45456Z" fill="white" stroke="white" stroke-width="0.402244"/>
<path fill-rule="evenodd" clip-rule="evenodd" d="M37.0864 10.4078V5.83179H37.7855L40.01 9.39093V5.83179H40.582V10.4078H40.01L37.722 6.65802V10.4078H37.0864ZM43.2514 10.4078H42.6794V6.40379H41.4082V5.83179H44.5225V6.40379H43.2514V10.4078Z" fill="white" stroke="white" stroke-width="0.402244"/>
<path d="M45.2856 10.4078V5.83179H46.6839C47.3194 5.83179 47.8914 6.02246 48.3999 6.46735C48.8448 6.91224 49.0355 7.48424 49.0355 8.1198C49.0355 8.75536 48.8448 9.32737 48.3999 9.77226C47.955 10.2172 47.3194 10.4078 46.6839 10.4078H45.2856ZM45.8576 9.83582H46.6839C47.1288 9.83582 47.5737 9.70871 47.955 9.39093C48.2728 9.07315 48.4634 8.5647 48.4634 8.1198C48.527 7.67491 48.3363 7.16646 48.0186 6.84868C47.7008 6.5309 47.2559 6.34024 46.7474 6.40379H45.9212V9.83582H45.8576Z" fill="white" stroke="white" stroke-width="0.402244"/>
<path fill-rule="evenodd" clip-rule="evenodd" d="M52.4674 6.40379H50.3701V7.86558H52.2768V8.43758H50.3701V9.89937H52.4674V10.4714H49.7981V5.83179H52.4674V6.40379ZM56.7893 5.83179L55.0732 7.80202L56.8528 10.4078H56.1537L54.6284 8.24692L53.9292 9.07315V10.4078H53.3572V5.83179H53.9292V8.18336L56.0266 5.83179H56.7893ZM59.0137 10.4078V5.83179H59.5857V7.80202H61.8737V5.83179H62.4457V10.4078H61.8737V8.31047H59.5857V10.4078H59.0137ZM66.1955 6.40379H64.0982V7.86558H66.0049V8.43758H64.0982V9.89937H66.1955V10.4714H63.5262V5.83179H66.1955V6.40379ZM68.6742 10.4078H68.1022V6.40379H66.8311V5.83179H69.9454V6.40379H68.6742V10.4078Z" fill="white" stroke="white" stroke-width="0.402244"/>
<path d="M75.9196 9.8359C74.9663 10.7892 73.5045 10.7892 72.5511 9.8359C71.6613 8.88256 71.6613 7.42077 72.5511 6.46743C72.996 6.02253 73.568 5.76831 74.2036 5.76831C74.8391 5.76831 75.4112 6.02253 75.856 6.46743C76.8094 7.35721 76.8094 8.88256 75.9196 9.8359ZM72.996 9.45456C73.6951 10.1537 74.7756 10.1537 75.4747 9.45456C76.1738 8.69189 76.1738 7.54788 75.4747 6.84876C74.7756 6.14965 73.6951 6.14965 72.996 6.84876C72.2969 7.54788 72.2969 8.69189 72.996 9.45456ZM78.0169 10.4079H77.4449V5.83187H78.9703C79.3516 5.83187 79.733 5.95898 79.9872 6.2132C80.2414 6.46743 80.4321 6.84876 80.4321 7.16654C80.4321 7.54788 80.305 7.86566 79.9872 8.11988C79.733 8.37411 79.3516 8.50122 78.9703 8.50122H78.0169V10.4079ZM78.0169 7.99277H78.9703C79.2245 7.99277 79.4152 7.92922 79.5423 7.73855C79.6694 7.61143 79.7965 7.42077 79.7965 7.16654C79.7965 6.97587 79.733 6.78521 79.5423 6.59454C79.4152 6.40387 79.161 6.34031 78.9703 6.34031H78.0169V7.99277Z" fill="white" stroke="white" stroke-width="0.402244"/>
</g>
<defs>
<linearGradient id="paint0_linear_35_29" x1="15.4791" y1="8.63869" x2="7.37847" y2="16.7393" gradientUnits="userSpaceOnUse">
<stop stop-color="#00A0FF"/>
<stop offset="0.01" stop-color="#00A1FF"/>
<stop offset="0.26" stop-color="#00BEFF"/>
<stop offset="0.51" stop-color="#00D2FF"/>
<stop offset="0.76" stop-color="#00DFFF"/>
<stop offset="1" stop-color="#00E3FF"/>
</linearGradient>
<linearGradient id="paint1_linear_35_29" x1="26.1532" y1="15.7468" x2="7.70416" y2="15.7468" gradientUnits="userSpaceOnUse">
<stop stop-color="#FFE000"/>
<stop offset="0.41" stop-color="#FFBD00"/>
<stop offset="0.78" stop-color="#FFA500"/>
<stop offset="1" stop-color="#FF9C00"/>
</linearGradient>
<linearGradient id="paint2_linear_35_29" x1="18.6467" y1="18.138" x2="4.80845" y2="31.9701" gradientUnits="userSpaceOnUse">
<stop stop-color="#FF3A44"/>
<stop offset="1" stop-color="#C31162"/>
</linearGradient>
<linearGradient id="paint3_linear_35_29" x1="7.98816" y1="2.70411" x2="14.1649" y2="8.88074" gradientUnits="userSpaceOnUse">
<stop stop-color="#32A071"/>
<stop offset="0.07" stop-color="#2DA771"/>
<stop offset="0.48" stop-color="#15CF74"/>
<stop offset="0.8" stop-color="#06E775"/>
<stop offset="1" stop-color="#00F076"/>
</linearGradient>
</defs>
</svg>
