<svg xmlns="http://www.w3.org/2000/svg" width="135" height="40" viewBox="0 0 135 40">
  <g fill="none">
    <rect width="135" height="40" fill="#000" rx="5"/>
    <path fill="#A6A6A6" d="M130 .8c2.3196 0 4.2 1.8804 4.2 4.2v30c0 2.3196-1.8804 4.2-4.2 4.2H5C2.6804 39.2.8 37.3196.8 35V5C.8 2.6804 2.6804.8 5 .8h125zm0-.8H5C2.23858 0 0 2.23858 0 5v30c0 2.76142 2.23858 5 5 5h125c2.76142 0 5-2.23858 5-5V5c0-2.76142-2.23858-5-5-5z"/>
    <path fill="#FFF" d="M68.14 21.75c-2.34458.01103-4.23733 1.91868-4.22998 4.26327.00735 2.3446 1.91202 4.24034 4.25662 4.23668C70.51124 30.2463 72.40997 28.3446 72.41 26c.01647-1.13563-.42877-2.2293-1.23374-3.0305-.80498-.8012-1.90072-1.2413-3.03626-1.2195zm0 6.83c-1.05677.0739-2.05133-.5057-2.50798-1.46156-.45665-.95588-.28258-2.09376.43895-2.8694.72153-.77565 1.84387-1.0314 2.83022-.64496.9863.38645 1.6362 1.33657 1.6388 2.39592.0325.66267-.204 1.3104-.6559 1.79618-.4519.48578-1.08086.76844-1.74415.78382zm-9.31-6.83c-2.3459.00552-4.24367 1.91075-4.24 4.25665.00368 2.3459 1.90742 4.24517 4.25333 4.24334C61.18923 30.2481 63.09 28.3459 63.09 26c.01647-1.13563-.42877-2.2293-1.23374-3.0305-.80498-.8012-1.90072-1.2413-3.03626-1.2195h.01zm0 6.83c-1.05732.07807-2.05478-.49863-2.51465-1.4539-.45987-.95528-.28853-2.09464.43196-2.8724.7205-.77777 1.8435-1.0356 2.8311-.65.9876.3856 1.63877 1.3361 1.64165 2.3963.03255.66267-.20396 1.3104-.65585 1.79618-.4519.48578-1.08086.76844-1.74415.78382h.01zm-11.09-5.52v1.8h4.32c-.06774.8478-.42016 1.6478-1 2.27-.87398.89022-2.08346 1.36966-3.33 1.32-2.65097 0-4.8-2.14903-4.8-4.8 0-2.65097 2.14903-4.8 4.8-4.8 1.2178-.01986 2.39376.44405 3.27 1.29l1.27-1.27c-1.19508-1.21014-2.82928-1.88475-4.53-1.87-2.42104-.09422-4.6996 1.14367-5.93815 3.22606-1.23854 2.08238-1.23854 4.6755 0 6.75788 1.23854 2.0824 3.5171 3.32028 5.93815 3.22606 1.73176.07825 3.41274-.59632 4.61-1.85 1.04768-1.15108 1.60704-2.66424 1.56-4.22.00323-.379-.03026-.75745-.1-1.13l-6.07.05zm45.31 1.4c-.53392-1.5708-1.98207-2.64895-3.64-2.71-1.10564-.00216-2.16285.4534-2.92062 1.25853-.75777.80513-1.14848 1.888-1.07938 2.99147-.02456 1.1293.41116 2.22003 1.20705 3.02157.7959.80155 1.8835 1.245 3.01295 1.22843 1.42086.00766 2.75064-.69855 3.54-1.88l-1.45-1c-.44025.73394-1.23414 1.18217-2.09 1.18-.8864.0338-1.70336-.4778-2.06-1.29l5.69-2.35-.21-.45zm-5.8 1.42c-.04095-.62484.17133-1.23985.58897-1.7064.41764-.46656 1.0055-.74538 1.63103-.7736.65937-.04345 1.28107.31068 1.58.9l-3.8 1.58zM82.63 30h1.87V17.5h-1.87V30zm-3.06-7.3h-.07c-.57004-.63732-1.38494-1.00112-2.24-1-2.26985.11007-4.05366 1.98248-4.05366 4.255s1.7838 4.14493 4.05366 4.255c.85783.01442 1.67802-.35173 2.24-1h.06v.61c0 1.63-.87 2.5-2.27 2.5-.9537-.02232-1.79927-.61897-2.14-1.51l-1.63.68c.62768 1.5268 2.11923 2.51986 3.77 2.51 2.19 0 4-1.29 4-4.43V22h-1.72v.7zm-2.14 5.88c-1.3371-.11784-2.36262-1.2377-2.36262-2.58s1.0255-2.46216 2.36262-2.58c.64612.03316 1.2515.32577 1.67885.8115.42736.48572.64052 1.12342.59115 1.7685.05513.64805-.15734 1.29043-.58803 1.7778-.4307.48734-1.04206.7772-1.69197.8022h.01zm24.38-11.08h-4.47V30h1.87v-4.74h2.61c1.45268.10436 2.84197-.6115 3.60013-1.85503.75816-1.24353.75816-2.8064 0-4.04994-.75816-1.24354-2.14745-1.9594-3.60013-1.85503h-.01zm0 6H99.2v-4.26h2.65c1.18465 0 2.145.96035 2.145 2.145s-.96035 2.145-2.145 2.145l-.04-.03zm11.53-1.8c-1.3913-.08316-2.6993.6671-3.33 1.91l1.66.69c.3344-.61633 1.00113-.97714 1.7-.92.47953-.056.96145.08297 1.33753.3857.37607.30275.61477.74387.66247 1.2243v.13c-.6006-.318-1.2704-.48287-1.95-.48-1.79 0-3.6 1-3.6 2.81.0357.7797.38524 1.51183.96913 2.0298.5839.51797 1.35247.77773 2.13087.7202.95923.06888 1.87957-.3913 2.4-1.2h.06v1h1.8v-4.81c0-2.19-1.66-3.46-3.79-3.46l-.05-.03zm-.23 6.85c-.61 0-1.46-.31-1.46-1.06 0-1 1.06-1.33 2-1.33.59404-.01466 1.18113.1304 1.7.42-.1293 1.11942-1.06348 1.97254-2.19 2l-.05-.03zM123.74 22l-2.14 5.42h-.06L119.32 22h-2l3.33 7.58-1.9 4.21h1.95L125.82 22h-2.08zm-16.81 8h1.87V17.5h-1.87V30z"/>
    <path fill="#EB3131" d="m20.717 19.424-10.647 11.3.002.007a2.874 2.874 0 0 0 4.236 1.734l.034-.02 11.984-6.915-5.609-6.106Z"/>
    <path fill="#F6B60B" d="m31.488 17.5-.01-.007-5.174-3-5.829 5.188 5.85 5.848 5.146-2.969a2.88 2.88 0 0 0 .017-5.06Z"/>
    <path fill="#5778C5" d="M10.07 9.277a2.827 2.827 0 0 0-.098.74v19.968c0 .256.034.504.099.74l11.012-11.012L10.07 9.277Z"/>
    <path fill="#3BAD49" d="m20.796 20.001 5.51-5.509-11.97-6.94a2.878 2.878 0 0 0-4.265 1.722l-.001.003 10.726 10.724Z"/>
    <path fill="#000" d="M27 24.13l-14.49 8.25c-.59296.44334-1.40704.44334-2 0l-.07.07.07.07c.59185.44668 1.40815.44668 2 0l14.61-8.3-.12-.09z" opacity=".2"/>
    <path fill="#000" d="M10.44 32.32c-.32593-.3911-.49045-.8918-.46-1.4v.15c-.03045.5082.13406 1.0089.46 1.4l.07-.07-.07-.08zM32 21.3l-5 2.83.09.09L32 21.44c.56707-.2664.94847-.8156 1-1.44-.11397.56484-.4833 1.04496-1 1.3z" opacity=".12"/>
    <path fill="#FFF" d="M12.51 7.62L32 18.7c.5167.25504.88603.73516 1 1.3-.05153-.6244-.43293-1.1736-1-1.44L12.51 7.48c-1.4-.79-2.54-.13-2.54 1.47v.15c.03-1.61 1.15-2.27 2.54-1.48z" opacity=".25"/>
    <path fill="#fff" fill-rule="evenodd" d="M41.3008 7.32001V13.32h1.8c.9 0 1.7-.3 2.2-.8.5-.6.8-1.3.8-2.2 0-.89999-.2-1.59999-.8-2.19999-.5-.5-1.3-.8-2.2-.8h-1.8zm1.9 5.29999h-1.1V8.02001h1.1c.6 0 1.2.2 1.6.6.4.4.6 1 .6 1.69999 0 .7-.2 1.3-.6 1.7-.4.4-.9.6-1.6.6z" clip-rule="evenodd"/>
    <path fill="#fff" d="M41.3008 13.32h-.1v.1h.1v-.1zm0-5.99999v-.1h-.1v.1h.1zm4 5.19999l.071.071.0058-.007-.0768-.064zm0-4.39999l.0707-.07071-.0707.07071zm-3.2 4.49999h-.1v.1h.1v-.1zm0-4.59999v-.1h-.1v.1h.1zm2.7.6l-.0707.07071.0707-.07071zm0 3.39999l-.0707-.0707.0707.0707zm-3.4 1.3V7.32001h-.2V13.32h.2zm1.7-.1h-1.8v.2h1.8v-.2zm2.1293-.7707c-.4773.4772-1.2496.7707-2.1293.7707v.2c.9203 0 1.7479-.3065 2.2707-.8293l-.1414-.1414zm.7707-2.1293c0 .8745-.2904 1.5523-.7768 2.136l.1536.128c.5136-.6163.8232-1.3385.8232-2.264h-.2zm-.7707-2.12928c.5755.57551.7707 1.24642.7707 2.12928h.2c0-.91713-.2048-1.64622-.8293-2.2707l-.1414.14142zm-2.1293-.77071c.8797 0 1.652.29346 2.1293.77071l.1414-.14142c-.5228-.52276-1.3504-.82929-2.2707-.82929v.2zm-1.8 0h1.8v-.2h-1.8v.2zm.8 5.29999h1.1v-.2h-1.1v.2zm-.1-4.69999V12.62h.2V8.02001h-.2zm1.2-.1h-1.1v.2h1.1v-.2zm1.6707.62929c-.423-.423-1.0509-.62929-1.6707-.62929v.2c.5801 0 1.1523.19371 1.5293.57071l.1414-.14142zm.6293 1.7707c0-.71757-.2051-1.34645-.6293-1.7707l-.1414.14142c.3757.37575.5707.94686.5707 1.62928h.2zm-.6293 1.7707c.4242-.4242.6293-1.0531.6293-1.7707h-.2c0 .6824-.195 1.2535-.5707 1.6293l.1414.1414zm-1.6707.6293c.7222 0 1.2491-.2077 1.6707-.6293l-.1414-.1414c-.3784.3784-.8516.5707-1.5293.5707v.2z"/>
    <path fill="#fff" fill-rule="evenodd" stroke="#fff" stroke-width=".2" d="M47.2016 13.32V7.32001h.8V13.32h-.8zm3.8984.1c-.4 0-.9-.1-1.3-.4-.4-.3-.7-.7-.8-1.2l.7-.3c.1.3.3.6.5.8.3.2.6.3.9.3.3 0 .6-.1.9-.3.2-.2.4-.4.4-.7 0-.3-.1-.6-.4-.8-.2-.2-.6-.4-1.1-.5-.5-.2-.9-.4-1.2-.6-.3-.3-.4-.6-.4-1s.2-.8.5-1.1c.3-.3.8-.5 1.3-.5s.9.1 1.2.4c.3.3.5.5.6.8l-.7.3c-.1-.2-.2-.4-.4-.5-.2-.2-.5-.2-.8-.2-.3 0-.5.1-.8.2-.1.2-.2.4-.2.7 0 .2.1.4.3.6.2.2.5.3.9.4.3.1.5.2.7.3.2.1.4.2.6.4.2.1.4.3.5.6.1.2.2.5.2.8 0 .3-.1.6-.2.8-.1.2-.3.4-.5.5-.3 0-.5.1-.7.1-.2.1-.5.1-.7.1z" clip-rule="evenodd"/>
    <path fill="#fff" fill-rule="evenodd" d="M54.2012 13.32h.8v-2.4h1.2c.5 0 .9-.2 1.3-.5.4-.4.6-.79999.6-1.29999s-.2-1-.6-1.3c-.4-.3-.8-.5-1.3-.5h-2V13.32zm2.1-3.2h-1.3V8.12001h1.3c.3 0 .6.1.8.3.2.2.3.4.3.7 0 .2-.1.5-.3.7-.2.19999-.5.29999-.8.29999z" clip-rule="evenodd"/>
    <path fill="#fff" d="M55.0012 13.32v.1h.1v-.1h-.1zm-.8 0h-.1v.1h.1v-.1zm.8-2.4v-.1h-.1v.1h.1zm2.5-.5l.06.08.0057-.0043.005-.005-.0707-.0707zm-3.3-3.09999v-.1h-.1v.1h.1zm.8 2.79999h-.1v.1h.1v-.1zm0-1.99999v-.1h-.1v.1h.1zm2.1.3l.0707-.07071-.0707.07071zm-2.1 4.79999h-.8v.2h.8v-.2zm-.1-2.3v2.4h.2v-2.4h-.2zm1.3-.1h-1.2v.2h1.2v-.2zm1.24-.48c-.3913.2934-.7703.48-1.24.48v.2c.5303 0 .9512-.2134 1.36-.52l-.12-.16zm.56-1.21999c0 .46706-.1844.84296-.5707 1.22929l.1414.1414c.4137-.4137.6293-.83776.6293-1.37069h-.2zm-.56-1.22c.3696.27724.56.7444.56 1.22h.2c0-.5244-.2097-1.05724-.64-1.38l-.12.16zm-1.24-.48c.4697 0 .8487.18658 1.24.48l.12-.16c-.4088-.30658-.8297-.52-1.36-.52v.2zm-2 0h2v-.2h-2v.2zm.1 5.89999V7.32001h-.2V13.32h.2zm.7-3.1h1.3v-.2h-1.3v.2zm-.1-2.09999V10.12h.2V8.12001h-.2zm1.4-.1h-1.3v.2h1.3v-.2zm.8707.32929c-.223-.223-.5509-.32929-.8707-.32929v.2c.2801 0 .5523.09371.7293.27071l.1414-.14142zm.3293.77071c0-.16167-.0271-.30087-.0836-.42812-.0564-.12681-.1398-.23669-.2457-.34259l-.1414.14142c.0941.09409.1607.18422.2043.2824.0434.09775.0664.20856.0664.34689h.2zm-.3293.77071c.22-.21998.3293-.54598.3293-.77071h-.2c0 .17526-.0907.44927-.2707.62929l.1414.14142zm-.8707.32928c.3198 0 .6477-.1063.8707-.32928l-.1414-.14142c-.177.177-.4492.2707-.7293.2707v.2z"/>
    <path fill="#fff" fill-rule="evenodd" d="M61.8012 13.42c.9 0 1.6-.3 2.2-.9.6-.6.9-1.3.9-2.2 0-.9-.3-1.6-.9-2.2-.6-.6-1.3-.9-2.2-.9-.9 0-1.6.3-2.2.9-.6.6-.9 1.3-.9 2.2 0 .9.3 1.6.9 2.2.6.6 1.3.9 2.2.9zm0-.7c-.6 0-1.2-.3-1.6-.7-.5-.4-.7-1-.7-1.7s.3-1.3.7-1.7c.4-.5 1-.7 1.6-.7.6 0 1.2.3 1.6.7.5.4.7 1 .7 1.7s-.3 1.3-.7 1.7c-.4.5-1 .7-1.6.7z" clip-rule="evenodd"/>
    <path fill="#fff" d="M60.2012 12.02l.0711-.0711-.0087-.007-.0624.0781zm0-3.4l.0711.07115.007-.00868-.0781-.06247zm3.2 0l-.0712.07115.0087.00694.0625-.07809zm0 3.4l-.0712-.0711-.0069.0086.0781.0625zm.5293.4293c-.5812.5812-1.2558.8707-2.1293.8707v.2c.9264 0 1.6519-.3105 2.2707-.9293l-.1414-.1414zm.8707-2.1293c0 .8735-.2895 1.5481-.8707 2.1293l.1414.1414c.6188-.6188.9293-1.3442.9293-2.2707h-.2zm-.8707-2.12929c.5812.58121.8707 1.25576.8707 2.12929h.2c0-.92647-.3105-1.65192-.9293-2.27071l-.1414.14142zM61.8012 7.32c.8735 0 1.5481.2895 2.1293.87071l.1414-.14142C63.4531 7.4305 62.7276 7.12 61.8012 7.12v.2zm-2.1293.87071c.5812-.58121 1.2557-.87071 2.1293-.87071v-.2c-.9265 0-1.6519.3105-2.2707.92929l.1414.14142zM58.8012 10.32c0-.87353.2895-1.54808.8707-2.12929l-.1414-.14142c-.6188.61879-.9293 1.34424-.9293 2.27071h.2zm.8707 2.1293c-.5812-.5812-.8707-1.2558-.8707-2.1293h-.2c0 .9265.3105 1.6519.9293 2.2707l.1414-.1414zm2.1293.8707c-.8736 0-1.5481-.2895-2.1293-.8707l-.1414.1414c.6188.6188 1.3442.9293 2.2707.9293v-.2zm-1.6707-1.2293c.4151.4152 1.0395.7293 1.6707.7293v-.2c-.5688 0-1.1445-.2859-1.5293-.6707l-.1414.1414zm-.7293-1.7707c0 .7184.2058 1.3527.7375 1.7781l.1249-.1562c-.4683-.3746-.6624-.9403-.6624-1.6219h-.2zm.7293-1.77071c-.417.41694-.7293 1.04173-.7293 1.77071h.2c0-.67101.2876-1.24623.6707-1.62929l-.1414-.14142zM61.8012 7.82c-.621 0-1.254.20735-1.6781.73753l.1562.12494c.3758-.46981.9429-.66247 1.5219-.66247v-.2zm1.6707.72929c-.4152-.41515-1.0395-.72929-1.6707-.72929v.2c.5688 0 1.1444.28586 1.5293.67071l.1414-.14142zm.7293 1.77071c0-.71842-.2059-1.35272-.7376-1.77809l-.1249.15618c.4683.37463.6625.94033.6625 1.62191h.2zm-.7293 1.7707c.4169-.4169.7293-1.0417.7293-1.7707h-.2c0 .671-.2877 1.2462-.6707 1.6293l.1414.1414zm-1.6707.7293c.621 0 1.2539-.2073 1.6781-.7375l-.1562-.125c-.3759.4698-.9429.6625-1.5219.6625v.2z"/>
    <path fill="#fff" fill-rule="evenodd" stroke="#fff" stroke-width=".2" d="M66 13.32V7.32001h.9L69.8 12.02v0-4.69999h.8V13.32h-.8l-3.1-4.89999V13.32H66zm6.0004 0V7.32001h.8V13.32h-.8z" clip-rule="evenodd"/>
    <path fill="#fff" fill-rule="evenodd" d="M74.1016 13.32V7.32001h2.2c.5 0 .9.2 1.2.5.3.3.5.7.5 1.2 0 .23738-.0627.41216-.1383.62341v.00001c-.02.05572-.0409.11397-.0617.17658-.1.19999-.3.39999-.6.49999.3.1.5.3.7.5.2.2.3.5.3.9 0 .5-.2.9-.5 1.2-.4.3-.8.5-1.3.5h-2.3v-.1zm.8-3.39999h1.4c.3 0 .5-.1.7-.3.2-.2.3-.4.3-.6 0-.15279-.1168-.36393-.2164-.54427-.0309-.05573-.06-.10852-.0836-.15573-.2-.2-.4-.3-.7-.3h-1.4v1.9zm1.6 2.69999h-1.5v-2h1.5c.3 0 .5.1.7.3.2.2.3.5.3.7 0 .3-.1.5-.3.7-.2.2-.4.3-.7.3z" clip-rule="evenodd"/>
    <path fill="#fff" d="M74.1016 7.32001v-.1h-.1v.1h.1zm3.7617 2.32341l-.0942-.03373-.0003.00101.0945.03272zm0 .00001l.0941.03373.0004-.00101-.0945-.03272zm-.0617.17658l.0894.04472.0032-.00636.0022-.00674-.0948-.03162zm-.6.49999l-.0317-.0949-.2846.0949.2846.0949.0317-.0949zm.5 2.6l.06.08.0056-.0043.0051-.005-.0707-.0707zm-3.6.5h-.1v.1h.1v-.1zm.8-3.49999h-.1V10.02h.1v-.09999zm2.1836-1.44427l.0875-.04838-.0875.04838zm-.0836-.15573l.0894-.04472-.0073-.01452-.0114-.01147-.0707.07071zm-2.1-.3v-.1h-.1v.1h.1zm.1 4.59999h-.1v.1h.1v-.1zm0-2v-.1h-.1v.1h.1zm-1-3.29999V13.32h.2V7.32001h-.2zm2.3-.1h-2.2v.2h2.2v-.2zm1.2707.52929c-.3167-.3167-.7414-.52929-1.2707-.52929v.2c.4707 0 .8459.1874 1.1293.47071l.1414-.14142zm.5293 1.27071c0-.5293-.2126-.95402-.5293-1.27071l-.1414.14142c.2833.2833.4707.65859.4707 1.12929h.2zm-.1442.65713c.0754-.21054.1442-.40033.1442-.65713h-.2c0 .21797-.0565.37772-.1325.58968l.1883.06745zm.0004-.00099v-.00002l-.189-.06543v.00002l.189.06543zm-.0614.17548c.0205-.0614.041-.11864.061-.17447l-.1883-.06745c-.0199.0556-.0411.11486-.0624.17867l.1897.06325zm-.6632.56327c.3257-.1086.5462-.327.6578-.55017l-.1789-.08944c-.0884.17684-.2679.35841-.5422.44981l.0633.1898zm.7391.3344c-.1982-.1982-.4136-.4157-.7391-.5242l-.0633.1898c.2745.0915.4592.274.661.4758l.1414-.1414zm.3293.9707c0-.4154-.104-.7453-.3293-.9707l-.1414.1414c.1746.1747.2707.4447.2707.8293h.2zm-.5293 1.2707c.3167-.3167.5293-.7414.5293-1.2707h-.2c0 .4707-.1874.846-.4707 1.1293l.1414.1414zm-1.3707.5293c.5303 0 .9512-.2134 1.36-.52l-.12-.16c-.3913.2934-.7703.48-1.24.48v.2zm-2.3 0h2.3v-.2h-2.3v.2zm-.1-.2v.1h.2v-.1h-.2zm2.3-3.49999h-1.4V10.02h1.4v-.19999zm.6293-.27071c-.0941.09409-.1843.16069-.2825.20433-.0977.04344-.2085.06638-.3468.06638V10.02c.1616 0 .3008-.02706.4281-.08361.1268-.05636.2367-.13977.3426-.24567l-.1414-.14142zm.2707-.52929c0 .16412-.0816.34019-.2707.52929l.1414.14142c.2109-.2109.3293-.43484.3293-.67071h-.2zm-.204-.4959c.0503.09099.1021.18486.1416.27444.0405.09165.0624.16677.0624.22146h.2c0-.0981-.0365-.20494-.0794-.30216-.0437-.09926-.1001-.20114-.1495-.29049l-.1751.09675zm-.0855-.15938c.0247.04943.055.10416.0855.15938l.1751-.09675c-.0311-.05624-.0592-.10708-.0817-.15207l-.1789.08944zm-.6105-.24472c.1383 0 .2491.02293.3468.06638.0982.04364.1884.11023.2825.20433l.1414-.14142c-.1059-.10591-.2158-.18931-.3426-.24567-.1273-.05656-.2665-.08362-.4281-.08362v.2zm-1.4 0h1.4v-.2h-1.4v.2zm.1 1.8v-1.9h-.2v1.9h.2zm0 2.79999h1.5v-.2h-1.5v.2zm-.1-2.1v2h.2v-2h-.2zm1.6-.1h-1.5v.2h1.5v-.2zm.7707.3293c-.1059-.1059-.2158-.1893-.3426-.2457-.1273-.0565-.2665-.0836-.4281-.0836v.2c.1383 0 .2491.0229.3468.0664.0982.0436.1884.1102.2825.2043l.1414-.1414zm.3293.7707c0-.2247-.1093-.5507-.3293-.7707l-.1414.1414c.18.18.2707.454.2707.6293h.2zm-.3293.7707c.1059-.1059.1893-.2158.2456-.3426.0566-.1272.0837-.2664.0837-.4281h-.2c0 .1383-.023.2491-.0664.3469-.0437.0982-.1103.1883-.2043.2824l.1414.1414zm-.7707.3293c.1616 0 .3008-.0271.4281-.0836.1268-.0564.2367-.1398.3426-.2457l-.1414-.1414c-.0941.0941-.1843.1607-.2825.2043-.0977.0435-.2085.0664-.3468.0664v.2z"/>
    <path fill="#fff" fill-rule="evenodd" stroke="#fff" stroke-width=".2" d="M79.2012 13.32V7.32001h.8V12.62h2.6v.7h-3.4zm7.9004-5.29999h-2.7v1.9h2.5V10.62h-2.5v1.9h2.7v.8h-3.5V7.32001h3.5v.7zm6.6992 0h-2.7v1.9h2.5V10.62h-2.5v1.9h2.7v.8h-3.5V7.32001h3.5v.7zM95 13.32V7.32001h.9L98.8 12.02v0-4.69999h.8V13.32h-.8l-3.1-4.89999V13.32H95z" clip-rule="evenodd"/>
  </g>
</svg>
