<svg width="48" height="48" xmlns="http://www.w3.org/2000/svg" xmlns:xlink="http://www.w3.org/1999/xlink"><defs><path id="a" d="M.8.396h34.65v27.34H.8z"/><path id="c" d="M.288.788h2.138v.137H.288z"/></defs><g fill="none" fill-rule="evenodd"><path d="M8.732 37.42v-.001l-.002-.006.002.006z" fill="#C3F4C9"/><g transform="translate(7.774 19.948)"><mask id="b" fill="#fff"><use xlink:href="#a"/></mask><path d="M3.246 26.606c.232.117.46.266.811.433-.484-.183-.497-.206-.811-.433zM29.818.731c.04.009.069.024.103.036l-.114.012-.075-.024c.03-.01.076-.025.086-.024zM1.146 22.932c-.012-.065-.027-.126-.034-.196-.003-.024.011-.07.022-.117.015.066.035.124.039.184.003.038-.017.086-.027.13zm-.077-4.185c-.014-.025-.038-.04-.043-.078-.011-.074-.014-.16-.019-.242.024.045.049.083.064.145.01.036 0 .116-.002.175zm-.178-7.885l-.003-.042.013.01-.01.032zM.854 9.487l-.015-.145c.008.033.014.065.019.092.002.012-.002.035-.004.053zm34.436 3.885a.542.542 0 0 1 .026-.11c.18-.4.138-.953.104-1.482-.013-.204-.032-.386.001-.587.012-.077.026-.19.017-.257-.053-.383.017-.802-.045-1.189a1.607 1.607 0 0 1 .007-.452 2.507 2.507 0 0 0-.002-.902 1.368 1.368 0 0 1 .003-.513l-.001.004-.019-.398c0-.087.008-.183.02-.263.047-.307-.06-.42-.08-.627-.02-.226.126-.258.106-.535-.016-.215-.026-.45-.083-.684-.13-.516-.223-1.055-.367-1.542a3.603 3.603 0 0 0-.63-1.224 4.668 4.668 0 0 0-1.449-1.244.758.758 0 0 0-.21-.095 1.253 1.253 0 0 1-.414-.185 2.332 2.332 0 0 0-.746-.289 5.598 5.598 0 0 0-1.26-.137L29.22.653c-.224-.001-.435-.001-.624.06-.245.081-.5.092-.693.015-.263-.105-.571-.105-.913-.097-.42.01-.867-.03-1.241.07-.404-.001-.811.008-1.211-.006-.206-.006-.394-.014-.597.004-.158.013-.33.016-.322-.07 0-.01-.092-.03-.144-.032-.566-.008-1.13-.015-1.687-.025-.131 0-.263.02-.395.03-.013.006-.024.012-.04.016-.011.002-.03.002-.046.002l.084-.017c-.314-.087-.524.011-.79.06-.34-.123-.794-.132-1.247-.14-.7-.01-1.4-.032-2.098-.02-.791.01-1.565-.033-2.347-.046L12.944.44 9.908.417l-.744.006c-.202 0-.417.012-.603-.006-.407-.04-.807-.011-1.21-.005-.102.001-.226.016-.302.04-.23.068-.493.055-.688.007A2.071 2.071 0 0 0 6.08.408a3.485 3.485 0 0 0-.37-.004c-.257 0-.517.063-.775.116a4.585 4.585 0 0 0-.804.293l-.018.013-.087.045-.109.026a4.564 4.564 0 0 0-1.06.589c-.471.355-.871.8-1.198 1.292-.17.262-.292.5-.259.656.013.07-.083.25-.141.332-.239.29-.393.71-.4 1.254l-.042.602c-.003.143-.022.322-.002.395.082.27.074.495-.003.748a.968.968 0 0 0 .003.257c.03.236.058.46.017.715a.577.577 0 0 0 .034.215c.052.105.067.226.05.403l-.08.831.001-.004V9.327c-.072.332-.026.574.062.804.024.063.042.228-.034.152-.01-.01-.034.031-.035.055-.011.281-.049.561.029.83.076.265.097.587.085.948-.011.327.03.68-.07.947-.003.311-.025.633-.007.934.027.463-.01.956.068 1.396a.493.493 0 0 1-.032.148c-.028.078-.03.18-.002.224.06.1.09.208.069.43-.01.098-.01.247.009.324.082.343.02.64-.02.951.037.094.086.17.03.349-.076.243-.073.25-.013.508l.03.092c-.045.051-.074.14-.069.294l.046 1.268.082-.765c.043.415.06.735.006.961-.088.38-.041.722-.012 1.085l.009.02c.046.041.07.113.04.264l.001-.008-.044.412v-.002c-.011.056-.033.112-.033.17-.001.399-.012 1 .125 1.596l.106-.074c.124.59.357 1.131.673 1.613.225.344.5.651.805.924.153.144.313.286.484.413l-.255-.111c.051.055.087.107.134.141a4.946 4.946 0 0 0 2.52.943l.448.02.364-.004c.066 0 .134-.008.192-.019.033-.005.068-.021.067-.034 0-.011-.044-.029-.076-.03l-.635-.024c.214-.005.306-.01.406-.023.326-.043.606-.054.815.068.05.031.23.053.35.052.512-.005 1.026-.019 1.476-.115.201-.043.425-.05.652-.042a.68.68 0 0 1 .22.038c.088.087.297.082.5.083l4.067.026.948.018 1.49.011c.157 0 .318-.004.466.008.248.02.485.03.73-.003.08-.01.186-.018.262-.009.682.072 1.395.046 2.09.072 1.022.037 2.053.04 3.088.033l.023.015c.017-.002.042-.004.047-.009.001-.002-.006-.003-.01-.006.152-.001.3.007.452.005l-.003.002c0 .011.08.028.132.036.037.007.088.003.155.004.042-.006.11-.01.165-.02.029-.006.053-.024.047-.036-.005-.012-.043-.032-.073-.033a2.804 2.804 0 0 0-.318.001.185.185 0 0 0-.082.028 2.902 2.902 0 0 0-.805-.063c-.285.012-.563.011-.88.01.132-.078.31-.06.449-.057 1.045.02 2.077-.035 3.112-.06.335-.01.675-.02 1.023-.032l.34-.04.677-.085c.337-.036.65-.158.974-.24.33-.083.626-.242.937-.364.062-.024.117-.066.177-.096.018-.009.027-.023.042-.033h.302c.172 0 .336-.03.502-.05-.007.047.034.05.057.07-.058.009-.116.023-.175.028-.013.002-.027.01-.057.022.047.051.106.058.161.055.145-.006.296 0 .441-.02.024-.003.048-.007.07-.004.203.029.408.038.62.032a1 1 0 0 0 .549-.151.424.424 0 0 1 .108-.063c.394-.13.743-.375 1.057-.657a.473.473 0 0 1 .197-.112.677.677 0 0 0 .2-.114c.042-.036.06-.092.008-.127-.04-.025-.039-.068-.014-.105.048-.08.116-.146.189-.276-.004.102-.01.152-.018.207.02-.007.037-.008.047-.017.105-.095.19-.21.254-.342.044-.087.082-.181.136-.263a.871.871 0 0 0 .057-.103c.026-.052.057-.104.078-.158l.13-.334c.072-.227.143-.456.176-.692.045-.235.061-.474.068-.711l.003-.608c0-.22-.019-.39-.084-.506.064-.24.133-.465.133-.815-.001-.197.02-.354-.044-.542-.05-.146-.06-.452-.006-.688.045-.195.051-.418.05-.648-.002-.267-.022-.549.063-.749-.007-.196.008-.452-.028-.575-.076-.26-.057-.55-.062-.832-.004-.2.006-.405.014-.606.003-.088.005-.215.024-.25.094-.187.075-.46.075-.727 0-.18 0-.365.012-.54.027-.385.02-.707-.116-.91-.044-.066-.033-.234-.011-.363z" fill="#C3F4C9" mask="url(#b)"/></g><g transform="translate(32.736 46.76)"><mask id="d" fill="#fff"><use xlink:href="#c"/></mask><path d="M2.189.792l-.143.012-.37.013-.736.03-.652.04.007.028.33.005L1.87.89l.199-.007.101-.01.207-.015c.013 0 .026-.01.038-.018.006-.004.012-.013.01-.017-.002-.012-.01-.035-.015-.035-.074 0-.145.003-.221.004" fill="#C3F4C9" mask="url(#d)"/></g><path d="M35.027 43.125l-.098.07c-.039.024-.073.022-.105-.016-.01-.014-.038-.015-.057-.022-.021.06-.058.064-.108.029-.039-.027-.069-.043-.044-.106.02-.052-.062-.05-.09-.078-.014-.014-.028-.05-.022-.055.02-.017.05-.039.072-.034.054.01.107.033.178.057-.088-.166-.085-.166-.09-.29.098.01.205.112.302.01-.012-.055-.054-.033-.085-.038-.105-.02-.16-.096-.194-.188-.022-.057.015-.11.067-.097.062.015.128.066.189-.013-.018-.01-.034-.016-.048-.025-.053-.04-.063-.085-.022-.123.068-.063.135-.124.208-.163.06-.028.125-.043.133-.142 0-.015.024-.037.037-.035.104.01.156-.092.237-.13.061-.025.107-.083.183-.079.024 0 .043-.035.064-.051.022-.018.04-.044.066-.05.167-.028.297-.137.4-.262.007-.01.012-.022.021-.025.138-.039.206-.168.302-.258.164-.148.27-.323.39-.523.085-.146.157-.287.25-.41a1.06 1.06 0 0 0 .207-.597c.003-.25.026-.418.042-.73l.033-1.492a1.971 1.971 0 0 0-.015-.29c-.035-.238-.025-.477-.024-.728-.007-.922-.012-1.846-.018-2.773l-.02-1.496c-.006-1.051-.02-2.105-.001-3.15-.005-.714-.009-1.386-.012-2.091l-.001-2.024c.012-.602.027-1.193-.016-1.788-.01-.141.002-.299.001-.448-.003-.213.001-.478-.01-.647a3.255 3.255 0 0 0-.054-.473 2.922 2.922 0 0 0-.584-1.232 2.822 2.822 0 0 0-1.85-1.014c-.124-.016-.233-.037-.374-.041-.443.006-.89-.032-1.333.016-.134.015-.3.012-.446.007a47.305 47.305 0 0 0-3.073 0 3.786 3.786 0 0 1-.594-.01 4.455 4.455 0 0 0-1.01-.009c-.226.019-.435-.006-.65-.009-.184-.003-.372.04-.564.047-.195.006-.404 0-.595-.014a8.635 8.635 0 0 0-1.038-.017c-1.098.052-2.2.017-3.302.013l-2.701.003-5.933-.02-.824.006-.75.014-1.276-.007c-.239-.005-.38.008-.525.011-.147.022-.297.035-.441.08-.58.14-1.11.492-1.494.96a2.8 2.8 0 0 0-.5.986c-.07.234-.116.476-.13.723-.013.208-.03.5-.015.723.048.648.025 1.294.025 1.944l.01 1.273v2.023l-.024 1.949.007 2.175v1.423c0 1.127-.003 2.251-.005 3.377l-.005 1.352-.003.677c.007.226.001.341.031.513.101.74.527 1.426 1.127 1.873.417.324.927.516 1.45.57.214.022.664.014 1.012.018.368-.003.735-.004 1.106-.006h7.361c.721.008 1.447.014 2.171.02.548.007 1.093.012 1.647.018.193.003.4.012.572.035.25.033.478.033.724.003a3.39 3.39 0 0 1 1.004.011c.198.035.483.033.728.035 1.355.01 2.705.021 4.058.03l1.047.024.261.007.167.005.156.01 1.787.058a.99.99 0 0 1 .563.19c.053.039.113.069.171.101.082.046.096.071.066.164a1.1 1.1 0 0 0-.083.411c.002.076-.08.08-.116.133.039.08.112.157.054.265-.01.017.047.068.064.107.03.065-.001.12-.073.13-.044.006-.09 0-.134.008-.05.009-.104.018-.148.043-.072.04-.14.085-.227.085a.1.1 0 0 0-.043.011c-.246.116-.246.115-.452.118-.06 0-.12-.002-.178.01-.264.055-.535.037-.802.064-.022.003-.047.01-.066.003-.156-.056-.309-.01-.465.004-.069.006-.062.014-.321.017a4.273 4.273 0 0 1-.595-.028c-.1-.013-.244.004-.366.01l-.52.019-3.45.034-2.396.016h-.225c-1.224-.017-2.446-.009-3.67.004l-2.772.011-4.873.007h-.15c-.7.025-1.4.026-2.1.022l-.265-.002-.332-.019c-.222-.005-.441-.056-.661-.087-.432-.104-.862-.231-1.256-.44a4.953 4.953 0 0 1-2.343-2.401 5.367 5.367 0 0 1-.37-1.081 5.804 5.804 0 0 1-.116-1.08l-.005-.86.007-.897-.004-.826.005-2.468.007-2.84c0-.397-.004-.799-.017-1.193-.019-.5-.034-.992.006-1.49.011-.141.015-.306.005-.445-.044-.62-.02-1.248-.024-1.872l-.011-1.866L5 22.657l.006-.816c.008-.345.048-.688.12-1.025a5.17 5.17 0 0 1 .835-1.873c.844-1.197 2.216-2.037 3.704-2.167.42-.032.707-.025 1.003-.025l.9.001.52.019.664.006.446-.017c1.325.013 2.645-.05 3.972-.013.322.01.65-.004.975-.004h.968l.521-.005.815.016c.272.005.565-.005.812.022.513.056.97.023 1.446-.032.178-.021.4-.026.59-.017.375.018.746.01 1.118.013.696.005 1.395.027 2.082.06.41.02.797-.007 1.194-.009.284 0 .595-.063.846.03.02.007.1.007.136.002.495-.074 1.005-.05 1.517-.024.045.002.109 0 .141-.007.343-.089.694-.05 1.062-.017.458.041.907.058 1.388-.003a4.65 4.65 0 0 1 1.311.006c.164.027.298.035.488.044.2.014.399-.001.595.013.439.003.861.12 1.26.32.082.036.165.096.247.13.64.28 1.2.745 1.665 1.225.455.47.772 1.014.973 1.623.155.45.238.942.284 1.408.04.435.054.65.04 1.005-.015.28.005.587-.028.88-.01.093.001.25.019.34.06.303.063.588.009.908-.037.22-.04.466-.026.727.063 1.082.043 2.18.04 3.272 0 .146-.016.293-.023.441-.005.096-.019.249-.007.281.093.24.029.566.043.843.016.313.002.646-.002.97l-.016.898c-.013.582-.052 1.16.01 1.741a2.26 2.26 0 0 1-.008.432c-.03.316-.055.625-.006.944.004.022.01.05.008.07-.062.672.05 1.313.026 1.991-.01.294-.01.592-.006.892l.006.45a5.55 5.55 0 0 1-.01.508c-.012.42-.11.834-.234 1.228a5.1 5.1 0 0 1-.65 1.256c-.083.13-.1.151-.096.178 0 .13-.069.226-.18.296a.504.504 0 0 0-.196.227.786.786 0 0 1-.342.376c-.082.046-.155.112-.238.158a.284.284 0 0 0-.14.133.348.348 0 0 1-.24.182c-.121.029-.237.063-.317.173-.282.14-.57.283-.879.33a.22.22 0 0 1-.124-.025c-.047-.022-.087-.042-.145-.003-.045.033-.04.065-.027.103.006.013-.016.045-.034.053a.131.131 0 0 1-.075-.009c-.013-.004-.016-.024-.022-.037-.01-.021-.01-.056-.026-.06-.115-.03-.157-.098-.144-.199-.103-.041-.055-.102-.015-.165.008-.011.001-.03.001-.06-.145.026-.293.02-.437.03-.104.008-.119 0-.107-.086l.019-.088c.005-.027.013-.056.013-.084 0-.007-.021-.013-.032-.02-.007.008-.02.022-.018.029.01.026.025.05.039.075" fill="#000"/><path d="M11.975 17.502l.056.096c.02.04.018.07-.022.097-.014.009-.017.034-.024.051.057.023.06.057.023.102-.029.034-.048.062-.108.037-.05-.02-.053.06-.084.086-.014.013-.051.026-.055.02-.017-.019-.036-.049-.031-.07.013-.054.04-.105.067-.173-.17.077-.17.077-.295.076.019-.104.115-.202.032-.313-.056.005-.041.051-.049.085-.025.106-.103.158-.198.193-.058.02-.108-.025-.093-.083.018-.069.071-.136.005-.216-.012.019-.02.036-.033.051-.047.057-.094.065-.124.011a1.309 1.309 0 0 1-.13-.28c-.022-.08-.015-.164-.11-.201-.015-.006-.03-.042-.025-.058.038-.125-.054-.226-.057-.347-.002-.087-.04-.17-.011-.262.01-.031-.012-.071-.019-.107-.006-.036-.02-.074-.014-.107.04-.216.023-.43-.024-.641-.004-.015-.01-.03-.007-.045.046-.178-.008-.356-.006-.533.003-.288-.024-.577-.044-.864v-.01c-.004-.082-.016-.163.02-.238a.406.406 0 0 0 .007-.317.762.762 0 0 1-.021-.349c.021-.178.025-.362.033-.544a.268.268 0 0 0-.016-.106c-.034-.087-.025-.175-.024-.265-.006-.334-.01-.67-.017-1.013-.008-.176-.018-.367-.007-.576.017-.428.011-.86.112-1.277.063-.28.046-.568.14-.84.077-.263.124-.538.206-.798.09-.23.19-.45.233-.693.01-.057.044-.114.065-.17.055-.177.135-.341.212-.508.116-.238.224-.481.351-.712.22-.353.405-.732.662-1.06.041-.057.102-.102.141-.159.104-.149.242-.272.313-.445.023-.053.073-.1.116-.141.312-.283.568-.612.867-.906.056-.058.12-.129.186-.155a.745.745 0 0 0 .312-.271c.056-.075.145-.103.215-.155.062-.043.096-.124.155-.175.06-.053.133-.1.203-.135.13-.061.242-.145.354-.234.36-.268.746-.51 1.161-.684.334-.158.657-.338 1.009-.45a7.9 7.9 0 0 1 1.16-.361c.39-.11.788-.179 1.189-.23l.333-.056c.1-.022.202-.036.304-.04.342-.014.708-.034 1.03-.034l.933.011.575-.01c.136.004.28.027.421.04.101.01.207.037.302.027.268-.04.53.004.792.053.167.024.348.047.516.07.275.03.538.122.805.187.258.069.51.152.755.254.274.11.559.2.83.315.18.077.351.164.524.25.418.192.793.464 1.189.696l.875.668c.31.293.657.551.939.874.42.435.762.93 1.127 1.407.57.824.998 1.735 1.326 2.68.119.27.15.57.224.855.05.218.11.434.127.658.01.077.015.161.002.234a.475.475 0 0 0 .04.29c.056.131.098.258.043.405-.03.083-.022.197-.02.297.028.563.022 1.063.006 1.547a51.68 51.68 0 0 0-.023.383l-.022.337-.058 1.788a.998.998 0 0 1-.189.563c-.04.053-.07.113-.103.172-.045.082-.07.096-.162.064a1.089 1.089 0 0 0-.412-.082c-.076.003-.08-.08-.133-.116-.081.038-.157.112-.265.053-.018-.01-.068.047-.107.065-.066.03-.12-.001-.13-.072-.006-.046 0-.09-.008-.134a.47.47 0 0 0-.043-.148c-.04-.072-.086-.14-.086-.228a.124.124 0 0 0-.01-.043c-.115-.245-.115-.245-.117-.451 0-.06.002-.121-.011-.179-.056-.265-.037-.534-.064-.802-.003-.022-.01-.047-.004-.067.057-.155.011-.309-.003-.464-.01-.104-.04-.267.012-.408.012-.036-.005-.088-.01-.133-.006-.064-.018-.126-.02-.19-.01-.425-.022-.845-.06-1.204a4.653 4.653 0 0 0-.093-.776 2.396 2.396 0 0 0-.012-.073c-.024-.401-.148-.784-.258-1.166-.091-.288-.212-.564-.312-.847a9.764 9.764 0 0 0-.748-1.4c-.008-.013-.014-.021-.025-.042-.303-.343-.523-.749-.852-1.068-.14-.138-.261-.293-.416-.413l-.213-.2a23.666 23.666 0 0 0-.222-.19c-.138-.128-.302-.22-.45-.336l-.228-.18c-.069-.057-.15-.097-.226-.143-.23-.133-.448-.292-.687-.41-.28-.125-.54-.295-.834-.389a3.55 3.55 0 0 0-.369-.116c-.156-.044-.31-.08-.458-.153a.333.333 0 0 0-.138-.04c-.206-.002-.392-.094-.594-.118l-.597-.08c-.15-.03-.304-.025-.456-.034-.337-.024-.69-.055-1.098-.044-.413.006-.856.015-1.243.038l-.58.031c-.056.002-.112-.01-.17-.012-.07.004-.14.014-.212.026-.046.008-.092.033-.139.04-.43.034-.824.207-1.246.279-.104.013-.197.07-.295.104l-.292.108-.155.062c-.085.026-.17.048-.25.086-.08.032-.16.084-.243.094-.173.021-.294.116-.406.231a.456.456 0 0 1-.154.114c-.111.046-.21.115-.314.175-.199.104-.392.22-.588.33-.118.065-.202.162-.304.24-.077.053-.104.176-.227.157-.01-.002-.03.017-.034.028-.07.164-.207.256-.348.35-.012.008-.027.023-.029.035-.02.138-.116.2-.222.264a.68.68 0 0 0-.3.334c-.056.13-.123.264-.267.329a.347.347 0 0 0-.188.238.511.511 0 0 1-.175.279c-.018.014-.04.03-.049.05-.074.161-.193.302-.253.463-.065.151-.118.294-.213.426a1.392 1.392 0 0 0-.173.317c-.036.094-.04.19-.092.286-.046.08-.06.18-.124.256-.02.026-.027.076-.02.109.024.113-.008.196-.092.277a.36.36 0 0 0-.082.221c-.032.352-.14.686-.18 1.038-.007.045-.031.09-.045.135-.01.031-.032.078-.021.09.081.088-.005.181.01.274.011.1-.008.206-.018.31l-.03.287c-.028.177-.062.4-.001.61a.305.305 0 0 1-.008.157c-.03.116-.055.229-.005.345.003.008.008.019.006.026-.061.245.051.479.026.728-.02.213.005.434.003.653 0 .118-.012.236-.026.353l-.06.4c-.005.036 0 .072.016.09.078.084.08.172.034.269-.037.078-.033.148.001.234a.597.597 0 0 1 .022.393c-.02.072-.022.148-.039.22a.178.178 0 0 0 .022.15c.052.076.04.154.005.233-.039.09-.07.182-.017.28-.017.244-.009.491-.062.733-.007.032-.038.063-.066.085-.038.031-.07.056-.044.11.018.042.05.045.092.043.013 0 .04.022.042.037.002.018-.013.04-.027.055-.008.009-.027.008-.042.01-.022.003-.056-.004-.064.008-.059.083-.134.106-.228.077-.066.078-.114.028-.165-.02-.009-.009-.027-.008-.058-.013l-.05.386c-.009.092-.017.105-.101.085l-.085-.026c-.026-.008-.053-.02-.08-.021-.007-.001-.017.017-.027.028.01.007.02.02.027.02.028-.007.054-.018.08-.029M24.574 27.78l.01-.057c.004-.02.007-.017.01.022 0 .015.002.016.004.024.003-.057.006-.06.011-.022.003.028.006.047.004.107-.003.051.005.053.008.084l.002.054c-.002.017-.005.037-.007.033l-.018-.068.008.295c-.01-.02-.02-.115-.031-.031 0 .055.004.04.008.048.01.026.016.103.02.198.001.059-.003.109-.009.093-.006-.019-.014-.071-.021-.004l.005.033a.47.47 0 0 1 0 .124.962.962 0 0 1-.027.128c-.009.023-.017.017-.02.113 0 .013-.005.028-.006.023-.013-.038-.023.054-.035.057-.01.002-.017.04-.027.011-.003-.009-.006.013-.01.019s-.008.021-.011.015c-.022-.041-.043-.024-.064.024l-.005.005c-.017-.045-.036.01-.053.008-.03-.004-.059.024-.088.043-.007.006-.013.016-.02-.02-.008-.05-.017-.044-.025-.007-.01.04-.019.036-.03.021-.014-.02-.029-.025-.044-.033 0 0-.006.003-.009.016-.007.035-.014.025-.021.024-.029-.001-.055.01-.083.017-.015.006-.03.019-.045.022-.032.003-.063.02-.094 0-.021-.013-.041.024-.063.013-.02-.011-.04.014-.06 0-.018-.012-.036-.027-.054.015-.004.011-.013-.001-.013-.001a.65.65 0 0 1-.041.01l-.058.002c-.028.005-.07.012-.092.013-.004.001-.01-.022-.016-.018-.012.007-.026-.03-.04.018-.004.014-.009.012-.012.006-.032-.034-.062-.032-.093 0-.005.006-.013.014-.017-.01-.01-.05-.02-.035-.03-.009-.007.019-.014-.007-.02-.01-.006-.002-.011.041-.017.048-.006.006-.012 0-.017-.013-.011-.027-.022-.035-.032-.018-.033.052-.065.018-.099.013-.027-.003-.054.005-.08.003a9.73 9.73 0 0 1-.179-.02c-.007-.002-.015.002-.025.006-.006.003-.014.015-.02.014l-.154-.025c-.016-.002-.032.012-.047.012-.01-.001-.02-.016-.03-.023-.01-.005-.017-.026-.024-.01-.02.047-.039.024-.058.023-.013 0-.025.01-.038.012-.02.001-.04.003-.06 0-.02-.005-.04-.023-.059-.026-.022-.002-.044-.005-.065.007-.014.008-.029.005-.043.002-.034-.007-.067-.004-.1-.006-.028-.001-.055-.01-.082-.009-.031.001-.063.011-.094.008-.045-.002-.089-.032-.133-.013-.073.03-.147-.025-.22-.001-.023.006-.044-.013-.065-.02-.017-.006-.033-.009-.05-.018-.006-.003-.011-.011-.017-.034-.007-.033-.013-.033-.022-.004-.009.039-.02.05-.03-.011-.005-.034-.014-.033-.022-.034-.046-.012-.075-.02-.12-.03-.01-.005-.022-.018-.032-.025-.01-.006-.02-.018-.032-.021l-.179-.058c-.02-.009-.04-.065-.056-.19l-.018-.102a.665.665 0 0 1-.006-.163l.008-.412c0-.076.008-.08.012-.133-.005-.08-.012-.157-.006-.264l-.006-.108a.388.388 0 0 1 .007-.13c.005-.005.01 0 .013-.007a.11.11 0 0 0 .016-.044c.007-.04.014-.085.022-.085l.005-.01c.024-.116.024-.116.045-.118.006 0 .012.002.018-.01.027-.056.053-.037.08-.065 0 0 .005-.01.007-.003.016.056.031.011.047-.004.01-.01.024-.04.035.011.004.013.007-.003.011-.009.006-.005.01-.017.016-.02l.103-.033.072-.017h.007c.036.017.073.01.11-.004.027-.01.055-.01.082-.01a10.5 10.5 0 0 1 .146-.007h.005c.041-.05.084-.003.126-.015l.053-.016c.01-.002.019.005.028.005.008 0 .018-.005.026-.008l.053-.013c.008 0 .017.007.025.007l.025-.004.074.005.085.008c.012 0 .024-.005.036-.018.015-.019.03-.035.045.006.004.011.01.014.013.005.02-.044.038-.02.056-.024a.84.84 0 0 1 .056-.011c.014-.003.028-.007.042-.006.033.004.065.016.097.013.034-.003.069-.022.103-.031a.136.136 0 0 1 .054-.001c.005 0 .01.015.015.019.008.005.014.008.02.007 0 0 .009-.019.013-.018.04.013.08-.05.12-.014.009.01.02-.003.028-.003h.03c.006 0 .01-.007.016-.005.008.003.015.01.024.015.008.006.016-.005.025.023.015.055.028.023.042-.033.006-.02.012-.026.018-.016.012.017.022.01.034.013.02.004.042.027.062.06.012.02.024-.008.036-.01.008 0 .018-.061.025.03 0 .007.003.007.004.002.014-.074.03-.048.046-.023 0 0 .003 0 .004-.008.01-.087.02-.05.032-.016.013.041.027.057.042-.003.012-.053.025-.066.038.006.01.051.02.053.028.008.01-.05.02-.054.03-.014a.337.337 0 0 0 .007.016c.017-.02.033.008.05-.025.014-.033.029-.027.043-.005.012.018.023.032.034.018.009-.013.017-.042.028-.024.008.014.017-.007.026.027.003.01.008 0 .01-.018.01-.061.018-.063.027-.01.007.038.014.041.022.027.033-.063.065-.043.098-.041l.013.024c.003.004.008.018.009.006.007-.092.016-.028.025-.042.009-.017.02-.002.03.002.008.003.017.009.026.015.018.013.035.052.052-.01.004-.014.01-.005.013.009.01.031.018.054.028.004l.002-.006c.02.062.04-.05.06-.027.017.022.036-.004.054-.002.01 0 .02.011.029.026l.032.06c.003.006.007 0 .008-.015.01-.077.018-.081.028-.035.008.036.015.033.023-.002.012-.048.026-.06.04-.021.006.02.015.022.021.04.006.012.011.009.016-.022.007-.052.016-.041.023-.006.01.039.019.071.029.018.024.016.049.008.073.061a.316.316 0 0 1 .008.066c.004.038.006.069.011.045a.43.43 0 0 0 .005-.092c0-.014.004-.043.004-.043l.005.027.001.042v.065c.01.057.011.133.008.227.009.066.003.114-.002.166v.056c.012.018.025.038.038.05.01.01.01.018.009.102l-.003.086-.002.079.003.027c0-.01 0-.02.002-.027l-.003-.08z" fill="#000"/><path d="M25.476 27.887l-.004-.027.003-.077.004.077-.003.027m.073.105l-.004-.054c-.003-.031-.015-.033-.012-.084.003-.06 0-.079-.006-.107-.007-.037-.012-.035-.015.022-.003-.008-.007-.01-.008-.023-.004-.04-.009-.044-.014-.023l-.014.055.003-.083c.003-.083.002-.093-.012-.101-.02-.013-.04-.034-.059-.05l.002-.06a.477.477 0 0 0 .003-.163.878.878 0 0 0-.012-.227v-.066c-.002-.014-.002-.033-.002-.041l-.008-.026s-.007.027-.007.041c.001.041 0 .073-.005.094-.008.023-.013-.008-.018-.046a.268.268 0 0 0-.012-.066c-.037-.054-.074-.045-.11-.062-.015.054-.03.021-.042-.017-.012-.036-.024-.046-.035.005-.008.032-.015.033-.024.023-.01-.018-.022-.02-.032-.04-.021-.04-.042-.027-.06.021-.013.035-.023.038-.035.002-.015-.047-.028-.043-.04.035-.004.016-.01.02-.013.016a6.856 6.856 0 0 1-.049-.062c-.015-.014-.03-.024-.043-.025-.027-.002-.055.024-.082.002-.03-.023-.059.089-.088.026l-.004.006c-.014.051-.028.028-.043-.004-.005-.013-.013-.021-.019-.008-.025.061-.052.023-.078.01a.264.264 0 0 0-.04-.015c-.015-.004-.029-.019-.044-.002-.012.012-.027-.05-.038.043 0 .01-.008-.003-.013-.007-.005-.007-.013-.025-.02-.026-.048 0-.097-.02-.146.042-.011.016-.023.012-.032-.025-.014-.056-.028-.053-.041.01-.005.017-.011.028-.016.017-.013-.034-.027-.012-.039-.027-.015-.018-.028.011-.042.023-.016.015-.033 0-.05-.018-.022-.022-.044-.026-.067.006-.023.033-.048.004-.073.025l-.01-.016c-.015-.04-.03-.036-.045.014-.014.045-.028.044-.042-.01-.02-.07-.04-.056-.059-.004-.021.06-.042.044-.062.002-.017-.033-.032-.071-.048.017 0 .008-.006.008-.006.008-.024-.026-.047-.05-.069.023 0 .006-.005.006-.005-.002-.012-.091-.025-.03-.038-.03-.018.003-.035.03-.054.01-.031-.032-.062-.056-.094-.061-.017-.002-.034.005-.05-.012-.009-.01-.019-.004-.027.016-.021.056-.042.088-.064.032-.012-.027-.025-.016-.037-.021-.012-.006-.024-.014-.036-.017-.008-.002-.016.005-.024.006h-.043c-.015 0-.03.013-.045.003-.059-.036-.118.027-.177.014-.008 0-.014.015-.02.017-.01.002-.02-.002-.03-.006-.008-.004-.016-.02-.024-.02a.293.293 0 0 0-.08.002c-.052.008-.104.028-.155.031-.049.003-.097-.01-.145-.013-.021-.002-.043.002-.064.004a4.907 4.907 0 0 0-.084.013c-.028.004-.056-.02-.084.024-.007.01-.013.006-.02-.006-.023-.04-.045-.024-.067-.006a.088.088 0 0 1-.054.018 4.19 4.19 0 0 0-.127-.007l-.11-.005-.037.004c-.014 0-.028-.007-.041-.006-.018.002-.049.008-.078.01-.013.004-.026.01-.04.01-.013 0-.027-.007-.04-.006l-.081.017c-.063.012-.126-.034-.19.015h-.006c-.073 0-.142.003-.219.005-.041.002-.083.002-.124.012a.302.302 0 0 1-.165.004h-.01l-.107.017a9.16 9.16 0 0 0-.156.034c-.007.002-.015.012-.023.02-.005.004-.012.022-.017.009-.017-.051-.035-.023-.052-.011-.024.014-.047.06-.071.003-.002-.007-.01.003-.01.003-.04.028-.081.008-.12.064-.01.013-.018.01-.028.01-.03.004-.03.003-.068.118-.002.006-.006.011-.006.011-.013 0-.024.046-.035.085a.074.074 0 0 1-.022.043c-.006.008-.013.002-.02.008-.01.01-.015.065-.01.13l.009.108c-.008.107.002.184.008.264-.005.054-.017.058-.017.133l-.012.412a.45.45 0 0 0 .009.164l.026.101c.025.124.054.18.085.19l.269.058c.016.004.031.014.047.021.016.008.031.02.047.024.067.01.114.019.182.03.011.003.024 0 .033.035.016.061.03.05.045.011.011-.03.021-.03.032.003.009.024.018.031.026.035.025.008.05.012.074.018.033.007.066.025.098.02.11-.025.22.03.33 0 .067-.018.133.012.2.015.047.002.094-.01.141-.01l.02.001c-.027.032-.032.061-.045.091.053.015.02.028-.018.042-.034.013-.046.023.006.036.032.006.034.014.022.022-.017.01-.019.022-.04.033-.039.02-.026.04.023.058.033.014.038.024 0 .036-.045.015-.043.027.035.04.016.004.021.01.017.013l-.062.05c-.014.014-.024.029-.025.043-.002.026.024.054.003.08-.025.031.087.06.025.09l.007.002c.049.015.026.03-.006.044-.012.005-.02.012-.007.018.062.027.022.052.01.079a.191.191 0 0 0-.015.04c-.004.015-.019.03-.003.043.014.013-.05.027.043.038.012.002-.003.01-.007.013-.008.007-.024.013-.024.02-.002.048-.022.1.04.146.016.013.012.024-.025.035-.055.013-.052.027.009.04.018.003.03.01.02.015-.035.013-.014.026-.029.039-.018.016.01.028.024.043.014.016 0 .032-.017.05-.023.022-.028.044.005.065.033.023.004.05.025.074 0 0-.009.007-.016.01-.04.015-.036.03.014.046.044.012.043.027-.009.042-.07.019-.059.04-.006.057.06.023.044.043.003.063-.034.017-.07.034.017.047.008.002.007.008.007.008-.025.022-.05.045.025.067.005.002.004.006-.003.007-.093.01-.03.025-.03.038.002.018.029.035.01.053-.033.032-.056.062-.06.094-.003.017.004.033-.013.05-.01.009-.004.019.016.026.056.023.088.042.032.066-.027.01-.016.023-.022.036-.005.012-.013.024-.016.036-.002.01.004.016.005.023v.044c.001.015.013.03.004.044-.036.06.026.12.014.179-.002.006.016.013.016.02a.05.05 0 0 1-.005.03c-.004.007-.02.015-.02.023a.3.3 0 0 0 .001.08c.01.052.028.104.032.155.003.048-.01.097-.013.145-.002.02.002.042.005.064l.012.083c.003.03-.02.057.023.085.01.005.006.013-.004.02-.04.021-.025.044-.007.067a.086.086 0 0 1 .018.054 4.3 4.3 0 0 0-.007.127l-.005.112.004.036c-.001.014-.009.026-.007.04l.012.078c.003.013.008.026.009.04 0 .013-.008.027-.006.04l.017.08c.012.065-.035.127.014.19v.006l.006.219c.002.042.002.083.012.124.013.056.02.11.003.165v.01l.017.109.034.154c.002.008.014.016.02.023.005.006.022.012.01.017-.052.018-.022.035-.012.054.014.023.06.046.004.07-.008.003.003.01.003.01.027.04.009.08.064.12.012.008.01.018.011.027.002.03.001.03.117.068a.029.029 0 0 1 .011.007c0 .013.044.023.085.034.024.007.034.015.044.022.007.007 0 .013.007.02.01.012.065.015.13.012l.108-.01c.107.009.184-.002.264-.009.054.006.056.019.133.019.144.002.277.007.412.012a.436.436 0 0 0 .163-.011l.102-.025c.124-.025.181-.054.19-.085.022-.104.037-.178.058-.27.003-.015.013-.03.02-.046.008-.016.021-.032.025-.047l.03-.183c.002-.01 0-.023.035-.032.06-.016.05-.03.01-.045-.029-.01-.029-.022.004-.033.024-.007.032-.017.035-.026.009-.024.012-.05.017-.074.008-.032.026-.064.02-.098-.024-.11.031-.22.001-.33-.018-.065.012-.132.014-.2.002-.047-.008-.093-.009-.14a31.8 31.8 0 0 0 .01-.121c.003-.051-.002-.1.006-.152.003-.021.006-.043-.002-.064a.208.208 0 0 1-.007-.098c.003-.03.02-.058.025-.087a.425.425 0 0 0 0-.091c-.001-.02-.01-.039-.01-.057 0-.03.022-.059-.025-.088-.016-.01.005-.022.01-.033.008-.016.023-.032.023-.047 0-.024-.013-.047-.011-.07l.024-.23c0-.011-.01-.022-.013-.034a.1.1 0 0 1-.007-.036l.02-.268c0-.045-.001-.07-.003-.12.004-.05.039-.1-.012-.149-.017-.015-.01-.031.016-.047.015-.008.02-.017.014-.027-.006-.008-.049-.015-.047-.025.004-.009.029-.019.01-.028-.026-.016-.041-.03.01-.046.024-.007.015-.018.009-.027-.033-.046-.034-.092-.001-.137.005-.007.008-.015-.006-.021-.049-.02-.01-.04-.017-.06-.004-.008.02-.015.018-.023a4.528 4.528 0 0 0-.013-.137l-.002-.088a1.173 1.173 0 0 0-.01-.06c0-.007.011-.014.001-.02-.043-.027-.027-.053-.015-.08.013-.032-.012-.062-.001-.092.01-.031-.025-.062-.012-.094.019-.046.003-.094-.001-.141-.002-.022-.017-.046-.022-.067-.007-.042-.018-.083-.016-.125 0-.01.01-.021-.024-.032-.013-.004-.018-.01-.016-.014.008-.022.012-.044.033-.067.014-.015.02-.028-.021-.042-.037-.014-.043-.027.006-.04.037-.01.025-.018.02-.029-.02-.043-.046-.087-.043-.132.002-.027-.053-.052-.006-.08l-.007-.006c-.047-.033-.064-.064-.024-.097.007-.004-.008-.01-.014-.016l-.009-.008c.018-.032.036-.007.055-.014.007-.002.016.02.023.02l.138-.013.087-.003c.013-.003.043-.006.06-.01.007 0 .014.013.021.002.026-.044.053-.028.08-.016.03.014.06-.011.091-.001.031.011.062-.025.093-.012.048.02.095.004.143 0 .022-.004.044-.018.066-.021.042-.009.084-.019.125-.018.011.001.022.01.032-.024.004-.013.01-.017.013-.016.023.009.046.012.068.034.015.014.029.018.042-.022.013-.037.026-.042.04.007.009.036.019.025.029.02.044-.02.088-.047.131-.043.027.002.054-.054.08-.008l.008-.006c.031-.046.064-.064.096-.023.006.006.011-.009.017-.016.005-.005.01-.027.015-.017.014.028.027-.01.04-.012.018-.002.034-.095.052-.057.003.006.008-.01.01-.025.005-.094.017-.088.029-.11a.648.648 0 0 0 .042-.13.3.3 0 0 0-.001-.124l-.008-.032c.012-.068.022-.014.032.004.01.016.016-.036.013-.092a.598.598 0 0 0-.03-.2c-.004-.007-.011.007-.012-.048.017-.082.031.013.047.032 0-.124 0-.124-.011-.295.01.027.018.054.026.067.003.005.007-.015.01-.032" fill="#000"/></g></svg>
