<svg width="48" height="48" xmlns="http://www.w3.org/2000/svg"><g fill-rule="nonzero" fill="none"><g fill="#FFE5E5"><path d="M20.376 4.8l-.588 8.1s-1.568.2-4.702 3.7c-2.645 3-2.743 5.9-2.743 5.9l-8.033-.4s.686-7.8 4.604-11.9c4.213-4.3 11.462-5.4 11.462-5.4z"/><path d="M16.849 6.9c-.098.3 0 .6-.196.9v1c0 .1-.098.2-.098.3 0 .1-.098.1 0 .2-.294 0-.196.2-.196.3V10.2h-.196s-.098 0 0 0h-.098c-.098 0-.098-.1-.098-.1l-.098-.1-.098.1-.098.1c-.587.4-1.077.9-1.469 1.3l-.392.4c-.294.3-.588.6-.881 1l-.588.9c-.196.2-.392.4-.49.7-.196.1-.196.3-.294.4 0 .1-.098.2-.196.3-.196.4-.49.8-.685 1.2l-.294.6c0 .1-.098.2-.098.3-.098.2-.098.4-.196.6 0 .1-.098.2-.098.3v-.1V18.4s-.098 0 0 .1 0 .1 0 .2v.2h-.098s-.098 0-.196-.1v.1c0 .1.098.1.098.2 0 0-.098 0-.098.1v-.1-.1c0-.1 0-.1 0 0 0 0 .098.1-.098.1h-.196c-.392 0-.294.1-.392.2 0 0-.098.2-.098 0-.098 0-.098 0-.196.1-.196 0-.391.1-.49.1h-.097c-.098 0-.294.1-.294.1v-.1-.1s-.098 0-.098-.1c0 0-.098-.1 0-.1v-.3c.098-.2 0-.4-.098-.5 0-.1-.098-.1.098-.2.098 0 .098-.1-.098-.1s-.098-.1-.098-.1h.196c.196-.1.196-.1-.098-.2h.196c0-.1.098-.1 0-.2 0 0-.098-.1 0-.1s.098 0 .098-.1l.098-.1V17c0-.1-.098-.3.196-.3l.098-.1c.097-.2.195-.4.293-.7.098-.1.098-.3.098-.4.098-.2.098-.3.196-.5 0-.1 0-.2.098-.3.098-.1.098-.2.098-.3v-.2c0-.1.098 0 .196 0 0-.1-.098-.2-.098-.3.098 0 .098.1.196.1h.098c0-.1 0-.2-.098-.3h-.098l.098.1c0-.2.098-.2.098-.4l.098.1v.1l.098.1h.098c0-.1.098-.1.098-.2.196 0 .098-.3.294-.3v-.1-.4s.098 0 .098-.1l.098-.1.196-.2c.196-.1.196-.2 0-.5-.098-.1-.098-.2 0-.2s.098-.1.098-.1 0-.1-.098-.2-.098-.1 0-.1c.196.1.391.1.587.3.098.1.098 0 .098-.2h-.196c0-.1.098-.1.196-.2h.196c.098 0 .098.1.196.2.294 0 .294-.3.49-.4v-.1c0-.1 0-.1-.098-.2l-.098-.1-.098-.1h.098s.098 0 0-.1c-.098-.2 0-.2 0-.1.098 0 .196.1.196 0 0 0 .098 0 0-.1s-.098-.1 0-.1h.098c.098.1.098.1.196 0 0-.1 0-.1.098-.1 0 0 .098 0 .196.1s.098.1.196.1c.098-.1.196-.1.293-.2 0 0 .098-.1 0-.1 0-.1 0-.2.098-.2s.196 0 .196.1c.196.1.196.1 0-.2v-.1h.196c.098 0 0 .1.098.2 0 0 .098 0 .098-.1s.098-.2.196-.2v.2c.098 0 .098-.1.196 0 .098 0 .098 0 .196.1 0-.1-.098-.3 0-.3.098.3.196.4.196.5.294.1.294.1.392-.1-.196-.2-.294-.2-.392-.1-.098-.1 0-.1 0-.2h.098c.098 0 .098-.1.196-.2.098.1 0 .1.098.2v.2h.098l.098.1s.098 0 .098-.1v-.2-.1V9h.098l.098.2.097.1h.196c-.196-.1-.196-.2-.196-.3.098-.1.196-.2.294-.2.098 0 .196-.1.294 0v.3c.098 0 .196.1.196 0V9h-.098c-.098-.2 0-.3.098-.3.294-.1.588-.1.98-.2s.881-.2 1.273-.2c.098 0 .196 0 .294-.2 0 0 .098 0 .098-.1.098 0 .196 0 .294-.1l.098-.1v-.1s0-.1-.098-.1h-.392c-.196 0-.392-.1-.588.1H18.122c0 .1-.098.1-.195.1-.196 0-.392 0-.588.1-.098 0-.196.1-.294 0 0-.1 0 .1-.098.1h-.098c-.098-.2-.196-.1-.294-.1-.392.1-.882.1-1.273.3-.196.1-.392.1-.686 0 .098-.2.098-.2.098-.3h-.098c-.098 0-.098.2-.294.1-.098 0-.196 0-.098.2-.196-.1-.392-.2-.49-.1-.098.1-.196.2-.294.1-.098.2-.098.2-.196.1-.097 0-.097 0-.097.1s-.098.1-.196.1c-.098-.1-.098 0-.098 0s0 .1-.098.1-.294 0-.294.1c-.098-.1-.196 0-.294.1-.098.1-.294.1-.392.1 0-.1.098-.1.196-.2.196-.1.49-.2.686-.3.196-.1.392-.3.685-.3h.098c.098-.1.196-.1.294-.1.098-.1.294-.1.392-.2l.098-.1h.392c-.098-.3-.098-.3.098-.4.098.3.196.3.294.3h.196c.098 0 .196 0 .294-.1.293 0 .49-.1.783-.1.098 0 .098 0 .196-.1 0 0 .098-.1 0-.2-.098 0-.294 0-.392-.3.098-.1.196 0 .294 0 .196.2.294.1.392 0 0 0 0-.1.098-.1.098-.1.196-.1.294-.1h.196v-.1-.1h.49l.098.1c.097-.1.097-.2.195-.2h.49c.392-.1.882-.2 1.274-.2h.098c.196-.1.392-.1.587-.1h.098s.098 0 0-.1c-.098 0-.293-.1-.391-.1-.196 0-.49-.1-.686-.2-.098 0-.196 0-.196.1-.098 0-.196 0-.294-.1-.098 0-.196.1-.294.1-.196 0-.392 0-.686.1-.293 0-.49 0-.783.1-.294 0-.588 0-.882.1-.392.1-.784.1-1.077.2-.196 0-.392.1-.686.1l-.098-.1c.098-.1.294-.2.392-.3h.098c.196.1.294 0 .392-.1.098-.1.195-.1.293-.1.098 0 .196 0 .294-.1.098.1.196.1.294.1h1.372c.098-.1.293-.1.49-.1.097 0 .293 0 .391-.1 0 0 0-.1.098-.1-.196 0-.294-.1-.392-.1-.294.1-.587.1-.98.1.295-.1.589-.1.98-.1.196 0 .294-.1.49-.1.098 0 .098 0 .196.1l.098.1c.294 0 .49 0 .686-.1.098 0 .098-.1.196-.1 0 .1 0 .1.098.1.196 0 .294-.1.391-.2-.195-.1-.391-.1-.685-.2-.098 0-.196-.1-.294-.1-.294 0-.588 0-.784-.1-.392.3-.783.3-1.077.3h-1.078c-.392 0-.882.1-1.273.2-.49.1-.98.2-1.372.3-.49.1-.98.3-1.47.5-.391.1-.783.2-1.077.4 0 0-.098 0-.196.1-.587.1-1.175.5-1.665.8-.098.1-.196.1-.196.2-.49.2-.98.5-1.371.9-.392.3-.686.7-1.078 1.1-.392.4-.784.9-1.175 1.4l-.588.9c-.196.3-.392.6-.49.9-.392.8-.784 1.7-1.077 2.5-.098.2-.196.4-.294.7a8.58 8.58 0 0 0-.49 1.7c-.196.8-.392 1.7-.49 2.5-.098.3-.098.6-.294 1v1.1c0 .5-.098 1-.196 1.6v.3c0 .1.098.1.098.1H2.743c.392 0 .881.1 1.273.1.49 0 .98.1 1.47.2v.1H4.114c-.392 0-.783-.1-1.175-.1l-.686-.1H1.665v-.2l.294-3v-.4c.098-1 .294-2.1.588-3.2.098-.6.294-1.2.49-1.8.098-.4.294-.8.49-1.2 0-.1.097-.2.097-.2v-.1s-.097 0-.195.1c0-.1.098-.3.098-.4h-.098c-.098.1-.294.3-.294.5 0 .1-.098.2-.196.3h-.196l-.098-.1c-.098-.1-.196-.1-.196 0s0 .1-.098.2-.098.3-.392.6v.3L1.665 17c-.196.6-.294 1.1-.392 1.7-.195 1-.293 1.9-.391 2.8-.098.9-.098 1.8-.294 2.7v.7c0 .1.098.1.098.1h.587c.784.1 1.666.1 2.45.2.195 0 .49 0 .685.1.196 0 .392.1.686.1h1.665c.686 0 1.274.1 1.96.1h3.036l.882-.6c.098-.1.294-.2.49-.4.097-.1.293-.2.391-.3.098 0 .098-.1.098-.2s.098-.1.098-.2l.588-.9.882-1.2.098-.3c0-.1 0-.2.098-.3V21v-.2-.1c0-.1 0-.2.098-.3 0-.1 0-.1.098-.2 0-.1.097-.2.097-.3 0-.1.098-.2.098-.3.098-.3.196-.5.294-.8.098-.3.294-.5.392-.8.098-.1.196-.2.196-.4.098-.1.196-.3.294-.4.098-.1.098-.1.098-.2.196-.2.294-.5.49-.7.196-.2.392-.5.587-.7.098-.2.392-.3.49-.5 0 0 .098 0 .098-.1.098 0 .196-.1.294-.2 0-.1.098-.1.098-.2s.098-.1.098-.2c.098-.1.098-.2.196-.3.098-.1.294-.2.392-.3l.196-.2s.098-.1.196-.1c.098-.1.196-.1.293-.2.098-.5.196-.9.294-1.3v-.6c0-.2-.098-.5 0-.7v-.6c0-.2-.196-.3-.196-.5h-.098-.097v.7h-.098s-.098 0-.098-.1c-.098-.2-.098-.3-.196-.5v-.2c0-.1.098-.1.098-.2v-.1c-.196-.1-.098-.1 0-.2-.294 0-.392 0-.392.1v.3s.098.1-.098.1v-.6c.098.1.098.1.294.1.196 0 .196 0 .098-.1v-.1c0-.1.098-.3.098-.4 0-.2.098-.5-.098-.7.098-.3-.098-.7-.196-1l-.098-.1c-.098 0-.098 0-.098.1 0 .2-.098.3-.098.4v.1c-.098-.1-.098-.3-.098-.4 0-.3-.098-.5-.098-.8v-.4c0-.1-.098-.2-.098-.4 0-.1 0-.1-.196-.1l-.196.3s0 .1.098.1v-.1c0-.1-.098-.1-.098-.2-.196-.1-.196-.2-.196-.2s0-.1-.098-.1V5c0 .1 0 .2-.098.3 0 .1 0 .2-.294.3-.098 0-.098.1-.195.2-.098.2-.196.4-.196.5 0 .3-.098.6-.098.8v-.5c0-.2-.196-.3-.098-.5-.098-.1-.098-.1-.098-.2s0-.3.098-.4c0-.1 0-.1-.098-.2l-.098.1c-.098.2-.098.4-.098.6 0 .1 0 .2-.098.2 0-.2 0-.2-.098-.3v.3c0 .1 0 .2.196.3.098 0 0 .1-.098.1-.196.1-.098.2-.294.3zm-14.302 18H2.253h-.098.392zm-.882-6.4c0 .1 0 .2-.098.3l.098-.3zM11.951 11c-.098-.1-.098-.2-.098-.3h-.098l.098.1c.098.1.098.1.098.2zm-.588-.2l.294.3h-.098c-.098 0-.098-.1-.196-.1h-.098s.098 0 .098.1c.098-.2.098-.2 0-.3zm-9.796 9.4s-.098 0 0 0c-.098.1-.098.1-.196.1-.098-.1-.098-.2-.098-.3 0-.1.098-.1.196-.2v-.3c.196.1.196.1 0 .3 0 .1 0 .2.098.4zm-.294.5v-.2.2c.098.1.098.1.098.2 0 .3-.098.7-.195 1.1h-.098c0-.4 0-.8.195-1.3 0 .1 0 0 0 0zm9.6-11.3s-.097 0 0 0c-.293.2-.49.4-.685.5-.196.1-.392.3-.588.4-.098.1-.294.2-.392.3-.098-.1 0-.1 0-.2.196-.2.392-.3.588-.4.196-.2.49-.3.686-.5.294-.1.587-.3.881-.5h.098c-.098.2-.392.3-.588.4zm9.209 3.9c-.098 0-.196.1-.196.1s-.098 0-.098.1c-.196.2-.392.3-.588.4-.098 0-.196.1-.294.2.098-.3.588-.6.882-.8.098-.1.294-.1.392-.2.098-.1.098-.2.098-.3v.3c0 .2-.098.2-.196.2zM.98 24.7c0 .1.098.1.098.1s-.098 0-.098.1H.882.784v-.4c0-.2 0-.4.098-.6v-.3s.098-.1.098-.2h.098c0 .2 0 .5-.098.7.098.2.098.4 0 .6zm19.2-14s0-.1 0 0c0-.1 0-.1.098-.1 0 0 .098 0 .098.1V11.7h-.098l-.098-1zM5.976 24.4h.391c.49 0 .882 0 1.274.1l-1.861.1v-.1c.098-.1.196-.1.196-.1zm-3.82-7.8v.4c0 .1 0 .2-.197.2.098-.3.098-.7.392-1-.098.1-.196.3-.196.4zm18.122-3.8v-.4c0-.1 0-.2.098-.2.097.2 0 .4-.098.6zM3.722 25c.196 0 .294.1.588 0v.1l-.098.1h-.49c-.098 0-.098 0-.195-.1.097-.1.195-.1.195-.1zm-.881 0c0-.1 0-.1.098-.1.196-.1.392-.1.49 0-.294.1-.392.2-.588.1zm-1.763-2.3v-.3c.098.1.098.1 0 .6v-.3zM12.833 9.9s0 .1 0 0c0 .2 0 .2-.196.1.098-.1.098-.1.196-.1zm2.449-2.7c-.098 0-.098.1-.196 0 0-.2 0-.2.196 0zm1.86-1.7l-.195.1v-.1h.196zM4.703 25.1c-.098 0-.196 0-.196.1 0-.2.098-.2.196-.1 0-.1 0-.1 0 0zm5.682-13c-.098 0-.098-.1 0 0-.098-.1-.098-.1 0-.1v.1zm9.208-6.7l-.098.1.098-.1zM4.996 25.1l.098-.1s.098 0 .098.1c0 0-.098.1-.196 0 0 .1 0 0 0 0zM9.6 13.2c-.098 0-.098 0 0 0-.098 0-.098 0 0 0-.098 0-.098 0 0 0-.098 0-.098 0 0 0zm-1.273 12v.1-.1zm1.763-12.8s.098 0 0 0c.098 0 .098 0 0 0 .098 0 0 0 0 0zm5.78-5.5s-.099 0 0 0c-.099 0-.099 0 0 0zm-6.368 5.9s.098 0 0 0zm-7.739 5.1s-.098 0 0 0c-.098 0-.098 0 0 0-.098 0-.098 0 0 0zm4.996 7.3c.098 0 .098 0 0 0 .098 0 0 0 0 0z"/><path d="M17.633 17.2c-.098-.2 0-.3 0-.4.196-.3.391-.6.685-.9.196-.3.49-.6.686-.8.294-.1.294-.5.49-.7.196-.2.294-.3.49-.4h.098c.098 0 .098.1.098.1l-.098.1c-.196.2-.49.5-.686.9-.294.4-.392.4-.588.6-.196.2-.392.5-.588.7 0 .3-.196.6-.587.8.098 0 .098 0 0 0zM21.061 10.5v.2c0 .3.098.6.098.9v.6c-.098.3-.098.6-.196.9l-.098.4-.098.2-.098.1c-.098 0-.196.1-.293.2h-.098l-.098-.1v-.1c.098-.1.196-.1.196-.2l.097-.1v-.2c.098-.2.098-.5.196-.7.098-.2.098-.4.098-.5v-.7-.1c.098-.2 0-.3 0-.5.196-.1.196-.2.294-.3zM.098 23.3c.098-.5.196-1.1.196-1.6 0-.6.098-1.2.196-1.8.098-.4.098-.7.196-1.1 0 0 0-.1.098-.1h.098v.1c-.196.5-.098 1-.196 1.5 0 .1 0 .3-.098.4-.098.5-.196 1.1-.098 1.6v.2c-.098.4-.098.6-.098.9v.4s0 .1-.098.1H.196l-.098-.1v-.5zM3.233 13.2c-.098.1-.294.3-.294.5s-.196.3-.196.5h-.098s-.098 0-.098-.1.098-.3.098-.4c0-.1.098-.1.098-.2.098-.3.196-.5.294-.8.098-.3.196-.5.392-.8h.098c.097 0 .097.1.097.1v.1c0 .1-.097.1-.097.2l-.294.9zM1.273 15.9c0-.3.098-.5.294-.7 0 .1.098.1.098.1 0 .4-.098.8-.294 1.2-.098.3-.098.6-.195.8 0 .2 0 .3-.196.5l-.098.1-.098-.1c.098-.4.196-.9.392-1.3.097-.3.195-.4.097-.6zM3.722 10.6c0 .2-.098.4-.293.6-.196.3-.49.7-.686 1h-.098c.196-.5.49-1 .686-1.5.196-.1.293-.1.391-.1zM6.073 7.7c-.097.1-.195.1-.293.2v-.1l.587-.6c.294-.2.588-.4.882-.7h.098c-.098.2-.098.2-.294.3-.098.1-.196.1-.196.2-.196.2-.392.3-.588.5-.098 0-.196.1-.196.2zM9.796 4.9s0-.1 0 0c.294-.2.49-.4.784-.4.098 0 .098-.1.196-.1.195-.1.293-.2.587-.1-.098.2-.196.3-.392.3-.098 0-.293 0-.391.1-.196.1-.49.2-.784.2zM4.8 9.2c-.098 0-.098 0-.098-.1V9c.098-.2.196-.5.49-.6l.294-.3s.098 0 .098-.1c0 .2-.098.4-.196.5-.196.2-.392.3-.49.6l-.098.1zM13.714 10.1c0 .2 0 .2-.098.2-.196 0-.294.1-.392.2h-.097l-.098-.1v-.1c.098-.1.195-.2.391-.2.196.1.196 0 .294 0zM2.939 25.9c-.686 0-1.176-.1-1.763-.2v-.1h.195c.588.1 1.078.1 1.666.2-.098 0-.098 0-.098.1zM10.776 11.9v-.3c0-.1.097-.1.195 0l.294.3v.1s-.098 0-.098-.1c-.098-.1-.196-.2-.196-.1s-.098.1-.195.1zM17.927 4.3l.097-.1c.196 0 .49.1.686.1 0 0 0 .1.098.1v.1c-.294-.1-.588 0-.881-.2zM.196 25.5s-.098 0 0 0c-.098 0-.196.1-.196 0v-1.3s0-.1.098-.1h.098v.4c0 .2 0 .4-.098.5v.4c0 .1.098 0 .098.1zM2.84 12.3c0 .3 0 .5-.293.6h-.098s-.098-.1 0-.1c0-.1.098-.2.098-.3 0 0 .098-.1.294-.2zM8.522 25.9h.588s.098 0 .098.1 0 .1-.098.1H8.033c-.098 0-.196-.1-.196-.1v-.1h.685zM8.424 5.9c-.097 0-.097 0 0 0-.195-.1-.195-.1-.195-.2l.587-.3h.196c-.196.2-.294.2-.392.3-.098 0-.196.1-.196.2zM17.927 8.7c-.098.1-.196.1-.392.2h-.098v-.1c.098-.1.196-.2.392-.1 0-.1.098 0 .098 0zM15.87 20.3c0-.2.097-.3.097-.4h.098s.098 0 .098.1v.1c0 .1-.098.2-.294.2.098 0 .098 0 0 0zM20.18 9.2c.098-.1 0-.2 0-.3h.098c0 .2 0 .3.098.5h-.098-.098v-.2zM13.518 24.6c-.098.2-.196.4-.391.5h-.098V25c.195-.3.293-.3.49-.4zM3.82 10.5l-.098-.1c.098-.2.196-.4.294-.5.098.2.098.3-.196.6zM7.249 7.4c.098-.3.294-.4.49-.4v.1c-.098.1-.196.2-.49.3zM5.388 25.8c.098 0 .098 0 .196.1v.1c-.294.1-.49.1-.588 0l.098-.1c.098 0 .196 0 .294-.1zM10.873 5.1c.196-.1.294-.1.49-.2h.098V5c-.196.1-.294.2-.588.1zM3.918 11.3c.098-.1.196-.3.294-.4h.098v.1c0 .1-.098.2-.392.3zM7.935 6.9c0-.2.098-.3.294-.3h.098v.1c-.196.1-.196.2-.392.2zM17.927 8.8v-.2c0-.1.097-.2.195-.1.098 0 0 .2 0 .3-.098.1-.098.1-.195 0z"/><path d="M12.93 10.7c0-.1 0-.1 0 0-.097-.1-.097-.2-.097-.2s0-.1.098-.1h.098v.1c0 .1 0 .1-.098.2zM2.253 13.4c.098 0 .196.1.098.1 0 .1-.098.1-.196.2-.098 0-.098-.1-.098-.1l.196-.2zM10.384 25.9c-.098.2-.294.1-.49.1-.098 0-.196-.1-.196-.1-.098 0 .098-.1.196-.1.196.1.294.1.49.1zM11.755 11.7v.1s0 .1-.098 0-.098-.2-.098-.2.098.1.196.1zM17.633 4.3c.098-.1.196-.2.294-.1 0 .1 0 .2-.098.2s-.098 0-.196-.1zM7.347 26c-.294.1-.588.1-.882 0h.784c0-.1 0 0 .098 0zM4.31 9.7c0-.1 0-.3.196-.2.098.1-.098.1-.196.2zM18.514 6.7c-.098 0-.196 0-.196.1 0 0 0-.1-.098-.1v-.1c.196 0 .196 0 .294.1zM10.188 12.8c.098 0 .098.1.196.1l.098.1v.1s-.098 0-.098-.1c-.196-.1-.196-.2-.196-.2zM7.543 6.2h.196v.2h-.196v-.2zM17.045 18.3c-.098 0-.098 0 0 0h-.098c0-.1 0-.1.098-.1v.1c0-.1 0 0 0 0zM13.91 10.2c-.098 0-.098-.1-.098-.1V10h.098v.2c0-.1 0-.1 0 0zM12.833 25.2l-.294.3c.098-.2.098-.2.294-.3zM9.698 18.4s.098 0 0 0c.098.1.098.1 0 0zM12.245 10.9c0-.1 0-.2.098-.2h.098v.1c0 .1-.098.1-.196.1zM12.245 3.8h.392c-.098.2-.196.2-.392 0zM15.086 22.6l-.294.4c0-.2.098-.3.294-.4zM13.812 24.3l-.098.1v-.1h.098zM10.678 12.1l-.098-.1v-.1h.098c.098.2.098.2 0 .2.098 0 0 0 0 0zM4.604 10.1c.098 0 .196-.1.294-.1.098.1 0 .1 0 .2l-.098.1-.196-.2zM10.873 26c.098 0 .098-.1.196-.1s.098 0 .196.1c.098 0 0 .1-.196.1-.098 0-.196-.1-.196-.1zM4.408 10.5c0 .1.098.1 0 .1H4.31s-.098-.1 0-.1c0 .1.098 0 .098 0zM9.404 5H9.6v.1c-.098.1-.196 0-.196-.1zM9.306 5.9c0 .1 0 .1 0 0 0 .1-.098.2-.098.1 0 0 0-.1.098-.1-.098 0 0 0 0 0zM8.718 6.4l-.098.1h-.098c.098-.1.098-.1.196-.1-.098-.1 0-.1 0 0zM5.388 9.3c0-.1 0-.2.196-.2-.098.1-.098.2-.196.2zM10.776 5.3h-.098v-.1-.1h.098v.2c.097 0 .097 0 0 0zM5.78 8.8v.1h-.098v-.1c0-.1.098 0 .098 0zM11.755 26l.098-.1h.098c0 .1-.098.1-.196.1.098.1 0 0 0 0zM4.506 26h-.49c.294-.1.294-.1.49 0zM17.829 6.7c.098 0 .098 0 .195-.1h.098c0 .1 0 .1-.098.1-.097.1-.195.1-.195 0zM15.086 7.8c.098 0 .098-.1.196-.1 0 .2 0 .2-.196.1zM.588 25.5h.196v.1c-.098 0-.196 0-.196-.1-.098.1 0 .1 0 0zM6.563 8c-.098-.1 0-.1 0-.2h.098c0 .1 0 .2-.098.2zM16.751 4.5c0-.1-.098-.1 0 0-.098-.1-.098-.2-.098-.2h.098v.2zM18.612 4.7h-.196-.098.294c-.098 0-.098 0 0 0zM17.73 6.6l.099.1-.294.1v-.1zM17.143 9s-.098 0 0 0c-.098 0-.098-.1 0 0 0-.1 0-.1 0 0zM17.437 7c.098.1.098.1 0 .1V7zM12.245 3.9c-.098.1-.098.1-.294.1.196-.1.196-.1.294-.1zM15.38 22.1l.098-.1v.1c0 .1-.098.1-.098 0zM14.498 23.3c0 .1 0 .1 0 0v.1c-.098 0-.098 0 0-.1zM17.437 4.7h.098l.098.1h-.098s-.098 0-.098-.1zM9.894 5.7c0 .1-.098.1-.098.1v-.1h.098zM12.147 25.7c.098-.1.098-.1 0 0 .098-.1.098 0 .098 0 0-.1 0 0-.098 0 .098 0 .098 0 0 0zM5.094 9.8h-.098v-.1h.098v.1zM6.367 8.2s0 .1 0 0c0 .1 0 .1 0 0zM15.87 20.6s.097 0 0 0c.097.1.097.1 0 .1v-.1zM15.673 21.6s-.097-.1 0 0c-.097-.1 0-.1 0-.1v.1zM9.502 5.8c.098 0 .098.1 0 0 .098.1 0 .1 0 0zM17.24 17.8s0-.1 0 0c0-.1 0 0 0 0zM11.951 11.6c0 .1 0 0 0 0-.098 0-.098 0 0 0-.098 0 0 0 0 0zM16.751 9.2s0-.1-.098-.1l.098.1c.098-.1.098 0 0 0zM14.204 10.5c-.098 0-.098 0 0 0-.098 0-.098 0 0 0-.098 0-.098-.1 0 0-.098 0-.098 0 0 0zM9.306 26c0-.1.098 0 0 0zM19.102 6.8c-.098 0-.098 0-.098-.1l.098.1c0-.1 0-.1 0 0zM16.653 7c0 .1 0 .1 0 0 0 .1 0 .1 0 0zM16.555 18.8s0 .1 0 0c0 .1 0 .1 0 0zM16.751 18.4s.098 0 0 0c.098 0 .098 0 0 0 .098 0 0 0 0 0zM11.657 4.9c0 .1 0 .1 0 0zM10.188 5.6c0-.1 0-.1 0 0 0-.1 0 0 0 0zM9.208 5.3v-.1zM19.102 6.8c.098 0 .098 0 0 0 .098 0 .098 0 0 0 .098 0 0 0 0 0zM14.106 23.8c.098 0 .098 0 0 0 .098 0 0 0 0 0zM15.086 7.8c-.098 0-.098 0 0 0-.098 0-.098 0 0 0zM16.457 9.1c0 .1 0 .1 0 0 0 .1-.098.1 0 0-.098.1-.098.1 0 0-.098 0-.098 0 0 0zM13.812 4.8v-.1zM16.065 9.3c0 .1 0 .1 0 0 0 .1 0 .1 0 0zM14.204 10.2c0 .1 0 .1 0 0 0 .1 0 .1 0 0 0 .1 0 0 0 0zM12.147 4.8v-.1zM10.482 5.4s0 .1 0 0c0 .1 0 .1 0 0 0 .1 0 0 0 0zM10.776 12.5c0 .1 0 .1 0 0 0 .1 0 0 0 0zM16.36 19.3c.097.1.097.1 0 0zM3.722 10.7v-.1h.098c.098 0 0 0-.098.1zM7.151 7.5v.1zM9.6 19.1c0-.1 0-.1 0 0zM12.245 3.9v-.1.1zM16.261 19.6v.1zM16.36 19.4l-.099-.1z"/></g><g fill="#FFE5E5"><path d="M25.567 41.7l1.764-6.9s1.469.1 4.702-2.4c2.743-2.2 3.33-4.7 3.33-4.7l6.857 1.7s-1.86 6.6-5.877 9.5c-4.31 3.1-10.776 2.8-10.776 2.8z"/><path d="M29.29 40.6s.098 0 0 0c.196-.3.098-.5.294-.7l.294-.9c0-.1.098-.2.195-.2.098 0 .098-.1.098-.2.294.1.196-.1.294-.2.098-.3 0-.2.098-.2 0 0-.098-.1.098 0h.196s.098 0 0 0l.098.1.098.1.294-.4c.098-.1.294-.2.392-.2.294-.2.49-.3.783-.5.098-.1.294-.2.392-.3.294-.2.686-.5.98-.7.196-.2.392-.5.588-.7.196-.2.49-.3.587-.6h.098c.196-.1.196-.2.294-.3l.196-.2c.294-.3.49-.6.784-1 .098-.2.196-.3.294-.5.098-.1.098-.2.196-.3.098-.2.098-.3.098-.3v-.2-.2s.098 0 0-.1v-.2-.1-.1h.098s.097 0 .097.2c0 0 0 .1 0 0v-.1c0-.1 0-.1-.097-.2h.195c-.195 0-.391-.1-.587-.1-.098 0-.196 0-.294-.1-.098 0 0 0 0 0v.1c.098.2.294.2.392.1h.881s-.098 0-.098-.1c-.098-.1-.098-.2-.392-.1h-.195.098c.195 0 .391-.1.49 0h.097c.098 0 .294-.1.294 0v.2s.098 0 .098.1c0 0 .098.1 0 .1-.098.1-.098.1-.098.2-.098.2-.098.3 0 .5 0 0 .098.1-.098.1-.098 0-.098 0 .098.1.196 0 .098.1.098.1h-.196c-.196.1-.196.1 0 .2h-.196c0 .1-.098.1 0 .2 0 0 .098.1 0 .1-.196 0-.196.1-.196.2s.098.1-.098.1c-.098.2-.196.3-.391.5-.098.1-.098.2-.196.3-.098.1-.098.3-.196.4 0 .1 0 .2-.098.2-.098.1-.098.1-.098.2v.1c0 .1-.098 0-.196-.1 0 .1.098.2.098.3-.098 0-.098-.1-.196-.1h-.098c0 .1-.098.1.098.3l.098.1-.098-.1c0 .1-.098.2-.098.3 0-.1-.098-.1-.098-.2v-.1-.1h-.098l-.098.1c-.196 0-.098.2-.294.2v.5h-.098s-.098 0-.098.1c-.098.1-.098.1-.196.1-.196 0-.196.1 0 .5.098.1.098.2 0 .2s-.098 0-.098.1v.2c.098.1 0 .1 0 .1-.195-.2-.293-.2-.49-.4-.097-.1-.097 0-.097.1l.098.1c0 .1-.098.1-.196.1 0 0-.098 0-.098-.1 0 0-.098-.1-.098-.2-.196 0-.294.2-.49.2 0 0 0 .1.098.3l.098.1.098.2h-.098s-.098 0 0 0c.098.2 0 .2-.098.1s-.098-.1-.196-.1c0 0-.098 0 0 .1s0 .1 0 .1h-.098c-.098-.1-.098-.1-.098 0 0 0 0 .1-.098.1 0 0-.098 0-.098-.1s-.098-.2-.098-.2c-.098 0-.196.1-.294.1l-.098.1c0 .1 0 .2-.098.2s-.098-.1-.195-.2c-.098-.1-.098-.1-.098.2v.1h-.196c-.098 0 0-.1-.098-.2 0 0-.098 0-.098.1s-.098.1-.196.1v-.2h-.196c-.098 0-.098-.1-.196-.1 0 .1 0 .3-.098.3 0-.1-.098-.2-.098-.4-.294-.2-.294-.2-.392 0 .098.2.196.2.294.2.098.1 0 .1 0 .2h-.098c-.098 0-.098.1-.196.1-.098-.1 0-.2 0-.2v-.2h-.098c0-.1 0-.1-.098-.1h-.098s-.098.1 0 .2v.1c0 .1 0 .2-.098.3 0 0-.098 0-.098.1v-.2-.1l-.098-.1c0 .1.098.3 0 .3-.097.1-.195.1-.293.1-.098 0-.196 0-.294-.1v-.3c-.098-.1-.098-.1-.196 0v.1h.098c0 .2 0 .3-.098.3h-2.057c-.098 0-.196-.1-.294.2H26.645l-.098.1v.2c.098 0 .196.1.294.1.196 0 .392.2.49 0h.098c.098.1.098.1.195 0h.098c.196 0 .392 0 .49.1.098 0 .196-.1.294 0 .098.1.196-.1.294 0 0 0 .098 0 .098.1.098.2.098.2.196.2.392 0 .784.1 1.175 0 .196 0 .392 0 .588.1 0 .1 0 .1-.098.2h.098c.098 0 .098-.1.294 0 .098 0 .196 0 .196-.2.098.1.294.2.392.2.098-.1.196-.1.294-.1.098-.1.098-.1.196-.1h.098c0-.1.097-.1.195 0s.098.1.098 0c0 0 0-.1.098-.1s.196.1.294 0c.098.1.196 0 .196 0 .098-.1.196 0 .392 0 0 .1-.098.1-.196.1-.196.1-.49.1-.686.1-.196 0-.391.2-.685.1H31.739c-.098 0-.294 0-.392.1l-.098.1-.392-.1c0 .3 0 .3-.098.3-.098-.3-.098-.3-.196-.3H29.29s-.098 0 0 .2c.098 0 .294.1.294.4-.098.1-.098 0-.196-.1-.098-.2-.196-.2-.294-.1 0 0 0 .1-.098.1s-.196.1-.294 0c-.098 0-.098-.1-.196-.1v.2c-.098 0-.294 0-.392-.1l-.098-.1c-.098.1-.098.1-.196.1-.196-.1-.293-.1-.49-.1h-1.077-.098c-.196.1-.294 0-.49 0h-.098v.1c.098.1.196.1.392.2l.588.3c.098 0 .098 0 .196-.1.098 0 .196.1.196.1h.196c.196 0 .392.1.587.1.196 0 .49.1.686.1.294 0 .49.1.784.1h1.567v.1c-.098.1-.196.1-.392.2h-.098c-.098-.1-.293 0-.391 0-.098 0-.196 0-.294.1h-.294c-.098-.1-.196-.2-.294-.2-.098 0-.196 0-.294-.1-.294 0-.49-.1-.784-.2h-.098c-.098.1-.293 0-.49 0h-.293l-.098.1c.098.1.196.1.294.2.294 0 .587 0 .881.1-.294 0-.587 0-.881-.1h-.392s-.098 0-.098-.2c0 0 0-.1-.098-.1a.613.613 0 0 0-.588 0h-.196v-.2c-.098 0-.294.1-.392.1.196.1.392.2.49.3.098 0 .196.1.196.1.196.1.49.1.686.2.294.1.588.2.881.2h.196c.294.1.49.1.784.2.392.1.784.1 1.078.1h1.273c.49 0 .882-.1 1.371-.1.392 0 .686 0 .98-.1h.196c.588 0 1.078-.2 1.567-.4.098 0 .098-.1.196-.1.49-.2.882-.3 1.372-.6.392-.2.783-.5 1.175-.7.49-.3.882-.6 1.274-1 .49-.5.881-1 1.273-1.4.294-.3.49-.6.686-1 .196-.4.392-.6.686-1.2.098-.3.293-.5.49-.8.293-.4.49-.9.685-1.4.294-.7.49-1.4.784-2.1.098-.3.196-.5.392-.8v-.1c.098-.3.098-.6.196-.9.097-.4.293-.9.391-1.3l.294-.3c0-.1 0-.1-.098-.1h-.098c-.196 0-.392-.1-.587-.1-.392-.1-.784-.2-1.078-.3-.392-.1-.882-.3-1.273-.4V27h.195c.196 0 .294.1.392.1.196 0 .392.1.588.1.392.1.686.2.98.3l.587.2.294.1h.196v.1c-.196.8-.49 1.7-.686 2.5v.3c-.195.9-.587 1.7-.881 2.6-.196.5-.392 1-.686 1.5-.098.2-.294.5-.392.7-.098.2-.294.5-.392.6-.098.1-.098.1-.098.2v.1h.196c-.098.1-.098.2-.196.3h.098c.196-.1.294-.2.392-.4 0-.1.196-.2.294-.3h.196s0 .1.098.1c.098.1.098.1.196 0s.098-.1.098-.2c.196-.4.294-.7.686-1.1.098-.1.098-.2.098-.3.098-.3.196-.7.391-1 .196-.5.392-.9.588-1.4.294-.8.49-1.6.686-2.3.196-.8.392-1.5.588-2.3 0-.2.098-.4.098-.6 0-.1 0-.1-.098-.1l-.196-.1c-.098 0-.196-.1-.294-.1l-2.057-.6c-.392-.1-.784-.2-1.176-.4l-.392.4c-.098 0-.294-.1-.49-.1-.293-.1-.685-.1-.979-.2l-1.176-.3-.49-.1h-.195c-.294 0-.686 0-.98-.1h-.196c-.49-.1-.881-.2-1.371-.3-.392.2-.686.3-1.078.5a.74.74 0 0 1-.49.2c-.097.1-.293.1-.391.2-.098 0-.098.1-.098.1l-.098.1v.2l-.588.6c-.392.3-.784.7-1.176 1.1l-.098.1v.1c0 .2-.097.3-.097.4-.098.1-.098.3-.196.3 0 0 0 .1-.098.2 0 .1-.098.2-.098.2 0 .1-.098.1-.098.2-.098.2-.196.4-.392.6-.098.2-.294.4-.49.6l-.294.3-.294.3-.196.2c-.195.2-.293.4-.49.5-.195.2-.391.4-.587.5-.196.1-.392.2-.49.4h-.098l-.294.3c0 .1-.098.1-.098.1l-.098.1c-.098.1-.098.2-.196.2-.098.1-.293.1-.391.2-.098 0-.098.1-.098.1-.098 0-.098.1-.196.1s-.196 0-.294.1c-.196.4-.294.8-.392 1.1 0 0 0 .1-.098.1 0 .1 0 .3-.098.4 0 .2 0 .4-.098.6-.098.2-.098.4-.098.5 0 .2.098.3.098.5h.196v-.1c0-.2 0-.3.098-.5h.098s.098 0 .098.1c0 .2 0 .3.098.4v.1c0 .1-.098.1-.098.1v.1c.196.1 0 .1-.098.1.294.1.294.1.392 0v-.3s0-.1.098-.1c0 .2 0 .3-.098.5 0 .1-.098.1-.196.1-.196 0-.196 0-.098.1v.1c0 .1-.196.2-.196.3 0 .2-.196.4 0 .7-.098.3 0 .6 0 .9l.098.1h.098c.098-.1.098-.2.196-.4v-.1c.098.1.098.3.098.4 0 .2.098.5 0 .7v.6s0 .1.098.2l.196-.2V41v.1c0 .1 0 .1.098.2v.1s-.098.1.098.1l.098-.1c0-.1.097-.2.097-.3 0-.1.098-.2.294-.2.098 0 .098-.1.196-.1.098-.1.196-.3.294-.4.098-.2.196-.5.294-.7v.4c0 .1.098.3 0 .4.098.1.098.1.098.2-.098.1-.098.2-.098.4 0 0 0 .1.098.2h.098c.098-.1.196-.3.196-.5 0-.1 0-.1.196-.2 0 .2 0 .2.098.3 0-.1 0-.2.098-.2 0-.1 0-.2-.098-.3-.098 0 0-.1.098-.1-.196.5-.294.4-.196.3zm15.38-13.5H44.962 44.67zm-.197 5.6c0-.1 0-.1.098-.2l-.098.2zm-10.775 4.7c.098.1.098.2.098.3l.098.1v-.1c-.196-.2-.196-.2-.196-.3zm.49.4c-.098-.2-.196-.3-.196-.4 0 .1.098.1.098.2h.098l-.098-.1c0 .2.098.2.098.3zm10.58-6.5s.097 0 0 0c.097-.1.195-.1.195-.1.098.1.098.2 0 .3l-.196.2v.3c-.196-.1-.196-.1 0-.3v-.4zm.391-.4l-.098.1c0-.1 0-.2.098-.1-.098-.1-.098-.1-.098-.2 0-.3.196-.6.294-1h.098c0 .4-.098.7-.294 1.2 0-.1 0-.1 0 0zm-10.677 8.3s.098 0 0 0c.294-.2.391-.2.685-.3.196-.1.392-.1.588-.2.098-.1.294-.1.392-.2.098.1 0 .1 0 .1l-.588.3c-.196.1-.49.2-.686.3-.293.1-.587.2-.783.3h-.098c.098-.2.294-.2.49-.3zm-7.347-4.9c.098 0 .196 0 .294-.1l.587-.3c.098 0 .196-.1.294-.1-.196.2-.49.4-.783.5-.196.1-.392.1-.392 0-.196.1-.196.1-.196.2l-.098.1c0-.1 0-.2.098-.2 0 0 .098 0 .196-.1zm18.808-6.8c0-.1 0-.1-.098-.1h.098s.098 0 .098.1V27.8c-.098.2-.098.3-.196.5v.3s-.098.1-.196.1h-.098c.098-.2.098-.4.196-.6.098-.2.098-.4.196-.6zm-19.298 9.2c0 .1 0 .1-.098.1l-.098-.1v-.2c.098-.2.098-.4.098-.6v-.1h.098v.9zm14.89-9.7H41.24c-.49-.1-.98-.2-1.47-.4l1.078.2c.294.1.784.1.98.2v.1c-.196-.1-.196-.1-.294-.1zm2.253 7.3c0-.1 0-.2.098-.3 0-.1.098-.2.294-.2-.196.3-.196.6-.49.8 0-.1 0-.2.098-.3zm-16.947.5v.3c0 .1 0 .2-.098.2-.098-.2 0-.3.098-.5zm16.75-8c-.097-.1-.293-.1-.489-.1v-.1l.098-.1h.392c.098 0 .098.1.196.1-.098.2-.098.2-.196.2zm.785.1c0 .1 0 .1 0 0-.294.1-.392.1-.49 0 .294-.1.392-.1.49 0zm1.175 2.3c0 .1 0 .1-.098.2-.098-.1-.098-.1.098-.5v.3zm-12.735 9.1s0-.1 0 0c0-.2.098-.2.196-.1-.098.1-.098.1-.196.1zm-2.449 2.1c.098 0 .098-.1.196 0-.098.2-.098.2-.196 0zm-1.86 1.3h.195v.1l-.196-.1zm14.4-15.1h.195-.196c-.098 0-.098 0 0 0-.098 0-.098 0 0 0zm-7.74 10.3c0-.1.098 0 0 0 .098 0 .098 0 0 0l.098.1c0-.1-.098-.1-.098-.1zm-8.816 4.4h.098-.098zm16.261-14.8s-.098.1-.098 0v-.1c-.098 0 0 0 .098.1 0-.1 0-.1 0 0zM36.05 36s.098 0 0 0c.098.1.098.1 0 0 .098.1.098.1 0 0 0 .1 0 0 0 0zm3.135-10.3s0-.1 0 0v-.1.1zm-3.723 11s0-.1 0 0c0-.1 0-.1 0 0 0-.1 0 0 0 0zm-5.681 3.8s.098.1 0 0c.098.1 0 .1 0 0 0 .1 0 .1 0 0 0 .1 0 0 0 0zm-1.176-1.6c-.098 0-.098 0 0 0zm-.588-.1s0 .1 0 0zm-1.175.7c0 .1 0 .1 0 0 0 .1 0 0 0 0zm-.098 1.8s0 .1 0 0c0 .1-.098.1 0 0-.098 0 0 0 0 0zm2.155.3c0 .1 0 .1 0 0 0 .1 0 .1 0 0 0 .1 0 .1 0 0 0 .1 0 0 0 0zM40.751 26c.098 0 .098 0 0 0 .098 0 0 0 0 0z"/><path d="M29.682 31.2c0 .2 0 .3-.098.4-.196.2-.49.4-.686.7-.098.1-.196.2-.392.3-.098 0-.098.1-.196.1-.098.1-.196.2-.196.3-.196.2-.392.3-.49.5-.195.1-.293.2-.49.3h-.097c-.098 0-.098-.1 0-.1l.098-.1c.196-.2.49-.4.685-.6.098-.1.196-.3.294-.4.098-.2.196-.2.294-.3.196-.2.392-.3.588-.5.196-.3.392-.5.686-.6zM25.763 36.5v-.1c0-.3 0-.6.098-.8v-.3c.098-.3.196-.6.392-.9l.098-.3.098-.1.098-.1c.098 0 .294 0 .294-.1h.098v.2c-.098.1-.196.1-.196.1s-.098 0-.098.1c0 0 0 .1-.098.1l-.294.6-.294.6c0 .1 0 .3-.098.4v.1c-.098.1-.098.3-.098.5.098-.1.098 0 0 0zM46.727 28.8c-.098.4-.294.9-.392 1.3-.098.5-.196 1-.392 1.5l-.294.9-.098.1h-.098v-.1c.294-.4.196-.8.392-1.2 0-.1.098-.2.098-.3.196-.4.294-.9.294-1.3v-.2c.196-.3.196-.5.196-.8 0-.1 0-.2.098-.3l.098-.1h.098v.5zM42.024 37.5c.196-.1.294-.2.392-.4.098-.2.196-.3.294-.4h.098s.098.1 0 .1c-.098.1-.098.2-.196.4 0 .1-.098.1-.098.2-.098.2-.294.4-.392.6-.195.2-.293.4-.391.7h-.098c-.098 0-.098-.1-.098-.1v-.1c0-.1.098-.1.098-.2.196-.3.294-.5.391-.8zM44.571 35c0 .2-.195.4-.391.6v-.1c.098-.4.196-.7.391-1 .196-.2.196-.5.294-.7 0-.1.098-.3.196-.4l.098-.1.098.1c-.098.4-.294.7-.49 1.1-.098.1-.196.3-.196.5zM41.24 39.7c.099-.2.197-.4.295-.5.294-.3.587-.5.783-.8l.098.1-.881 1.2c-.098.1-.196.1-.294 0zM38.694 41.9h.294v.1c-.196.2-.392.3-.588.4-.294.2-.588.3-.882.4h-.098c.098-.3.098-.2.294-.3.098 0 .196-.1.294-.1l.588-.3s.098-.1.098-.2zM34.873 43.8s0 .1 0 0c-.293.1-.49.3-.783.2-.098 0-.098 0-.196.1-.196.1-.294.1-.49 0 .098-.1.196-.3.392-.2.098.1.196 0 .294 0 .294-.2.49-.1.783-.1 0-.1 0 0 0 0zM40.065 40.9c.098 0 .098 0 .098.1v.1c-.196.2-.294.4-.49.5-.097 0-.195.1-.293.2h-.098c.098-.2.098-.3.294-.4.195-.1.391-.2.49-.4-.099-.1-.099-.1 0-.1zM32.033 37.9c0-.2 0-.2.098-.2.196.1.293 0 .391-.1h.098s0 .1.098.1v.1c-.098.1-.196.1-.294.1h-.391zM44.571 26.1c.588.1.98.3 1.47.4v.1h-.098-.098c-.392-.1-.882-.2-1.274-.5 0 .1 0 .1 0 0zM34.776 36.9v.2c0 .1-.098 0-.196-.1s-.196-.3-.294-.4v-.1s.098 0 .098.1c.098.1.098.2.196.2.098.1.098.1.196.1zM27.624 42.7l-.097.1-.588-.3v-.1s0-.1 0 0c.196 0 .392.1.685.3zM46.824 26.9h.196v.2l-.098.3-.098.6-.097.1h-.098v-.3c0-.2.098-.3.098-.5l.097-.2v-.2c.098 0 .098 0 0 0zM42.416 38.4c0-.2.098-.4.294-.5h.098v.1c0 .1-.098.2-.196.2 0 .1-.098.2-.196.2zM39.184 25h-.392v-.1c0-.1 0-.1.098-.1.196 0 .392 0 .588.1 0 0 .098.1.195.1 0 0 0 .1-.097.1H39.282l-.098-.1zM36.343 43.2c.098.1.196.2.098.2-.196.1-.392.2-.588.2 0 0-.098 0-.196-.1.196-.1.294-.2.392-.2.098 0 .196-.1.294-.1zM28.212 38.4c.098 0 .196-.1.294-.1l.098.1v.1c-.098.1-.196.2-.294 0 0 0 0-.1-.098-.1zM31.64 28.8c-.097.1-.097.2-.195.4h-.098v-.1-.1c.098-.1.098-.2.294-.2-.098 0-.098 0 0 0zM26.449 37.9c-.098.1 0 .2-.098.2h-.098s-.098 0-.098-.1v-.4h.196c0 .2.098.2.098.3zM34.58 25.5c.098-.2.293-.3.391-.4h.098v.1c-.196.2-.391.2-.49.3zM41.24 39.8s.099.1 0 .1c-.097.1-.195.3-.391.4 0-.2 0-.2.392-.5zM37.518 42c-.098.3-.294.3-.49.3v-.1a.74.74 0 0 1 .49-.2zM42.612 25.7c-.098 0-.098-.1-.196-.1 0 0 0-.1.098-.1h.392c.098 0 .098.1.196.1h-.098c-.196.1-.294.1-.392.1zM33.894 43.3c-.196.1-.294.1-.392.1v-.1-.1c.098 0 .196 0 .392.1zM41.143 39.1l-.294.3h-.098v-.1c0-.1.196-.2.392-.2zM36.93 42.3c-.097.2-.097.2-.293.2l-.098-.1v-.1h.392zM28.212 38.3v.2c0 .1-.098.2-.196.1 0-.1.098-.3.196-.3 0-.1 0-.1 0 0zM32.816 37.6c.098.1.098.2.098.2s0 .1-.098.1l-.098-.1v-.1c0-.1 0-.1.098-.1zM43.004 37.6c-.098 0-.098-.1-.098-.1l.196-.2.098.1-.196.2zM38.204 24.8c.098-.1.196-.1.196-.1l.098.1-.098.1c-.098 0-.196-.1-.196-.1zM33.992 36.9c0-.1 0-.1 0 0 0-.1 0-.2.098-.1s.098.2.098.2c-.098 0-.098-.1-.196-.1zM27.918 42.7c-.098.1-.196.1-.294 0 0-.1.098-.2.098-.1.098 0 .098.1.196.1zM40.261 25.1c.392 0 .784.1 1.078.3-.294-.1-.588-.1-.882-.2-.098 0-.196-.1-.196-.1zM40.653 40.5c0 .1-.098.3-.196.2-.098-.2 0-.2.196-.2zM27.429 40.2h.195v.2l-.195-.2zM35.461 36.3c-.098 0-.098-.1-.196-.1l-.098-.1s0-.1 0 0l.098.1c.196 0 .196 0 .196.1zM37.127 43.1c-.098 0-.098 0-.196-.1v-.1-.1c.098 0 .098 0 .196.1v.2zM30.465 30.3s.098.1 0 0c.098 0 .098.1.098.1 0 .1 0 .1-.098.1s-.098-.1 0-.2c-.098.1 0 .1 0 0zM31.935 37.8l.098.1v.1h-.098s-.098-.1 0-.2c0 .1 0 0 0 0zM35.265 25c.098-.1.196-.2.294-.2-.098.2-.098.2-.294.2zM37.127 32.2c0 .1 0 0 0 0-.098-.1 0-.1 0 0zM33.404 37.5c0 .1 0 .1-.098.2v-.1c0-.1 0-.1.098-.1zM32.522 44.3c-.098 0-.195 0-.391-.1.098-.1.196-.1.391.1zM32.914 26.9l.294-.2c0 .1-.098.2-.294.2zM34.188 25.6l.098-.1v.1c0 .1 0 .1-.098 0zM34.971 36.8l.098.1v.1s-.098 0-.098-.1c-.098-.1-.098-.2 0-.1-.098-.1-.098 0 0 0zM40.36 40c-.099 0-.197.1-.197.1-.098-.1 0-.1 0-.2 0 0 .098 0 .098-.1l.098.2zM38.008 24.8h-.392c-.196 0-.392-.1-.587-.2-.196-.1.098-.1.587 0 .098 0 .196 0 .294.1l.098.1zM40.555 39.7v-.1h.098v.1h-.098zM35.265 43.7s0 .1 0 0c-.098 0-.098 0-.098-.1 0 0 0-.1.098-.1-.098.1 0 .2 0 .2zM35.461 42.9s0-.1 0 0c0-.1.098-.1.098-.1 0 .1 0 .1-.098.1.098.1 0 0 0 0zM36.049 42.6s.098 0 .098-.1l.098.1c-.098 0-.098.1-.196 0 .098.1 0 .1 0 0zM39.576 40.6c0 .1 0 .2-.196.2 0-.1.098-.2.196-.2zM33.992 43.2h.098v.1h-.098v-.1zM39.086 41v-.1s.098 0 .098.1v.1l-.098-.1zM36.245 24.5l-.098.1h-.098c.098-.1.196-.2.196-.1 0-.1 0 0 0 0zM43.298 25.8h.196c.098 0 .098 0 .294.1-.392 0-.392 0-.49-.1zM28.114 40.3h-.098c0-.1 0-.1.098-.1-.098 0-.098.1 0 .1zM30.563 39.9h-.196c.098-.2.098-.2.196 0zM46.53 26.8h-.195s0-.1.098-.1.098 0 .098.1c.098 0 .098 0 0 0zM38.204 41.5v.2h-.098c.098-.1.098-.1.098-.2zM28.702 42.8v0zM27.33 42.2H27.625h-.293zM28.114 40.4v-.1h.196v.1zM28.996 38.3c0-.1 0 0 0 0zM28.408 40.2s0-.1 0 0v-.1.1zM32.522 44.3c.098-.1.098-.1.196 0h-.196zM32.62 27.3l-.098.1c0-.1 0-.2.098-.1-.098-.1 0-.1 0 0zM33.6 26.4c-.098 0-.098-.1 0 0v-.1.1c0-.1 0-.1 0 0zM28.408 42.4h-.098v-.1h.098v.1zM34.873 43c0-.1.098-.1.098-.1v.1h-.098zM35.853 24.7c0 .1 0 .1 0 0-.098.1-.098 0-.098 0h.098zM39.87 40.2h.097v.1h-.098v-.1zM38.498 41.4c-.098 0-.098 0 0 0zM31.739 28.6l-.098-.1h.098c-.098 0 0 0 0 .1-.098 0 0 0 0 0zM32.13 27.6s.099 0 0 0c.099 0 .099 0 0 0 .099.1 0 .1 0 0zM35.265 43c-.098-.1-.098-.1 0-.1v.1zM30.171 30.8s0-.1 0 0c0-.1 0 0 0 0zM33.796 36.9s0 .1 0 0c0 .1 0 0 0 0zM29.29 38.1v.1-.1c0 .1 0 .1 0 0zM28.212 38.2c0-.1 0-.1 0 0zM31.739 37.4c0 .1 0 .1 0 0 0 .1 0 .1 0 0 0 .1 0 .1 0 0zM38.694 24.8c-.098 0-.098 0 0 0-.098 0-.098 0 0 0zM26.939 40c.098.1.098.1 0 0 .098.1.098.1 0 0 0 .1 0 .1 0 0zM29.976 39.9c.097 0 .097 0 0 0 .097 0 .097 0 0 0zM29.094 40.3c0-.1 0-.1 0 0 0-.1 0-.1 0 0zM30.857 30c0-.1.098 0 0 0 .098 0 .098 0 0 0 .098 0 0 0 0 0zM33.208 43.4c0-.1 0-.1 0 0zM36.44 35.1c0-.1 0-.1 0 0 0-.1 0-.1 0 0zM40.36 39.8h.097zM35.461 43.6v.1zM33.894 26c0 .1 0 .1 0 0zM30.563 39.9s0-.1 0 0c.098 0 .098 0 0 0 .098 0 .098 0 0 0 .098 0 0 0 0 0zM29.584 38.3c0-.1 0-.1 0 0 0-.1.098-.1 0 0 .098-.1.098-.1 0 0 .098 0 0 0 0 0zM29.976 38.2c-.098 0-.098-.1 0 0-.098-.1-.098-.1 0 0 0-.1 0-.1 0 0 0-.1 0 0 0 0zM31.64 37.7s0-.1 0 0c0-.1 0-.1 0 0 .099 0 .099 0 0 0 .099 0 0 0 0 0zM32.718 43.4h.098zM34.873 36.4s0-.1 0 0c0-.1 0-.1 0 0 0-.1 0-.1 0 0 0-.1 0 0 0 0zM31.053 29.6c0-.1 0-.1 0 0z"/><path d="M41.24 39.7v.1h-.097c0-.1 0-.1.098-.1zM39.673 40.4l.098.1h-.098zM37.714 41.9v-.1zM31.249 29.3v.1zM36.539 31.4c-.098 0-.098 0 0 0zM42.318 38.4h.098zM31.151 29.6h.098-.098v-.1zM31.249 29.6h-.098z"/></g><g fill="#333"><path d="M29.976 15.9l.293.3c.098.1.098.2.196.2l.392.4c.196.2.294.4.49.7l.098-.1c.098.2.294.5.392.7v.1c0 .1 0 .2.098.2 0 .1 0 .1.098.1.098.2.196.3.294.6 0 .1.097.3.195.5 0-.2-.098-.3-.098-.4.098.3.196.5.294.7v.2s0-.1-.098-.1h-.098v.1s.098 0 .098.1c.098.1.098.1.098.3 0 .1 0 .1.098.2 0 .2 0 .4.098.5v.2c0 .1 0 .2.098.2v.2c.098.2.098.5.098.8v.5c-.098.2-.098.4-.098.5v1.1c-.098-.1-.098 0 0 .1s.098.3 0 .5v-.1.2c-.098.2-.098.3-.196.5V26.2c-.098.1-.098.3-.098.4v.1c-.098.1-.196.2-.196.4 0 0-.098.1-.098.2s-.097.2-.097.2c-.098.2-.196.4-.294.5l-.098.1c0 .1 0 .2-.098.3-.098.2-.294.5-.392.7-.098.1-.196.3-.392.4-.098.1-.098.2-.196.3-.098.2-.294.4-.49.5-.098 0-.196.1-.294.3l-.097.1-.49.5c-.098.1-.196.1-.294.2l-.392.3c-.49.3-.98.6-1.567.8-.294.2-.686.3-1.078.4-.392.1-.882.2-1.273.3-.392.1-.784.1-1.176.1-.294 0-.49 0-.686-.1-.196 0-.293.1-.49 0h-.195c-.294 0-.588-.1-.98-.1h-.098c0-.1-.098-.1-.196-.1s-.196 0-.294-.1c-.196-.1-.49-.1-.685-.2-.196 0-.49-.1-.686-.2-.196-.1-.392-.1-.49-.3-.098-.1-.196-.2-.392-.2-.098 0-.196 0-.294-.1-.293-.2-.685-.4-.98-.6l-.293-.3c0-.1-.098-.1-.196-.1h-.098c-.196-.2-.49-.4-.686-.6-.196-.1-.294-.3-.391-.5-.098-.2-.294-.4-.49-.5l-.294-.3c-.098-.1 0-.2-.098-.3-.098-.1-.196-.1-.294-.3 0 0 0-.1-.098-.1 0 0-.098-.1-.098-.2s-.098-.2-.098-.3a.772.772 0 0 1-.196-.5c0-.1-.098-.2-.098-.2l-.294-.6v-.1c0-.1-.098-.2-.098-.3-.098-.3-.293-.6-.196-.8v-.1c0-.1 0-.2-.097-.2a.772.772 0 0 1-.196-.5v-.3c0-.2-.098-.3 0-.4v-.1-.3c0-.2 0-.3-.098-.5v-.3c.098-.1.098-.3.098-.4 0-.1 0-.3.098-.4.098-.1.098-.3 0-.4v-.3c0-.2.098-.3.195-.4v-.3c.098-.4.294-.9.392-1.3 0-.1.098-.1.098-.2s.098-.2.196-.3v.2c0-.1.098-.2.098-.2v-.1c-.098 0 0-.1 0-.1l.098-.1.098-.1c.196-.3.392-.6.588-.8 0 0 0-.1.098-.1l.294-.3c.098-.1.294-.2.392-.3l.293-.2.098-.1-.098.1h.098l-.098.1c-.098.1.098.1 0 .2h.098s.098 0 .098-.1l.294-.3h.098c0 .1 0 .2-.098.3-.098.1-.098.2-.196.3 0 .1-.098.1-.196.1v.2c0 .1-.098.1-.098.2-.098.1-.098.3-.196.4 0 .1-.097.2-.097.2-.098.2-.098.4-.196.6l-.294.9c-.098.2-.098.4-.196.6-.098.2-.098.5-.196.7-.098.6-.196 1.3-.196 1.9v.8c0 .2 0 .4.098.6.098.4.196.7.294 1 .098.3.196.5.294.7.294.7.685 1.5 1.175 2.1.196.3.392.5.588.7.196.2.49.4.686.6.196.2.49.3.685.5l.686.4c.294.1.49.3.784.4.392.1.783.3 1.175.4.098 0 .098 0 .196.1.196.1.294.1.49.1h.392c.49 0 .881.1 1.371.1.196 0 .392 0 .588-.1.294 0 .588-.1.784-.1.294 0 .587-.1.783-.2.294-.1.588-.2.784-.3.294-.1.49-.3.784-.4l.881-.6c.294-.2.588-.5.784-.7.588-.6 1.176-1.4 1.567-2.2.098-.3.294-.6.392-.9l.294-.9c.098-.4.098-.8.196-1.2v-1.6c-.098-.8-.294-1.7-.588-2.4l-.294-.6-.49-.7c-.293-.3-.49-.7-.783-1-.294-.4-.686-.7-.98-1-.294-.2-.685-.5-1.077-.7-.98-.6-2.155-.9-3.33-1.1-.687-.1-1.372-.1-1.96 0-.686.1-1.47.3-2.155.5l-.392.2-.196.1h-.098l-.392.2c-.294.1-.49.3-.685.4-.196.1-.392.2-.49.4-.196.1-.294.2-.49.3h-.098c0-.1 0-.2-.098-.2-.098-.1-.098-.2-.098-.3 0-.1 0-.1.098-.2.098-.3.196-.6.392-.8.196-.2.392-.5.588-.7.196-.1.294-.3.49-.4.097-.1.195-.1.293-.2.196-.1.392-.2.49-.3.49-.3 1.078-.5 1.665-.6.098 0 .196 0 .196-.1-.196 0-.294.1-.49.1-.195.1-.293.1-.49.1.686-.2 1.372-.4 2.058-.4.392 0 .784-.1 1.175 0H23.902c.294 0 .588.1.784.1.196 0 .392.1.49.1.391.1.783.2 1.077.3.392.1.686.3 1.078.5.098.1.196.1.196.2l.097.1c.098.1.196.1.294.2.294.1.49.2.784.4.098 0 .098.1.098.2 0 .2.196.2.294.3.098 0 .098.1.196.1-.098-.1-.196-.2-.294-.2 0 0 .098 0 .098.1.392.4.882.7 1.175 1.1v.1c-.098 0-.098 0-.098-.1s0-.1-.195-.3zM17.829 32s0 .1 0 0c0 .1.098.1 0 0zm13.714-14.1s-.098 0 0 0c0 0 0 .1 0 0 0 .1 0 0 0 0zM19.102 13.4c-.098 0-.098 0-.196.1l-.588.3-.391.2c.097 0 .097-.1.195-.1.098-.1.196-.1.294-.2.098-.1.196-.1.392-.2.098.1.196 0 .294-.1z"/><path d="M19.592 13.2s0 .1 0 0l-.098.1s.098 0 .098-.1c0 .1.098.1.098 0v-.1c.098.1 0 .1-.098.1.098 0 .098 0 0 0zM20.082 13.1c-.098 0-.098 0 0 0-.098 0-.098 0 0 0z"/></g><path d="M33.11 8.8c.098 0 .196 0 .196.1h.098v.2h-.098l-.098-.1c0 .2 0 .2-.098.2-.098-.1-.098-.2-.196-.2v.1c.098.1.098.2 0 .2 0 0-.098.1-.098 0l-.098-.1c0 .1 0 .1-.098.1h-.293c-.098 0-.098-.1-.196 0h-.098c-.098-.1-.196-.1-.294-.1-.098 0-.098-.1-.196-.1h-.098-.098c-.098-.1-.294-.2-.49-.3-.098-.1-.294-.1-.392-.2-.196-.1-.392-.2-.685-.3-.098-.1-.196-.1-.294-.1.294-.2.098-.2 0-.2s-.294-.1-.392-.2l-.588-.3h-.098c-.098 0-.196 0-.294-.1-.392-.1-.783-.3-1.175-.4-.196 0-.49-.1-.686-.1l-.784-.1c-.196 0-.49-.1-.685-.1-.294 0-.588-.1-.98-.1h-.882c-.293 0-.587-.1-.783 0h-.196c-.196 0-.392 0-.588.1-.294 0-.588 0-.882.1-.49.1-.881.2-1.371.3h-.196c-.196.1-.392.1-.588.2-.098 0-.098 0-.196.1-.49.1-.881.3-1.273.5-.098 0-.196.1-.294.1-.196 0-.294.1-.392.2-.098.1-.196.1-.294.1-.098 0-.098.1-.196.2-.097 0-.195.1-.195.1-.196.1-.294.1-.392.2-.588.2-.98.5-1.372.7-.392.2-.685.5-.98.8-.391.3-.685.6-.979.9-.294.3-.686.6-.98 1-.097.1-.195.2-.195.3-.098.1-.098.2-.196.3-.294.3-.49.6-.686.9-.196.3-.49.6-.686 1-.196.1-.294.3-.392.5-.098.1-.196.3-.196.4-.097.1-.097.2-.195.3-.098.3-.196.6-.294.8-.098.3-.196.5-.294.6l-.294.9-.294.9c-.098.3-.098.7-.196 1v.6c-.098.5-.098 1-.196 1.5v1.2c0 .5.098 1 .098 1.4 0 .7.196 1.4.294 2 .196.5.294 1.1.49 1.6s.392 1.1.588 1.6c.196.3.293.6.391.9.098.2.196.5.392.7 0 .1.098.2.098.2 0 .1.098.2.196.3.098.1.196.2.196.4 0 .1.098.2.196.3.392.5.686 1 1.176 1.5.097.1.195.2.293.4.098.1.196.2.196.3.294.4.686.7 1.078 1 .098.1.196.3.294.4 0 .1 0 .1.098.2v.1c-.098.1-.196.1-.294.2 0 .1-.098 0-.098 0 0 .1 0 .2-.098.2v.1c0 .1-.098.1-.098 0l-.098-.1s-.098 0-.098-.1c-.098 0-.098 0-.196-.1l-.392-.2-.098-.1c-.196-.1-.392-.3-.587-.4l-.294-.3c-.098 0-.294-.2-.392-.4l-.098-.1-.196-.2a7.53 7.53 0 0 1-1.078-1.4c-.293-.3-.49-.7-.685-1l-.392.2c-.196-.3-.294-.5-.49-.8-.098-.3-.294-.6-.392-.8l-.294-.6-.294-.7c-.097-.4-.293-.8-.391-1.2l-.294-1.2v-.1c-.196-.7-.294-1.4-.392-2.1 0-.3-.098-.6-.098-.9v-.5-.5-1.4-1.6c0-.5.196-1 .294-1.4 0-.2.098-.4.098-.6 0-.3.098-.5.196-.7 0-.1.098-.1.098-.2l.294-.9.391-.9.294-.7c.294-.5.49-1 .784-1.5.294-.5.588-1 .98-1.5.195-.3.391-.5.587-.7l.196-.2c.098-.1.196-.2.196-.3 0-.1.098-.1.098-.2.392-.5.882-1 1.372-1.5 0-.1.097-.2.293-.3l.392-.3.196-.2c.098-.1.196-.2.294-.2.098-.1.196-.2.294-.2.196-.1.392-.3.588-.4.098-.1.196-.1.196-.2.195-.1.293-.2.49-.3.293-.2.587-.3.979-.5.196-.1.392-.2.49-.3.098-.1.196-.2.392-.2h.098c.293-.2.587-.2.783-.3h.098a.74.74 0 0 1 .49-.2c.196-.1.49-.1.686-.2.196-.1.392-.2.685-.2.196 0 .294 0 .49-.1 0-.2.196-.2.392-.2h.098c.294-.1.588-.1.784-.2.294-.1.49-.1.783-.1h.588c.196 0 .294-.1.49-.1H22.53c.196-.1.293-.1.49 0h1.175l.784.1H25.273c.098-.1.294 0 .392 0 .196 0 .294.1.49.1.098 0 .294.1.49.1.294.1.588.2.882.2.097 0 .097 0 .195.1s.294.1.49.1c.294.2.686.2.98.3.196.2.49.3.784.4.195.1.293.1.49.2.195.1.293.2.49.3h.097c.098 0 .196 0 .196.1s.098.1.196.1.196.1.294.2c0 0 .098.1.196.1 0 0 .098.1.098 0 .098 0 .098 0 .196.1s.098.1.195.1c.196.1.392.3.49.4v.1s0 .1.098.1h.098v.1c0 .1 0 .1-.098.2 0 .1 0 .1-.098.1.098.1.196.2.294.2 0 .3 0 .3-.098.4zM33.6 10.9c.098 0 .098.1.196.1.196.1.294.3.49.4.196.2.392.3.587.5 0 .1.098.1.098.1s.098 0 .098.1V12c0-.1-.098-.1-.098-.2-.195-.2-.391-.5-.685-.7 0 0-.098-.1-.098-.2.098.1.196.2.294.2.098 0 .098.1.196.2 0 0 .098.1.195.1 0-.1 0-.1-.097-.1-.196-.2-.392-.3-.49-.5-.098-.1-.196-.1-.196-.2v-.1c0-.1.098 0 .098 0 .196.1.294.2.392.3l.098.1s.098 0 .098-.1v-.1c.097-.1.195 0 .293 0 .098.1.196.2.392.2.098.1.196.1.294.2.196.1.392.2.588.4.294.2.588.5.881.8l.098.1c.098.1.196.2.196.3l.098.1.49.5.098.1c0 .1.098.1.098.1.196.4.49.7.686 1.1.196.3.392.6.49 1 0 .1.098.2.195.3 0 0 .098.1.098.2.098.1.098.3.196.4 0 .2.098.3.196.5 0 .1.098.2.098.3.098.3.196.6.294.8l.294 1.2c.098.4.196.7.196 1.1 0 .3.098.6.098.9v.6l.098 1.1V24.7c0 .5-.098 1-.196 1.4 0 .4-.196.8-.196 1.1-.098.4-.196.8-.294 1.1-.196.5-.294 1-.49 1.5s-.392.9-.685 1.4c-.294.6-.686 1.2-.98 1.8-.098.1-.196.3-.294.4 0 .1-.098.1-.098.2-.196.3-.294.5-.49.8-.196.2-.391.5-.587.7-.098.1-.196.3-.294.4-.392.5-.882.9-1.274 1.3-.294.3-.587.5-.881.8l-.882.7c-.588.4-1.078.8-1.665 1.1-.196.1-.294.2-.49.3-.098 0-.098 0-.196.1 0-.1.098-.1.098-.1.392-.2.784-.4 1.077-.7l-.293.2c-.098.1-.294.1-.392.2-.098.1-.196.1-.392.2-.294.2-.49.3-.784.4-.392.2-.685.3-1.077.5l-.098.1-.588.2-.686.2c-.392.1-.783.3-1.175.4-.49.1-1.078.2-1.568.3h-.098c-.783.1-1.665.2-2.449.1-.391 0-.783 0-1.175-.1h-.294c-.686-.1-1.371-.2-2.057-.4-.294-.1-.686-.2-.98-.3-.294-.1-.685-.3-.98-.4-.489-.2-.587-.2-.783-.4-.196-.1-.392-.2-.686-.4-.098-.1-.196-.1-.293-.2-.098-.1-.196-.1-.294-.2-.392-.3-.882-.5-1.274-.8-.196-.1-.392-.2-.49-.4-.098-.1-.196-.2-.391-.3 0 0-.098 0-.098-.1v-.1h.098c.097 0 .195.1.293.1 0-.1-.098-.1-.098-.1-.098-.1-.293-.2-.391-.2l-.098-.1c.098 0 .196.1.294.1h.097c-.097-.1-.195-.1-.293-.2-.098-.1-.196-.2-.392-.2.098.1.196.1.392.1v-.1s0-.1.098-.1h.098c.097 0 .097.1.195.1.294.1.49.3.784.4.196.1.392.2.686.3l.588.3c.196.1.49.2.685.3l.882.3c.196.1.392.2.588.2.294.1.685.2.98.3.391.2.783.2 1.273.3.392.1.881.2 1.273.2.392 0 .686.1 1.078.1h1.273c.294-.1.588-.1.882-.1.49-.1.98-.1 1.47-.2.391-.1.685-.2 1.077-.3.392-.1.881-.3 1.273-.4.392-.2.784-.4 1.176-.5l1.175-.6c.196-.1.49-.3.686-.4 0 0 .098 0 .098-.1.392-.2.686-.5 1.078-.7.293-.3.587-.5.98-.8.489-.3.783-.8 1.273-1.1.196-.2.391-.5.587-.7.294-.4.686-.7.882-1.2.098-.1.098-.2.196-.2 0-.1.098-.1.098-.2.098-.2.196-.3.294-.5.098-.2.196-.3.294-.5.196-.3.391-.7.587-1l.588-1.2V29c.098-.4.294-.8.392-1.2.098-.2.098-.4.196-.6.098-.5.294-1 .392-1.5.098-.6.196-1.1.196-1.7.098-.8 0-1.7 0-2.5-.098-.4-.098-.8-.196-1.2 0-.2 0-.4-.098-.6-.098-.2-.098-.4-.196-.5-.098-.2-.098-.4-.098-.6 0-.1 0-.1-.098-.2-.196-.5-.294-1.1-.588-1.6-.098-.2-.196-.5-.294-.7-.098-.2-.196-.3-.196-.5-.196-.4-.49-.8-.685-1.1-.098-.2-.098-.2-.196-.3-.098-.2-.294-.4-.392-.7-.098-.2-.196-.4-.392-.5l-.588-.9c-.098-.2-.294-.3-.392-.5l-.097-.1s-.098 0-.098-.1c-.588-.1-.784-.3-1.078-.5z" fill="#333"/><path d="M22.727 32.9c-.098-.1-.098-.1 0-.2-.098 0-.098 0 0-.1 0 0 0-.1.097 0 0 0 0-.1.098-.1v.1s0 .1-.098.2c.098-.1.098-.1.294-.1 0 .1-.098.2 0 .3v-.1c0-.1.098-.1.196-.2 0 0 .098 0 .098.1s-.098.1 0 .2c0 0 .098-.1.098 0s.098.2.098.2c0 .1 0 .1.098.2v.1c0 .1 0 .2.098.3V40.6c0 .2-.098.3-.196.5 0 0-.098.1-.098.2s-.098.1-.098.1c-.098 0-.196-.1-.392-.1-.098 0-.098-.1-.098-.1-.098 0-.098.1-.195 0 0 0-.098 0-.098.1-.098 0-.098 0-.098-.1v-.1-.1c0-.1-.098-.1-.098-.2-.098-.2-.098-.2-.098-.4v-.2c-.098-.2 0-.5-.098-.7v-.1-.4-.1-.1-.1-.1-.2-.1-.1-.2-.1-.2-.1-.1-.1-.1l.098-.1s-.098 0 0 0c-.098 0 0 0 0 0-.098 0 0 0 0 0s.098 0 0 0c0 0-.098 0 0 0-.098 0-.098 0 0 0-.098 0 0-.1 0-.1-.098 0 0 0 0 0V37c.098 0 0 0 0-.1v-.1h.098c-.098-.1-.098-.1 0-.2v-.2c0-.1-.098-.2 0-.3v-.2-.1-.2c0-.1.098-.2 0-.2v-.6s0-.1.098-.1c0 0 .098 0 0-.1h-.098.098c0-.1.098-.1.196-.1.097-.1.097 0 .097 0h.098v-.3c-.391-1.4-.293-1.4-.195-1.3.097 0 .097 0 0 0 .097 0 .097-.1 0 0zM22.922 6.1l-.098-.1c-.097 0-.097 0 0-.1 0 0 0-.1.098 0 0 0 0-.1.098-.1v.1s0 .1-.098.2c.098-.1.098-.1.294-.1 0 .1-.098.2 0 .3v-.1c0-.1.098-.1.196-.2 0 0 .098 0 .098.1 0-.1 0 0 0 0s.098-.1.098 0 .098.2.098.2c0 .1 0 .1.098.2 0 .1.098.2.098.3v1.5c0 .2 0 .5.098.8V11c0 .2 0 .3-.196.5 0 0-.098.1-.098.2s-.098.1-.098.1c-.098 0-.196-.1-.392-.1-.098 0-.098-.1-.098-.1-.098 0-.098.1-.196.1 0 0-.098 0-.098.1-.097 0-.097 0-.097-.1v-.1-.1c0-.1-.098-.1-.098-.2-.098.2-.098.2-.098 0v-.2c-.098-.2 0-.5-.098-.7v-.1-.4-.1h.098s-.098 0 0 0c-.098 0 0 0 0 0-.098 0 0 0 0 0s.098 0 0 0c0 0-.098 0 0 0-.098 0-.098 0 0 0-.098 0 0 0 0 0-.098 0 0 0 0 0 .098 0 0 0 0 0h.098c-.098-.1-.098-.1 0-.2v-.2c0-.1-.098-.2 0-.3v-.2-.1-.2c0-.1.098-.2 0-.2v-.6s0-.1.098-.1c0 0 .097-.1 0-.1h-.098.098c0-.1.097-.1.195-.1.098-.1.098 0 .098 0h.098v-.3c-.391-1.1-.391-1.1-.196-1.1 0 0 0 .1 0 0 0 .1.098 0 0 0 .098 0 0 0 0 0zM14.596 23c.098-.1.098-.1.196 0 0-.1 0-.1.098 0 0 0 .098 0 0 .1 0 0 .098 0 .098.1h-.098s-.098 0-.196-.1c.098.1.098.1.098.3-.098 0-.196-.1-.294 0h.098c.098 0 .098.1.196.2 0 0 0 .1-.098.1s-.098-.1-.196 0c0 0 .098.1 0 .1s-.196.1-.196.1c-.098 0-.098 0-.196.1h-.098c-.098 0-.196 0-.294.1h-.196-.098H11.461h-.098-.098-.098-.098-.098-.098-.097-.098-.098H10.09h-.098-.098-.098-.098H9.6h-.098-.098H9.11h-.098-.098-.098-1.763c-.196 0-.294-.1-.49-.2 0 0-.098-.1-.196-.1s-.098-.1-.098-.1c0-.1.098-.2.098-.4 0-.1.098-.1.098-.1 0-.1-.098-.1 0-.2 0 0 0-.1-.098-.1 0-.1 0-.1.098-.1h.196c.098 0 .098-.1.196-.1.196-.1.196-.1.392-.1h.196c.196-.1.49 0 .686-.1H10.286l.098.1s0-.1 0 0c0-.1 0 0 0 0 0-.1 0 0 0 0s0 .1 0 0c0 0 0-.1 0 0 0-.1 0-.1 0 0 0-.1.098 0 .098 0 0-.1 0 0 0 0h.098c0 .1 0 0 .098 0h.098v.1c.097-.1.097-.1.195 0h.196c.098 0 .196-.1.294 0H11.951c.098 0 .196.1.196 0h.588s.098 0 .098.1c0 0 0 .1.098 0v-.1.1c.098 0 .098.1.098.2.098.1 0 .1 0 .1v.1h.293c1.372-.3 1.372-.3 1.274-.2 0 0 0 .1 0 0 0 .1 0 .1 0 0 0 .1.098.1 0 0 .098.1 0 0 0 0zM41.143 22.9c.098-.1.098-.1.196 0 0-.1 0-.1.098 0 0 0 .098 0 0 .1 0 0 .098 0 .098.1h-.098s-.098 0-.196-.1c.098.1.098.1.098.3-.098 0-.196-.1-.294 0h.098c.098 0 .098.1.196.2 0 0 0 .1-.098.1s-.098-.1-.196 0c0 0 .098.1 0 .1s-.196.1-.196.1c-.098 0-.098 0-.196.1h-.098c-.098 0-.196 0-.294.1h-.196-.098H38.008h-.098-.098-.098-.098-.098-.098-.098-.098-.097-.098-.098-.098-.098H36.44h-.098-.098-1.763c-.196 0-.294-.1-.49-.2l-.098-.1c-.098 0-.098-.1-.098-.1 0-.1.098-.2.098-.4 0-.1.098-.1.098-.1 0-.1-.098-.1 0-.2 0 0 0-.1-.098-.1 0-.1 0-.1.098-.1h.196c.098 0 .098-.1.196-.1.196-.1.196-.1.392-.1h.195c.196 0 .49 0 .686-.1H37.322l.098.1s0-.1 0 0c0-.1 0 0 0 0 0-.1 0 0 0 0s0 .1 0 0c0 0 0-.1 0 0 0-.1 0-.1 0 0 0-.1.098 0 .098 0 0-.1 0 0 0 0 0 .1 0 0 0 0v.1c.098-.1.098-.1.196 0h.196c.098 0 .196-.1.294 0H38.694c.098 0 .196.1.196 0 .196 0 .392 0 .588.1 0 0 .098 0 .098.1 0 0 0 .1.097 0v-.1.1c.098.1.098.1.098.2.098.1 0 .1 0 .1h.294c1.078-.4 1.078-.4 1.078-.2 0 0-.098 0 0 0-.098 0 0 0 0 0z" fill="#333"/></g></svg>
