<svg id="Layer_1" xmlns="http://www.w3.org/2000/svg" viewBox="0 0 2001 396" enable-background="new 0 0 2001 396"><style>.st1{fill-rule:evenodd;clip-rule:evenodd;fill:#fff}</style><defs><filter id="Adobe_OpacityMaskFilter" filterUnits="userSpaceOnUse" x="1179.7" y="-158.7" width="227.5" height="230.4"><feColorMatrix values="1 0 0 0 0 0 1 0 0 0 0 0 1 0 0 0 0 0 1 0"/></filter></defs><mask maskUnits="userSpaceOnUse" x="1179.7" y="-158.7" width="227.5" height="230.4" id="mask-2_1_"><g filter="url(#Adobe_OpacityMaskFilter)"><path id="path-1_1_" class="st1" d="M1954.1-38.3v-20.2l-10.1-.4-7 1.6-6.7 1.6-5.4 1.5-7-.3-8.6 1.3-7.3-1.2-5.7-1.3-4.2 1.7-8 .9-4.2 2.4-6.4-.3-7-.3-3.1-3.3-6.1.2-3.2 2.6-10.2-.4-6-1.3-5.4-1.7-7.9-4.1-2.5-2.3-7-.3-2.5-2.1-7.2-3.9-5.4-1.1-2.8-2.2-4.8 4.8-1.5-3-2.2-3.3-7-1.8-2.8 3-4.7-2.5-3.8 4.9-7-.3-4.5 3-3.2-3.7-6.1 3.5-3.2-2.2-5.1 2.9-6.4 2.1-1.7 4.4-4.8 2.1-.1 2.9-7.4-.3-5.1.9-3.3 2-.1 5.5-2.3 2-.1 4-6.1 1.2-1.8-4.1-7.6-.9-7.6-2-8.3-1.4v-2.3l-3.8-2.5-5.4-.4v-4.8l-6-2.8-2.2-2.2-7.6-4.1-10.2.5-3.9 3.3s-6.4 1-6.4 1.6c0 .6 0 1.5-5.4 1.7l-4.2 1.5-8.6 1.3-2.5-2.8-7.3-.9-5.1-1.7-4.7-2.1-6.7.6-8.7 1.4v-3.7l-5.2-1.2-6.9 2.3-6.4 1.2-4.2 1.9-11.8-.5-7 1.6-8.6 3.2-7-1.5-6.7 2.1-7.2-.9-11.2-1.2-4.2 1.7-6.4.7-4.3 1.4-7.7.5h-7.1l-3.1-3.3-6 .2-3.2 2.6-10.2-.4-6-1.3-5.4-1.7-13.2 11.4-3.8-2.9-7.3-.7-6.4.4v-2.2c-1.9-.6-3.8-1-5.5-1.2l-3.6-3-1.6-2.1c-.4-.2-.6-.7-1.4-2.5-2-.1-4-.7-6.1-1.8-1.9-1.3-2.8-2-2.9-2l-4.6-2.5-7-.3c-2.6-.1-4.4.4-5.5 1.3-1.9 1-3.8 1.9-5.8 2.8-.2.1-.3.2-1.6 2.3-.2.3-.4.4-4.8 1.3-1.1.8-2.2 1.7-3.5 2.8l-6.3-.7-5.1-.8-7.6-.3-7.1-.5-4.3-3-7.3-2.2-7-2c-3.8-.6-6-.9-6.7-.9-1 0-5.8 1.7-7.7 3.3l-9.2.9-3.5 2.2-6.5 2.7V-61l-6-2.8-2.2-2.2-7.6-4.1-10.2.5-3.9 3.3s-6.4 1-6.4 1.6c0 .6 0 1.5-5.4 1.7l-4.2 1.5-8.6 1.3-2.5-2.8-7.3-.9-5.1-1.7-4.7-2.1-6.7.6-11.5 2.6v-4.9l-5.2-1.2-6.9 2.3-6.4 1.2-4.2 1.9-11.8-.5-7 1.6-8.6 3.2-7-1.5-5.4 1.7-5.4.7-9.2-.2-4.8-1-4.2 1.7-8 .9-7.6 1.8h-9.9l-3.1-3.3-6.1.2-3.2 2.6-10.2-.4-6-1.3-5.4-1.7-7.9-4.1-2.5-2.3-7-.3-2.5-2.1-4.7-2.3-7.9-1.6v4l-5.4-1.1-3.8-3.1-2.2-2.4-3.8-2.3-3.2 2.2-2.8-2-4.7-2.5-3.8 4.9-7-.3-4.5 3-3.2-3.7-4.5-1.2-3.2 2.2-6.7 2-4.2 2.9-2.2-4.6-1.7 4.4-4.8 2.1-.1 2.9-7.9 1.4-7.3-2.2-7-2c-3.8-.6-6-.9-6.7-.9-1 0-5.8 1.7-7.7 3.3l-9.2.9-7.7 3.5-5.2 4v-4.8l-6-2.8-2.2-2.2-7.6-4.1-10.2.5-3.9 3.3s-6.4 1-6.4 1.6c0 .6 0 1.5-5.4 1.7l-4.2 1.5-8.6 1.3-2.5-2.8-7.3-.9-5.1-1.7-4.7-2.1-6.7.6-9.3 1.5-5.4 1.7-8.6.3-11.2 3.6-9.2.5-9.9 3.2h-6c-1 0-7-.9-8.9-2.7l-11-2-8.3-.3-9 2.2-8.9.9-7.6.5-7.3.3-4.2 1.5-5.1 2.1-11.2 1.2-2.6 2.6-3.2 2-8.3-.3-7-2.4-5.4.4-3.8-2.9-7.3-.7-6 .4-6.1.4-8 1.2-5.8 1-9.8-1.7-13.7-2L557-58l-5.7-.9-4.1-1.4-3.1-2.4-5.1-.8-7.6-.3-5.7.6-2.5-2-3.1-2-7.3-2.2-7-2c-3.8-.6-6-.9-6.7-.9-1 0-5.8 1.7-7.7 3.3l-9.2.9-7.7 3.5-3.5 2.2v2.5l-5.4 1-4.5 2.8-5.7-1.1s-4.1-.2-8.9 1.1l-7.3-.1s-2.2-1-8.9-1.2l-5.7 1-4.5-2.8-5.4-1.1v-2.5l-3.5-2.2-4.2-1.4-6.1-3.6-8.6-1.2s-4.8-1.8-5.8-1.7c-.9 0-2.9-.6-6.7.8l-7 1.9-7.3 2.1-3.1 2-2.5 2-5.7-.7-12.7 1-7.3 3.8-5.7.8-7.9.4-14.3 2.5-8.2 3-3.2-2-8-1.3-6.1-.5-6-.5-7.3.6-3.8 2.8-8 .2-6.3 3.1-6.4-1.3-3.2-2-6.1-1.5-7.7-2.5-5.1-2.2-4.2-1.6-7.3-.4-5.6-1.6-8.9 6.3-7-.9-6.6-.1v20.8h-299.6v371.8l13.6.5 9.4-1.9 9-1.9 7.3-1.7 9.4.3 11.5-1.6 9.8 1.4 7.6 1.5 5.6-2.1 10.7-1.1 5.6-2.8 8.5.3 9.4.3 4.2 3.9 8.1-.2 4.3-3.1 13.6.5 8.1 1.5 7.2 2 10.5 4.9 3.4 2.7 9.4.3 3.4 2.5 9.7 4.6 7.2 1.3 3.8 2.6 6.4-5.7 2.1 3.6 2.9 3.8 9.3 2.1 3.8-3.6 6.3 3 5.1-5.8 9.4.3 6-3.5 4.3 4.4 8.2-4.2 4.3 2.6 6.8-3.5 8.6-2.5 2.2-5.2 6.4-2.5.1-3.5 9.9.3 6.8-1 4.4-2.4.1-6.5 3-2.4.1-4.7 8.1-1.5 2.4 4.8 10.2 1.1 10.2 2.4 11 1.6-.1 2.7 5 2.9 7.2.5-.1 2.7-.1 3 8 3.3 2.9 2.6 10.1 4.9 13.6-.6 5.2-3.9s8.5-1.2 8.6-1.9c0-.7 0-1.7 7.3-2l5.6-1.8 11.5-1.6 3.3 3.4 9.8 1.1 6.8 2 6.3 2.5 8.9-.7 11.6-1.7v4.3l7 1.4 9.2-2.7 8.5-1.4 5.6-2.3 15.7.6 9.4-1.9 11.6-3.8 9.3 1.8 9-2.5 9.7 1 15 1.4 5.7-2.1 8.5-.9 5.8-1.7 10.2-.6h9.5l4.2 3.9 8.1-.2 4.3-3.1 13.6.5 8.1 1.5 7.2 2 17.6-13.5 5 3.4 9.8.9 8.6-.5-.1 2.6c2.6.8 5 1.2 7.4 1.4l4.8 3.6 2.1 2.5c.5.2.8.8 1.9 2.9 2.7.1 5.4.8 8.2 2.1 2.5 1.6 3.8 2.4 3.9 2.4l6.2 2.9 9.4.3c3.5.1 5.9-.5 7.4-1.5 2.5-1.2 5.1-2.3 7.7-3.3.2-.1.4-.2 2.2-2.8.2-.3.6-.5 6.4-1.6 1.4-.9 3-2.1 4.6-3.3l8.5.8 6.8 1 10.2.4 9.5.5 5.8 3.5 9.7 2.6 9.3 2.3c5.1.7 8.1 1 8.9 1.1 1.3 0 7.7-2 10.3-3.9l12.4-1 4.7-2.6 8.7-3.2-.1 2.7 8 3.3 2.9 2.6 10.1 4.9 13.6-.6 5.2-3.9s8.5-1.2 8.6-1.9c0-.7 0-1.7 7.3-2l5.6-1.8 11.5-1.6 3.3 3.4 9.8 1.1 6.8 2 6.3 2.5 8.9-.7 15.4-3.1v5.8l7 1.4 9.2-2.7 8.5-1.4 5.6-2.3 15.7.6 9.4-1.9 11.6-3.8 9.3 1.8 7.3-2 7.6.5 12.3.3 6.4 1.2 5.6-2.1 10.7-1.1 10.2-2.2h13.3l4.2 3.9 8.1-.2 4.3-3.1 13.6.5 8.1 1.5 7.2 2 10.5 4.9 3.4 2.7 9.4.3 3.4 2.5 6.3 2.7 10.6 1.9v-4.7l7.2 1.3 5 3.7 2.9 2.9 5.1 2.7 4.2-2.6 3.8 2.4 6.3 3 5.1-5.8 9.4.3 6-3.5 4.3 4.3 6 1.4 4.3-2.6 9-2.4 5.6-3.4 3 5.4 2.2-5.2 6.4-2.5.1-3.5 10.6-1.6 9.7 2.6 9.3 2.3c5.1.7 8.1 1 8.9 1.1 1.3 0 7.7-2 10.3-3.9l12.4-1.1 10.3-4.1 7-4.7-.1 2.7-.1 3 8 3.3 2.9 2.6 10.1 4.9 13.6-.6 5.2-3.9s8.5-1.2 8.6-1.9c0-.7 0-1.7 7.3-2l5.6-1.8 11.5-1.6 3.3 3.4 9.8 1.1 6.8 2 6.3 2.5 8.9-.7 12.4-1.8 7.3-2 11.5-.3 15-4.2 12.4-.6 13.3-3.8h8.1c1.3 0 9.4 1.1 11.9 3.2l14.9 2.3 11 .4 12-2.6 11.9-1.1 10.2-.6 9.8-.4 5.6-1.8 6.9-2.5 14.9-1.4 3.5-3.1 4.3-2.4 11.1.4 9.3 2.8 7.3-.5 5 3.4 9.8.9 8.1-.5 8.1-.5 10.7-1.4 7.7-1.2 13.1 2 18.3 2.4 5.9 2 7.6 1 5.5 1.7 4.2 2.9 6.8 1 10.2.4 7.7-.7 3.4 2.4 4.2 2.4 9.7 2.6 9.3 2.3c5.1.7 8.1 1 8.9 1.1 1.3 0 7.7-2 10.3-3.9l12.4-1 10.3-4.1 4.7-2.6.1-3 7.3-1.2 6-3.3 7.6 1.3s5.5.2 11.9-1.3l9.8.1s3 1.2 11.9 1.5l7.6-1.2 6 3.4 7.3 1.3.1 3 4.7 2.6 5.6 1.6 8.2 4.3 11.5 1.5s6.4 2.1 7.7 2.1c1.3 0 3.8.7 8.9-1l9.3-2.2 9.8-2.5 4.2-2.3 3.4-2.3 7.7.8 17-1.1 9.7-4.5 7.6-.9 10.6-.5 19.1-2.9 11-3.5 4.3 2.4 10.7 1.5 8.1.6 8.1.6 9.8-.7 5-3.4 10.7-.3 8.4-3.7 8.5 1.5 4.3 2.4 8.1 1.8 10.3 3 6.8 2.6 5.6 1.9 9.8.5 7.4 1.9 11.9-7.4 9.4 1 8.8.1V-38.3h-299z"/></g></mask><path id="Fill-94" d="M1267.2 53.3c.1-.1-.2-.5-.3-.8-.3.1-.9.2-1 .4-.1.6-.1 1.3-.1 1.9.6-.5 1.1-1 1.4-1.5m-17.7 10.4c-.3-.2-.5-.8-.4-1 .4-.6.6-1.2-.1-1.9-.8-.9-1.5-.7-2.4-.3-.6.2-1.5.4-2.2.2-5-1.6-9.5-4.4-13.9-7.3-1.2-2-3-2.7-5-3.3-1.8-.5-3.2-1.5-3.9-3.3-.4-1.1-1.2-1.8-2.2-2.4-1.4-.8-2.6-1.9-4-2.7-1.3-.8-2.4-1.7-3.4-2.8-.9-1.1-1.7-2.4-2.3-3.6-.8-1.8-1.7-3-3.3-3.9-2-1.1-3.1-2.7-3.1-5 0-.5-.4-1.2-.8-1.5-1.4-1.5-3.1-2.9-4.4-4.6-1.2-1.4-2.4-2.9-3.3-4.5-.9-1.5-1.7-3-2.4-4.6-.7-1.6-1.5-3.1-2.4-4.6-1-1.7-1.5-3.6-1.9-5.5-.4-1.9-.9-3.7-2.1-5.4-.1-.1 0-.3 0-.4.3-2.1-.7-3.6-1.8-5.2-.4-.7-.9-1.6-.8-2.4.1-1.8-.2-3.4-.6-5.1-.2-.8-.5-1.6-.7-2.4-.2-.8-.5-1.6-.7-2.5l-.6-2.6c-.2-.9-.3-1.7-.5-2.6-.3-1.9-.8-3.8-.6-5.6.1-1.6-1.2-3.5.5-4.9.2-.2-.1-1.1-.2-1.6-.1-.9-.5-1.7-.5-2.6 0-6.4.3-12.8 2.4-18.8.5-1.4.7-2.8.3-4.2-.6-2-.1-3.6 1.3-5.1.4-.4.8-1.2.8-1.8-.1-1.8.7-3.4.9-5 .3-2 1.3-3.3 2.1-4.9 1-1.9 1.6-4 2.1-6.1.8-2.8 1.9-5.4 3.8-7.7 1.9-2.4 3.1-5.4 5-7.9.3-.3.3-.8.4-1.2.5-2 1.6-3.6 3.5-4.7 1.7-.9 2.7-2.4 3.1-4.4.3-1.4.9-2.5 1.7-3.5.8-1 1.9-1.7 3.1-2.3.7-.3 1.2-.7 1.8-1.1.5-.4 1-.8 1.5-1.3.9-1 1.6-2.1 2.3-3.3 1.1-1.9 2.2-3.8 4.7-3.9.2 0 .5-.2.7-.4 1-1.1 1.9-2.2 3.1-3.1 1.1-.9 2.4-1.6 3.9-1.9.2 0 .6-.3.6-.5.2-2.2 2.3-2.3 3.7-3.2 1.9-1.2 4-2 5.9-3.5 1.6-1.2 3.2-2.4 4.8-3.5 1.7-1 3.4-2.1 5.2-2.9 1.9-.9 3.9-1.7 5.8-2.7 1-.5 2.2-.9 3.3-.9 2.9.1 5.5-.2 8.1-1.9 1.2-.8 2.9-1.1 4.4-1.5 1.5-.4 3-.9 4.5-1.3 1-.2 2-.3 3-.4 1.8-.3 3.7-.6 5.5-.8 1.9-.2 3.7-.1 5.6-.4 7.6-1.2 15.2.3 22.6 1 .8.1 1.6.5 2.5.7 1.2.2 2.5.4 3.7.6 1 .1 2 0 3 .2 1.7.4 3.3.8 5 1.2 1.7.5 3.3 1 4.9 1.5 6.3 2.1 12.3 5 18.1 8.2 5.5 3 10.9 6.2 15.8 10.1 1.1.8 2.1 1.8 3.2 2.7 1 .9 2.1 1.8 3 2.8 1.3 1.3 2.6 2.5 3.8 3.9 1.2 1.3 2.5 2.7 3.6 4.1 1.2 1.4 2.4 2.7 3.5 4.2 1.1 1.4 2.1 2.9 2.8 4.6.3.8.9 1.5 1.5 2 2.2 2 3.5 4.5 4.6 7.2.9 2.1 1.9 4.1 2.9 6.1 2.3 4.8 4.5 9.7 6.3 14.6.8 2.2 1.5 4.3 2.1 6.5.6 2.2 1.3 4.4 1.7 6.6l.9 4.5c.3 1.6.8 3.2 1 4.8l.6 4.7.4 4.7c.1 1.6.1 3.3.3 4.9.1 1.6.3 3.2.4 4.9.1 1.6 0 3.2 0 4.9 0 1.6-.1 3.2-.2 4.8l-.2 5.6-.1 2.8c0 .9-.1 2-.2 3.1l-.3 3.1c-.1 1-.3 2.1-.5 3.1s-.4 2-.7 3.1l-.9 3c-.1.3-.1.6-.2.9-1.1 4.7-2.7 9.2-4.4 13.7-1.9 4.4-3.9 8.7-6.4 12.8-2.7 4.7-5.8 9-9.3 13.1-4.6 5.3-9.6 10.2-14.7 14.9-.3.3-.6.6-1 .8-3.6 2.8-7.3 5.4-11.1 7.7-5.6 3.3-11.3 6.2-17.4 8.4-.9.4-1.9.5-2.8.7-.7.2-1.5.2-2 .6-.9.8-1.9 1.3-3 1.6-1 .3-2.3.5-3.5.8-1.6.3-3.3.5-4.9.8-1.6.3-3.2.7-4.8 1.5-.4.2-.9.2-1.4.2-5.7.5-11.4 1.5-17.1.6-1.2-.2-2.5-.2-3.8-.2-2.2 0-3.3-.1-4.5-.5-1.2-.4-2.5-.9-4.9-2.3-.3-.1-.6-.3-.9-.3-1.8-.2-3.1-1.2-4.4-2.2-.8-.6-1.9-1-2.8-1.3-.9-.3-1.8-.4-2.6-.8-1.4-.5-1.7-1.6-.9-2.6.5-.6 1.8-1.2 1.7-1.6-.6-2.2 1.1-3.2 2.1-4.4-.4-1-1.6-1.4-1.5-2.5-.6-.1-1.2-.3-1.7-.5-1.1-.3-2.2-.7-3.3-1-.4.4-.8 1-1.5 1.7 1.3-.1 2.4-.3 3.4-.2.4 0 .8.5 1.1.9.1.1-.3.7-.6.9-.6.4-2 0-1.9 1 .1 1.2-.5 1.4-1.2 1.7-1 .4-1.6.2-1.7-1-.4 0-.8-.1-1.1.1-.7.5-1.3.4-1.8-.2-.5-.5-.9-1-1.4-1.5 0 .5 0 1.1-.1 1.6-.2 1.6-.4 1.6-2.2 1.2-2.4-.7-4.9-1.3-7.3-2.1-.1.6-.3.8-.2 1.1.5 1.2 1 2.4-.8 2.9-.2 1.8-1.1 2.9-3.1 3.1-.3 0-.4.7-.6 1-.1.2-.3.6-.5.6-.1-.4-.6-.3-1-.5" mask="url(#mask-2_1_)" fill-rule="evenodd" clip-rule="evenodd" fill="#bff0c5"/><defs><filter id="Adobe_OpacityMaskFilter_1_" filterUnits="userSpaceOnUse" x="200.1" y="165.4" width="535.6" height="506.4"><feColorMatrix values="1 0 0 0 0 0 1 0 0 0 0 0 1 0 0 0 0 0 1 0"/></filter></defs><mask maskUnits="userSpaceOnUse" x="200.1" y="165.4" width="535.6" height="506.4" id="mask-2_2_"><g filter="url(#Adobe_OpacityMaskFilter_1_)"><path id="path-1_2_" class="st1" d="M2090-42v-24.8l-12.5-.5-8.6 2-8.2 2-6.7 1.8-8.6-.4-10.6 1.7-9-1.4-7-1.6-5.1 2.1-9.8 1.1-5.1 2.9-7.8-.3-8.6-.3-3.8-4-7.4.2-4 3.2-12.5-.5-7.4-1.6-6.6-2.1-9.7-5.1-3.1-2.8-8.6-.4-3.1-2.6-8.9-4.8-6.6-1.3-3.5-2.7-5.8 5.9-1.9-3.7-2.6-4-8.6-2.2-3.5 3.7-5.8-3.1-4.7 6-8.6-.4-5.5 3.7-3.9-4.5-7.5 4.4-4-2.7-6.3 3.6-7.9 2.6-2.1 5.3-5.9 2.6-.1 3.6-9-.3-6.3 1-4 2.5-.1 6.7-2.8 2.5-.1 4.9-7.5 1.5-2.2-5-9.4-1.2-9.3-2.4-10.1-1.7.1-2.8-4.6-3-6.6-.6.1-2.8.1-3.1-7.4-3.4-2.7-2.7-9.3-5-12.5.6-4.8 4.1s-7.8 1.2-7.9 2c0 .8 0 1.8-6.7 2.1l-5.1 1.9-10.6 1.6-3-3.5-9-1.1-6.2-2.1-5.8-2.6-8.2.7-10.6 1.8v-4.5l-6.4-1.5-8.5 2.8-7.8 1.5-5.1 2.4-14.4-.6-8.6 2-10.6 4-8.6-1.9-8.2 2.6-8.9-1.1-13.8-1.5-5.2 2.1-7.8.9-5.3 1.8-9.4.7h-8.7l-3.8-4-7.4.2-4 3.2-12.5-.5-7.4-1.6-6.6-2.1-16.2 14-4.6-3.6-9-.9-7.9.5v-2.7c-2.4-.8-4.6-1.3-6.8-1.4l-4.4-3.7-1.9-2.6c-.4-.2-.7-.8-1.8-3-2.4-.1-4.9-.8-7.5-2.2-2.3-1.6-3.5-2.5-3.5-2.5l-5.7-3-8.6-.4c-3.2-.1-5.4.5-6.8 1.6-2.3 1.3-4.7 2.4-7.1 3.4-.2.1-.4.3-2 2.9-.2.4-.5.5-5.9 1.6-1.3 1-2.7 2.1-4.3 3.5l-7.8-.8-6.2-1-9.4-.4-8.7-.6-5.3-3.6-9-2.7-8.6-2.4c-4.7-.7-7.4-1.1-8.2-1.1-1.2 0-7.1 2-9.5 4l-11.4 1.1-4.4 2.7-8 3.4.1-2.8-7.4-3.4-2.7-2.7-9.3-5-12.5.6-4.8 4.1s-7.8 1.2-7.9 2c0 .8 0 1.8-6.7 2.1l-5.1 1.9-10.6 1.6-3-3.5-9-1.1-6.2-2.1-5.8-2.6-8.2.7-14.1 3.2v-6l-6.4-1.5-8.5 2.8-7.8 1.5-5.1 2.4-14.4-.6-8.6 2-10.6 4-8.6-1.9-6.7 2.1-7-.6-11.3-.3-5.9-1.2-5.1 2.1-9.8 1.1-9.4 2.2h-12.2l-3.8-4-7.4.2-4 3.2-12.5-.5-7.4-1.6-6.6-2.1-9.7-5.1-3.1-2.9-8.6-.4-3.1-2.6-5.8-2.8-9.7-2v4.9l-6.6-1.3-4.6-3.8-2.7-3-4.6-2.8-3.9 2.7-3.5-2.5-5.8-3.1-4.7 6-8.6-.3-5.5 3.7-3.9-4.5-5.5-1.5-4 2.7-8.3 2.5-5.1 3.6-2.8-5.6-2 5.3-5.9 2.6-.1 3.6-9.7 1.7L812-77l-8.6-2.4c-4.7-.7-7.4-1.1-8.2-1.1-1.2 0-7.1 2-9.5 4l-11.4 1.1-9.5 4.3-6.4 4.9.1-2.9.1-3.1-7.4-3.4-2.7-2.7-9.3-5-12.5.6-4.8 4.1s-7.8 1.2-7.9 2c0 .8 0 1.8-6.7 2.1l-5.1 1.9-10.4 1.6-3-3.5-9-1.1-6.2-2.1-5.8-2.6-8.2.7-11.4 1.9-6.7 2.1-10.6.4-13.8 4.4-11.4.6-12.2 3.9h-7.4c-1.2-.1-8.6-1.1-10.9-3.3l-13.6-2.3-10.1-.4-11 2.7-11 1.1-9.4.7-9 .4-5.1 1.9-6.3 2.6-13.7 1.1-3.2 3.2-3.9 2.4-10.2-.4-8.5-2.9-6.7.5-4.6-3.6-9-.9-7.4.5-7.5.5-9.8 1.4-7.1 1.3-12.1-2.1-16.8-2.5-5.4-2-7-1.1-5-1.8-3.9-3-6.2-1-9.4-.4-7.1.7-3.1-2.5-3.9-2.5-8.9-2.7-8.6-2.4c-4.7-.7-7.4-1.1-8.2-1.1-1.2-.1-7.1 2-9.5 4l-11.4 1.1-9.5 4.3-4.3 2.7-.1 3.1-6.7 1.3-5.5 3.4-7-1.3s-5.1-.2-11 1.4l-9-.1s-2.8-1.2-11-1.5l-7 1.2-5.5-3.5-6.7-1.4-.1-3.1-4.3-2.7-5.1-1.7-7.5-4.5-10.3-1.3s-5.9-2.2-7.1-2.1c-1.2 0-3.5-.7-8.2 1l-8.6 2.3-9 2.6-3.9 2.4-3.1 2.4-7.1-.8-15.6 1.2-8.9 4.6-7 1-9.5.4-17.5 3.1-10.1 3.6-4-2.5-9.8-1.6-7.5-.6-7.4-.6-9 .8-4.6 3.5-9.8.3-7.7 3.8-7.8-1.6-3.9-2.5-7.5-1.9-9.4-3.1-6.3-2.7-5.1-1.9-9-.5-6.8-1.9-10.9 7.7-8.6-1.1-8.1-.1V-42h-368v456.8l16.7.6 11.6-2.3 11-2.4 8.9-2.1 11.5.4 14.2-2 12 1.7 9.4 1.9 6.9-2.5 13.1-1.4 6.9-3.4 10.5.4 11.5.4 5.1 4.8 9.9-.2 5.3-3.8 16.7.6 9.9 1.9 8.9 2.5 12.9 6 4.1 3.4 11.5.4 4.1 3.1 11.9 5.7 8.9 1.5 4.6 3.2 7.8-7 2.5 4.4 3.5 4.7 11.5 2.6 4.7-4.4 7.8 3.7 6.3-7.1 11.5.4 7.4-4.3 5.3 5.3 10-5.2 5.3 3.2 8.4-4.3 10.6-3 2.7-6.3 7.9-3.1.1-4.3 12.1.4 8.4-1.2 5.4-2.9.2-8 3.7-2.9.1-5.8 10-1.8 3 5.9 12.5 1.4 12.5 2.9 13.6 2-.1 3.4 6.2 3.6 8.9.7-.1 3.4-.1 3.7 9.9 4 3.6 3.2 12.4 6 16.8-.8 6.4-4.8s10.5-1.4 10.5-2.4c0-.9 0-2.1 8.9-2.4l6.9-2.2 14.2-1.9 4.1 4.1 12 1.3 8.3 2.5 7.8 3 11-.8 14.2-2.1v5.3l8.6 1.7 11.3-3.3 10.5-1.8 6.9-2.8 19.3.7 11.6-2.3 14.2-4.7 11.5 2.2 11-3.1 11.9 1.3L294 415l7-2.5 10.5-1.1 7.1-2.1 12.6-.8h11.6l5.1 4.8 9.9-.2 5.3-3.8 16.7.6 9.9 1.9 8.9 2.5 21.7-16.6 6.2 4.2 12 1.1 10.6-.6-.1 3.2c3.2.9 6.2 1.5 9.1 1.7l5.9 4.4 2.6 3.1c.6.3 1 1 2.4 3.6 3.3.1 6.6 1 10.1 2.6 3.1 1.9 4.7 2.9 4.7 2.9l7.6 3.6 11.5.4c4.3.1 7.3-.6 9.1-1.9 3.1-1.5 6.3-2.8 9.5-4 .3-.1.5-.3 2.7-3.4.3-.4.7-.6 7.8-1.9 1.8-1.2 3.7-2.5 5.7-4.1l10.4.9 8.3 1.2 12.5.5 11.6.7 7.1 4.3 12 3.2 11.5 2.9c6.2.8 9.9 1.3 10.9 1.3 1.6.1 9.5-2.4 12.7-4.8l15.2-1.3 5.8-3.2 10.7-4-.1 3.3 9.9 4 3.6 3.2 12.4 6 16.8-.8 6.4-4.8s10.5-1.5 10.5-2.4c0-.9 0-2.1 8.9-2.4l6.9-2.2 14.2-1.9 4.1 4.1 12 1.3 8.3 2.5 7.8 3 11-.8 18.9-3.8v7.1l8.6 1.7 11.3-3.3 10.5-1.8 6.9-2.8 19.3.7 11.6-2.3 14.2-4.7 11.5 2.2 8.9-2.5 9.3.7 15.1.3 7.9 1.4 6.9-2.5 13.1-1.4 12.5-2.6h16.3l5.1 4.8 9.9-.3 5.3-3.8 16.7.6 9.9 1.9 8.9 2.5 12.9 6 4.1 3.4 11.5.4 4.1 3.1 7.8 3.3 13 2.3v-5.8l8.9 1.5 6.2 4.5 3.6 3.5 6.2 3.3 5.2-3.1 4.7 2.9 7.8 3.7 6.3-7.1 11.5.4 7.4-4.3 5.3 5.3 7.4 1.7 5.3-3.2 11-3 6.9-4.2 3.7 6.6 2.7-6.3 7.9-3.1.1-4.3 13-2 12 3.2 11.5 2.9c6.2.8 9.9 1.3 10.9 1.3 1.6.1 9.5-2.4 12.7-4.8l15.2-1.3 12.7-5.1 8.6-5.8-.1 3.4-.1 3.7 9.9 4 3.6 3.2 12.4 6 16.8-.8 6.4-4.8s10.5-1.5 10.5-2.4c0-.9 0-2.1 8.9-2.4l6.9-2.2 14.2-1.9 4.1 4.1 12 1.3 8.3 2.5 7.8 3 11-.8 15.2-2.2 8.9-2.4 14.1-.4 18.4-5.2 15.2-.7 16.3-4.6s8.4 0 9.9.1c1.6.1 11.5 1.3 14.6 3.9l18.2 2.8 13.6.5 14.7-3.1 14.7-1.3 12.6-.8 12-.5 6.9-2.2 8.4-3.1 18.3-1.8 4.3-3.8 5.3-2.9 13.6.5 11.4 3.5 8.9-.6 6.2 4.2 12 1 9.9-.6 10-.6 13.1-1.7 9.5-1.5 16.1 2.4 22.5 3 7.3 2.4 9.4 1.3 6.7 2.1 5.2 3.6 8.3 1.2 12.5.5 9.4-.9 4.1 2.9 5.2 2.9 12 3.2 11.5 2.9c6.2.8 9.9 1.3 10.9 1.3 1.6.1 9.5-2.4 12.7-4.8l15.2-1.3 12.7-5.1 5.8-3.2.1-3.7 8.9-1.5 7.4-4 9.4 1.6s6.8.3 14.7-1.6l12 .1s3.7 1.4 14.7 1.8l9.4-1.4 7.4 4.1 8.9 1.6.1 3.7 5.8 3.2 6.8 2 10.1 5.3 14.1 1.8s7.9 2.6 9.5 2.5c1.6 0 4.7.8 10.9-1.2l11.5-2.7 12-3 5.2-2.9 4.1-2.9 9.4 1 20.9-1.4 11.9-5.5 9.4-1.1 13.1-.6 23.5-3.6 13.5-4.3 5.3 2.9 13.1 1.9 10 .7 9.9.7 12-.9 6.2-4.1 13.1-.3 10.4-4.5 10.5 1.9 5.3 3 10 2.2 12.6 3.7 8.4 3.2 6.9 2.3 12 .6 9.1 2.3 14.6-9.1 11.6 1.2 10.8.1V-42H2090z"/></g></mask><path id="Fill-5" d="M347.5 407.9l.1.1c5 4.8 2.8 2.7-1.1-1.1l.4.4.6.6zm-89.9 105.6c1 .7 2.1 1.4 3.1 2.1l-3.1-2.6v.5zm1.3 30.9l.5-.3.5-.3 2.1-1.6.6-.4-.6-.4-.4.4-1 .8-.9.6c-.7.6-1.4 1.1-2.2 1.7v.4l3-2-1.6 1.1zm3.8 5.3h.2v-.1l-.1.1h-.1zm370.5-107.9c.4-.4.7-.8 1.1-1.2l-4.8 3.6c.3-.1.5-.1.8-.2.9-.1 2.1-1.3 2.9-2.2zm8.1-6.5l-2.1 1.6c1.4.1 1.9-.6 2.1-1.6zm10.9-160c.1.1.3 0 .4 0-.1-.3-.2-.7-.4-1-.1-.1-.4 0-.6-.1.1.4.3.7.6 1.1zm-10.5-12.7c-1-1.1-1.8-2.7-3.4-2.7-.1 0-.2.2-.2.4.1 1.2.6 1.6 4.1 3.4-.3-.8-.4-1-.5-1.1zm-21.1-21l-.2.1.6.3-.4-.4zm-80.9-18.2l.6-.8 4.5-5.6 2.4-3 2.4-3.7 2.8-4.2 4-4.6 3.7-4.4c.6-.7 1.1-1.6 1.6-2.5-1.8 1.6-3.5 3.3-5.1 5.1-1.7 1.8-3.1 3.6-5 5.9l-2.4 3.8c-.4.7-.8 1.5-1.4 2.2l-1.5 2-1.7 1.8-1.9 2.1c-1.2 1.4-2.4 2.9-3.6 4.3l-.8 1-.2.7-.9 2.5-1 1.9-4.7 5.4-2.5 2.2-3 2.6c-.7.8-1.3 1.5-2 2.3l-1.5 1.8c-.9.6-1.8 1.2-2.8 1.8l-.6.4-.2.2c-.8.8-1.6 1.7-2.5 2.6 1.3.5 2-.6 2.5-1.1l.7-.7.2-.2.4-.2 3-1.9 3.5-4.1 5.3-4.6.3-.2 5-5.6 1.1-2.1.9-2.4.4-.7zm-25.2 8.3c.1-.3.2-.7.3-1.1 0-.4.1-.8.3-1.2l-3.6 2.9c.4-.1.8 0 1.3.1.6.2 1.1.2 1.4-.1.1-.1.2-.2.3-.6zm16.9-26c-.4.6-.8 1-.8 1.2.1.8.3 1.5.4 2.3.6-.1 1.3-.1 2.6-.2-1-1.4-1.6-2.3-2.2-3.3zm4.9-3.1c-.1-.2-.1-.4-.2-.6l-.1 1.1c.2-.3.4-.5.3-.5zm-1.4-1.9c-.2 0-.4.1-.7.3-.2.1-.3.2-.5.4s-.5.4-.6.3c.8.9 2 0 3 0-.6-.6-.8-1-1.2-1zm-11.4 17.2c.5-.5.9-1 1.3-1.5.3-.3.5-.7.7-1.1l-2 2.6zm7-6.7c.2-.2.6-.5.6-.6 0-.4-.1-.8-.2-1.3-.2.5-.4 1-.5 1.4 0 .2.1.4.1.5zm-50.1 53c-.3.1-.7.2-.9.5-.2.2-.1.5-.2.8l.9-.5.2-.8zm18.7-23.1c-.3.3-.5.9-.7 1.4.3-.1.7-.1 1-.3.5-.3.8-.9 1.6-1.7-1 .2-1.5.2-1.9.6zm-8.5 8.8c-.4.4-.7.9-1.5 2.1 1.1-1.1 1.5-1.6 1.9-2 .1-.1.2-.3.3-.5-.2.1-.5.2-.7.4zm-18.8 19.6c-.5.1-1 .2-1.4.3 0 .3-.2.7-.1.8.2.1.6.1.9-.1.3-.1.4-.5.6-1zm-12.9 10.6c-.2-.4-.5-.7-.7-1 .1.4.2.9.4 1.3 0 .1.2.1.3.2 0-.2.1-.4 0-.5zm207.7 143.5v-.4l-.4.4h.4zm11.3-7.6c.2-.1.4-.1.5-.2.1-.1.2-.3.3-.4-.2.1-.4.1-.5.3-.2 0-.3.2-.3.3zm45-23.9c.5-.3.9-.6 1.4-.9l-1.5.6c-.2.1-.3.2-.5.4.2-.1.4-.1.6-.1zm-45.4-77.6c5.2 5.5 10.3 11.1 16.3 15.7-5-5.9-10.6-10.9-16.3-15.7zm31.3 30.2c-.4-.4-.5-.6-.6-.7l-.2.1c.2.2.4.3.8.6zm6.5 6.4l.2-.2c-.8-.9-1.5-1.7-2.3-2.6l-.2.2 2.3 2.6zM592.7 188.8c.1.1.5-.4.5-.6-.5-1.9-1.8-2.8-3.9-3.8.7 2.3 1.9 3.5 3.4 4.4zm38.8 36.7c.9.8 1.9 1.4 2.5 2.3 1.2 1.6 2.2 3.3 3.3 4.8 1.6-.1.7-1.3.7-2 0-1 .1-1.9.2-2.8-2.7-.2-4.9-2.1-6.7-4.5-1.3.5-.3 1.5 0 2.2zm.3.7v-.3c0-.1-.1-.1-.2-.2l.2.5zm52.5 59.6c.3.2.6.4.8.6-.1-.2-.2-.3-.3-.5l-.8-.6c.1.2.2.4.3.5zm11.2 11.3c.1.1.3.2.5.2l-.3-.5c-.2-.1-.3-.2-.5-.2.1.2.2.4.3.5zM229.4 507.5c.8-.5 1.6-1 2.3-1.6.4-.4.8-.8 1.1-1.2.2-.3.4-.5.6-.8l.3-.4.5-.7c.6-.7 1.6-1.4 2.4-2.1l.4-.4 2.8-1.7c.2-.2.6-.5.7-.5v.2l-.3.5-.1.3v.1s-.1.1 0 0l.4-.6 3-4.4 4.6-4.6 1.1-1.1 1.8-3 1.5-1.5 4.7-4.7c1.5-1.6 3.3-3.1 5-4.7 3.3-3 6.3-6 9.3-8.9l1-.9 1.3-1.1c.8-.7 1.6-1.3 2.4-2l2.3-1.3.1-.2.5-.6 1.1-1.3 2-2.2 1.4-1.6c.9-1.1 1.8-2.2 2.7-3.4 1.4-1.8 2.8-3.6 4.4-5.3l4.8-4.8c.9-.8 1.5-1.5 2.4-2.2l.3-.2h.1l.2-.1.6-.3c.2-.2.4-.3.5-.5.2-.2.5-.6 1.5-2 .8-1.2 1.7-2.3 2.5-3.5 1.1-1.1 2.2-2.3 3.3-3.4.6-.7.8-.9 1.2-1.3.3-.4.6-.7.9-1.1.7-1 1.4-1.9 2.2-2.8l1.1-1.3 1.8-2 1.9-1.8c.7-1.2 1.5-2.5 2.2-3.7l3.2-3.9 2.2-2.6c1.5-1.7 3-3.5 4.5-5.2.2-.3.2-.2.4-.4l.6-.6c.6-.7 1.2-1.4 1.9-2.1.7-.7 1.4-1.5 2.1-2.2.6-.6 1.3-1.3 1.8-1.7-.2-.2-.2-.2 0 0l.2-.2.1-.1.1.1.8-.7 2.1-1.6c1.4-1.1 2.8-2.1 4.3-3.1l-1.4 1.2 1-.8c1-.8 2.1-1.5 3-2.3l.4-.3.5-.5 1.1-1c.7-.7 1.4-1.4 2-2.1 1.1-.9 2.2-1.9 3.3-3.1.4-.4.6-.6.8-.9.2-.2.5-.4.7-.6.2-.2.5-.2.8-.1.2 0 .5.2.9.4.4.8 2.3-.4 3.8-1.5.5-.3 1.1-.6 1.6-1 .5-.3 1.2-.8 1.5-1-.4-.1-1.1 0-1.6.1-.6.1-1.1.1-1.7.2.6-.6 1.4-1.3 2-1.8l1.2-1.2 8.3-7.5.8.3c.3-.3.6-.5.8-.8l.9-.9.8-.7c.5-.5 1.1-.9 1.6-1.4.6-.5 1.2-.9 1.8-1.4l1-.7c.2-.2.2-.1.3-.2h.2c.3 0 .5-.1.7-.2l.2-.1c.1 0 .1-.1.3-.2l.9-.9c.3-.3.6-.6.8-1 .1-.2.2-.4.4-.5.1-.2.1-.2.1-.4s.1-.5.1-.7c0-.3.1-.6.4-1 .4-.7.9-1.3 1.3-1.9.5-.6.9-1.2 1.4-1.8l.8-.9.9-1 2.1-2.1 1.1-.9.5-.4.1-.1 3.3-5.8c1.1-2 2.3-4 3.4-5.7l4.4-6.5 5.9-6.6c.3-.4.5-.7.7-1.1.8-1.1 1.5-2.1 2.3-3.1l1.3-1.6 1-1.2.4-.4.8-.9.4-.4.1-.1.2-.1 2.5-2.2 3.3-2.9c1.1-.9 2.1-1.6 3.1-2.4l3.1-2.4 2.9-2.2 1.9-1.3c.9-.7 1.8-1.4 2.8-2.1 1.4-.8 2.8-1.7 4-2.5l.5-.3.4-.3.8-.5c.2-.1.3-.2.5-.3.9-.7 1.8-1.5 2.7-2.3 1.7-1.6.8-2 0-2.3 1.7-.8 3.3-1.6 5.3-2.4-.1-.7-.4-1.4-.3-2.2.1-.6.5-1.7 1-2 .3-.2.6-.4.8-.6l4.1-3c.6-.2 1.2-.3 2-.2.4.1.8.3 1.3.8.5 0 .9-.1 1.4-.3.2-.1.4-.2.6-.4l1.1-.9c.9-.8 1.9-1.7 2.8-2.6l1.7-1.3c-.9 0-1.7-.2-2.7.1h-.1c-.8.3-2.2 1.5-2.7 1.7-.3.1-.7 0-.8-.2-.1-.2 0-.8.1-.9l2.3-2.1 2.4-1.8.8-.6.3-.2h.3c.1 0 .1 0 .2-.1v-.3c0-.1 0-.2.2-.4.3-.4.6-.7.9-1.1.7-.7 1.4-1.3 2.2-1.9 1.5-1.2 3.1-2.4 4.1-4.1.2-.4 1-.6 1.5-.9l4-2 2-1c.7-.3 1.4-.8 1.6-.8.3-.1.4-.3.5-.6.1-.3.1-.5.2-.7.1-.2.1-.2.3-.4l.7-.9c.4-.6.9-1.2 1.4-1.8 1.9-2.4 4.1-4.7 5.9-7.2 3.1-4.2 6.6-7.4 11.1-7 1.7.2 3.5-.5 4.8-3.2.3-.6.7-1.1 1.3-1.7l1.1-1.2 2.5-1.6c.8-.5 1.7-1 2.6-1.5.2-.1.3-.2.5-.2.2-.6.4-1.2.7-1.9.8-1.3 1.8-2.7 2.6-4.1.2-.6.4-1.1.5-1.6.1-.5.1-1.1-.1-1.5-.2-.4 0-.7.3-.9.4-.3.7-.2 2-.8l-.3.7c-.1.2-.2.5-.2.6v.8c.3-.2.4-.2.8-.5.2-.2.5-.4.7-.6.1-.6.2-1.2.1-1.6-.2-.8-1.2-1-1.8-1.4l.3-.7-1.6 3.2c.2-.9.5-1.7.8-2.6l.2-.5h-.4l.7-1 .5-1.5 3.6-4.5c1.2-1.5 2.5-2.8 3.8-4.2l2-2 .6-.6.3-.4c.1-.2.3-.4.4-.6 0 0 .3-.5.4-.8l.5-1c.3-.6.9-1.1 1.3-1.5.3-.3.6-.5.9-.8.4-.3.7-.5 1.1-.6.6-.2 1.1 0 1.4.7.1.3-.1 1 .1 1.2.4.4 1 .5 1.5.8.6-.9 1.1-1.7 1.6-2.5.1-.1.2-.3.3-.4.7-.9 1.4-2.5 2.2-2.1 1.6.8 2.4-.6 2.7-1.7.3-1.3.5-2.5 1.5-3.6.7-.9 1.5-1.6 1.7-.1.1 1 .9.6 1.5 0 .5-.5 1.1-1.4 1-1.9-.1-1.4.2-2.3 1.8-3.1.8-.4 1.7-1.1 2.4-1.8l.4-.4 16.1-15.8 13.3 15.7c.7.9 1.6 1.4 2.2.4.7-1 1.6-.8 2.6.3 2.1 2.3 4.1 4.6 6.1 7 .6.8 1.3 1.8 1.3 2.6.2 1.8.9 2.9 2.5 4.3 1.6 1.5 2.9 1.9 4.4 2.1 3.3 1.8 3.3 1.8 1.3 3.5-.1.1 0 .3-.1.6 1.2.9 2.5 2 3.8 2.9 1.6 1.1.4-1.1 1.5-1 .9 1.1 2.4 2.3 2.8 3.6 1 2.7 2.9 4.3 4.8 6.2-.1-.7-.2-1.3-.4-2.7 1.5 1.5 2.4 2.6 3.5 3.4 1.2.9 2.6 1.4 4 2.2.4 1.3-.8 2.7 1 4.6 1-.7 1.9-1.3 2.8-1.9 6.5 4.1 6.5 4.1 8.7 8.6.6.6 1.1 1.3 1.7 1.9.5-.2 1.2-.6 1.5-.4.8.6 1.3 1.5 1.9 2.4.9 1.2 1.1 2.1-.2 2.5-.4.1-.8.5-.8 1 .1 1.6.1 3.2.6 4.8.3.9 1.4 1.8 2.2 2.7.5-.5.9-1.1 1.4-1.5.2-.2.5-.2.9-.3 1 .7 2.2 1.5 3.3 2.3-.7 1.1-2.1 1.2-.6 3.4 2 2.9 4.1 5.7 6.5 8.2 1.8 1.9 3.7 3.9 6.1 4.9.3-1.1.6-2 .9-2.9-.2-.3-.5-.6-.7-.9-.1-.2 0-.5 0-.7.3.2.6.5.7.7.2.3.2.7.2 1 1.5.8 3.2 1.4 3.7 3.4.1.4-.1.8-.2 1.3-.5-.3-.9-.5-1.4-.8l-.4-.4c-1.1 1.5-.5 3.1 1.1 4.8l18.2 18.7c8.2 8.5 16.5 17 24.6 25.5 2 2.1 4.7 4.2 4.8 7.4 0 .6 1.1 1.7 1.8 2.4 1.5 1.7 3.1 3.4 4.5 5.2.9 1.1 1.5 2.4 2.1 3.6.2.4.1 1.2-.1 1.3-.2.2-1 0-1.4-.3-2.4-2.2-4.9-4.4-7.2-6.9-3.6-3.9-8.4-6.6-11.1-11.5-.4-.7-1.1-1.3-1.7-1.7-1.6-1-2.8-2-3.6-3.9-.5-1.2-1.7-2.3-2.7-3.3l-11.1-10.8c-1.8-1.7-3.4-4.2-5.3-5.1-2.8-1.4-3.2-4-5-5.7-.5-.5-1.5-1.2-1.8-1.1-1.9.5-3.3-1-4.8-2.5-8.1-8-16.4-15.8-24.1-24.2-3.9-4.1-7.9-7.5-12.3-10.5.4 1.1.7 2.1 1.2 3.6-.8-.7-1.2-.8-1.4-1.1-1.7-1.9-2.5-4.3-5.2-5.6-1.3-.6-3.2-2.6-2.7-4.7-3.1-1.2-6.1-2.8-8.3-5.8-1.8-2.5-3.5-4.9-6.2-6.4-.3-.2-.5-.6-.7-1-1.8-3.4-1.8-3.5-3.7-4.3-1.1-.4-1.5-1-1.8-2.1-.4-1.7-1.5-2.8-3.2-3.2-1.2-.3-2-1-2.6-2.2-.3-.7-.7-1.6-1.2-2-2.2-1.7-4.5-3.1-6.1-5.6-2.2-.8-3.6-2.7-4.9-4.4-2.2-2.9-4.9-4.7-7.8-6.5 1 1.6 2.2 3 3.4 4.3l13.5 13.8c4.5 4.5 8.2 9.9 13.4 13.7.8.6 1.4 1.5 2.1 2.2l4.8 4.8c2.6 2.7 5.2 5.3 7.7 8.1.7.8 1.1 2.1 1.6 3.1 2.5 2.1 4.9 4.2 7.4 6.3-1.6 2.7-1.6 2.7 2.1 6.1 2.3-1.3 2.8-1.3 4.9.5 1.4 1.2 2.7 2.5 4.1 3.8l5.8 5.6c4.6 4.5 9.1 9 13.7 13.5 1 1 1.9 2.2 2.8 3.3.6.8 1.3 1.8 0 2.3-2.5-2.1-5.3-4.5-7.9-2.5 1 2 2.6 2.9 4.5 3.3 3.2.7 5.4 3.1 7.1 6.1.4.7.6 1.5 1.1 2.1 1.6 2.2 3.1 4.3 5.6 5.6 1.3.7 2.6 1.9 3.7 3.1.6.7 0 .8-.6.4-.2-.1-.3-.2-.5-.3-.1 0-.1.2-.3.4 2.7 2.5 5.4 5.1 8.2 7.5.6.6 1.6.6 2.4.8h-.1c.8 1.8 1.4 3.4 3.2 4.9 3.3 2.8 6.5 5.7 9.5 8.9 7.4 7.8 14.7 15.7 22.1 23.6.7.8 1.5 1.5 2.1 2.3 2.7 4 6.2 7.2 9.5 10.6.7.7 1.5 1.4 2.2 2.2.5.6 1.2 1.3.2 1.8-2.7-2.3-5.6-4.6-8.4-7-4.1-3.4-8.3-6.7-12.4-10.1-1.5-1.2-2.8-2.4-3.2-4.3-1.5-1.7-3.4-2.8-5.1-4.2-1.6-1.2-2.7-3.5-4.4-5.1-3.9-3.7-7.7-7.5-11.5-11.3-4.7-4.6-9.5-9.2-14.2-13.8-5.2-5-10.6-9.9-15.8-14.9l-19.3-19 17.5 19.6c.4.3.8.6 1.1 1 2.1 2 4.2 3.9 6.4 5.9l16 14.5c.8.7 1.6 1.4 2.1 2.2 2.2 3.6 5.6 6 8.6 8.8 2.2 2.1 4.3 4.4 6.4 6.7.5.5.7 1.3 1.5 3-2.7-2-4.5-3.3-6.3-4.7 2.5 2.6 5 5.3 7.6 7.8.9.9 2 2.3 3.3 1.5.2-.1 1 .3 1.4.6 4.4 3.8 8.6 7.7 11.9 12.6 1 1.5 2.2 2.9 3.1 4.1.7-.2 1.3-.6 1.5-.4 2.8 2.5 4.4 5.8 6.3 8.9-4.1-3-8.1-6.1-12-9.3-1.7-1.4-3.5-2.7-5.2-4.2-2.5-2.2-5-4.6-7.5-6.8l22.4 25.2-83.9 63.6c1.3 1.4 1.1 2.2-.8 3.8-1.7 1.5-3.7 2.6-5.6 4-.7.5-2 .8-1.7 2.1 3.9-2.6 7.7-5.1 11.4-7.7 1.3-1 2.2-2.2 1.7-3.7-.5-1.7-.2-1.8 2.6-2.6.8-.2 1.8-.8 2.5-1.4 2.6-2.1 4.8-4.8 7.6-6.5 4.9-3 9-7.6 14.5-9.6 5.9-5.3 13.1-7.9 19.6-12.1.7-.5 2.1-.8 2.6-.5.7.5-.2 1.5-.9 2.2-2.7 2.3-5.4 4.5-8.2 6.8l-2.4 1.9c3.1-1.3 6-3 8.8-4.8 5.1-3.2 10.4-5.8 15.3-9.7 2.4-1.9 5.1-3.6 7.8-5.2 2.5-1.5 5-2.8 7.5-4.3 1-.6 2.1-1.6 3.4-.7-1.4 1.6-2.8 3.2-4.3 4.8 1.1-.5 2.2-.9 3.3-1.4.9-.4 1.8-1 2.8-1.3.9-.4 1.7-1.7 3-1.2-.9.9-1.6 1.6-2.4 2.3-2.1 1.7-4.2 3.5-6.3 5.2-2.1 1.7-4.1 3.4-4.4 6-.1 1-1.3 2.3-2.3 3.3-3.1 3.1-6.2 6.2-9.5 9-5.1 4.5-10.4 8.8-15.6 13.1 3.2-1.8 6-3.9 8.8-6.1 2.9-2.3 6.8-2.6 9.1-5.9.2-.2.8-.5 1-.4 1.6.5 2.7-.6 4-1.7 2.7-2.3 5.5-4.5 8.4-6.6 1.1-.8 2.4-1.9 3.5-.9-.3.5-.6 1-1 1.4-3 3.5-6.8 6.1-10.4 9-1.5 1.2-3.2 2.3-3.9 4.3 3.6-2.5 3.6-2.5 6.4-3.1-2.1 1.6-3.5 2.7-5 3.8-1.9 1.3-3.6 2.7-5.8 2.2-.9-.2-1.3 1.1-1.5 2-2 1.5-4.6 2.3-6 4.6-.3.5-.5 1.1-1 1.4-4.9 4.2-10.9 7-15 12-6.8 5.2-13.7 10.4-20.5 15.6-2 1.5-3.8 3.3-5.4 5.1-1.1 1.2-1.8 2.6-3.6 3.1-.2.1-.7.7-.7.8 1.1 2.8-2.2 4-4 5.5-4.7 3.8-9.8 7.1-14.2 11.4-1.6 1.5-3.7 2.8-5.6 3.9-2.2 1.3-4.2 2.4-5.2 4.9-.5 1.2-2 2.5-3.3 3.5-1.7 1.5-3.7 2.8-5.5 4.2-4.3 3.4-8.7 6.6-12.8 10.2-3.8 3.4-7.6 6.5-12 9-2.9 1.6-5.5 3.7-7.6 6.4-1.5 1.9-3.4 3.6-5.4 5.1-3.4 2.7-7.1 5.3-10.6 7.9-1 .7-2.2 1.5-2.8 2.4-2.4 3.2-5.7 5.5-8.9 7.8L526.8 571l-8.6 6.3c-7.2 5.4-14.3 10.9-21.7 16.1-5.8 4.1-11.9 7.8-17.8 11.7-4.5 3-8.5 6.8-13.4 9.2-.3.2-.7.5-1 .8-2.1 2.4-5 3.8-7.6 5.4-1.6 1-3.1 2.1-4.6 3.2-6.7 4.7-13.4 9.4-20 14.1l-2.3 1.6-1.2.8-2 1.4-8.6 6.1c-3.1 2.3-6.3 4.8-9.4 6.9-8.5 5.7-16.7 11.3-24.9 17.2-2.2-1.7-4.3-3.3-6.5-5L343 640.6c-.7-.5-1.4-1-2-1.5l-1.2-.8c-.8-.5-1.6-1.1-2.4-1.6-1.6-1.1-3-2.2-4.2-3.5-2.8-3.2-6.2-5.4-9.4-7.9-2.1-1.6-4.2-3.4-6.2-5.1-1-.8-1.8-1.8-2.8-2.4-4.2-2.4-7.8-5.5-11.5-8.5-2.9-2.4-5.8-4.8-9.4-5.5-.9-.2-1.9-.9-2.6-1.5-.5-.4-.8-1.2-1.2-1.8.7-.2 1.4-.3 2.1-.5-.5-.5-.9-1-1.4-1.4-4.5-3.6-9-7.3-13.7-10.7-2.5-1.8-5.2-3.2-7.8-4.8-.5-.3-1.1-.2-1.7-.3.1.1.3.2.4.4.1.1 0 .2.1.3l-.4-.7c-3.9-1.4-7.2-3.7-9.7-7.2-.9-1.2-2.3-2.2-3.6-3.3-1-.8-2.1-1.4-3-2.2-5.7-4.8-11.2-9.7-17-14.4-1.7-1.3-3.2-2.9-4.9-4.3l-29.2-25.2 29.1-18.7z" opacity=".3" mask="url(#mask-2_2_)" fill-rule="evenodd" clip-rule="evenodd" fill="#ebebec" enable-background="new"/><defs><filter id="Adobe_OpacityMaskFilter_2_" filterUnits="userSpaceOnUse" x="1261.2" y="220.7" width="421.1" height="537.7"><feColorMatrix values="1 0 0 0 0 0 1 0 0 0 0 0 1 0 0 0 0 0 1 0"/></filter></defs><mask maskUnits="userSpaceOnUse" x="1261.2" y="220.7" width="421.1" height="537.7" id="mask-2_3_"><g filter="url(#Adobe_OpacityMaskFilter_2_)"><path id="path-1_3_" class="st1" d="M2090-42v-24.8l-12.5-.5-8.6 2-8.2 2-6.7 1.8-8.6-.4-10.6 1.7-9-1.4-7-1.6-5.1 2.1-9.8 1.1-5.1 2.9-7.8-.3-8.6-.3-3.8-4-7.4.2-4 3.2-12.5-.5-7.4-1.6-6.6-2.1-9.7-5.1-3.1-2.8-8.6-.4-3.1-2.6-8.9-4.8-6.6-1.3-3.5-2.7-5.8 5.9-1.9-3.7-2.6-4-8.6-2.2-3.5 3.7-5.8-3.1-4.7 6-8.6-.4-5.5 3.7-3.9-4.5-7.5 4.4-4-2.7-6.3 3.6-7.9 2.6-2.1 5.3-5.9 2.6-.1 3.6-9-.3-6.3 1-4 2.5-.1 6.7-2.8 2.5-.1 4.9-7.5 1.5-2.2-5-9.4-1.2-9.3-2.4-10.1-1.7.1-2.8-4.6-3-6.6-.6.1-2.8.1-3.1-7.4-3.4-2.7-2.7-9.3-5-12.5.6-4.8 4.1s-7.8 1.2-7.9 2c0 .8 0 1.8-6.7 2.1l-5.1 1.9-10.6 1.6-3-3.5-9-1.1-6.2-2.1-5.8-2.6-8.2.7-10.6 1.8v-4.5l-6.4-1.5-8.5 2.8-7.8 1.5-5.1 2.4-14.4-.6-8.6 2-10.6 4-8.6-1.9-8.2 2.6-8.9-1.1-13.8-1.5-5.2 2.1-7.8.9-5.3 1.8-9.4.7h-8.7l-3.8-4-7.4.2-4 3.2-12.5-.5-7.4-1.6-6.6-2.1-16.2 14-4.6-3.6-9-.9-7.9.5v-2.7c-2.4-.8-4.6-1.3-6.8-1.4l-4.4-3.7-1.9-2.6c-.4-.2-.7-.8-1.8-3-2.4-.1-4.9-.8-7.5-2.2-2.3-1.6-3.5-2.5-3.5-2.5l-5.7-3-8.6-.4c-3.2-.1-5.4.5-6.8 1.6-2.3 1.3-4.7 2.4-7.1 3.4-.2.1-.4.3-2 2.9-.2.4-.5.5-5.9 1.6-1.3 1-2.7 2.1-4.3 3.5l-7.8-.8-6.2-1-9.4-.4-8.7-.6-5.3-3.6-9-2.7-8.6-2.4c-4.7-.7-7.4-1.1-8.2-1.1-1.2 0-7.1 2-9.5 4l-11.4 1.1-4.4 2.7-8 3.4.1-2.8-7.4-3.4-2.7-2.7-9.3-5-12.5.6-4.8 4.1s-7.8 1.2-7.9 2c0 .8 0 1.8-6.7 2.1l-5.1 1.9-10.6 1.6-3-3.5-9-1.1-6.2-2.1-5.8-2.6-8.2.7-14.1 3.2v-6l-6.4-1.5-8.5 2.8-7.8 1.5-5.1 2.4-14.4-.6-8.6 2-10.6 4-8.6-1.9-6.7 2.1-7-.6-11.3-.3-5.9-1.2-5.1 2.1-9.8 1.1-9.4 2.2h-12.2l-3.8-4-7.4.2-4 3.2-12.5-.5-7.4-1.6-6.6-2.1-9.7-5.1-3.1-2.9-8.6-.4-3.1-2.6-5.8-2.8-9.7-2v4.9l-6.6-1.3-4.6-3.8-2.7-3-4.6-2.8-3.9 2.7-3.5-2.5-5.8-3.1-4.7 6-8.6-.3-5.5 3.7-3.9-4.5-5.5-1.5-4 2.7-8.3 2.5-5.1 3.6-2.8-5.6-2 5.3-5.9 2.6-.1 3.6-9.7 1.7L812-77l-8.6-2.4c-4.7-.7-7.4-1.1-8.2-1.1-1.2 0-7.1 2-9.5 4l-11.4 1.1-9.5 4.3-6.4 4.9.1-2.9.1-3.1-7.4-3.4-2.7-2.7-9.3-5-12.5.6-4.8 4.1s-7.8 1.2-7.9 2c0 .8 0 1.8-6.7 2.1l-5.1 1.9-10.4 1.6-3-3.5-9-1.1-6.2-2.1-5.8-2.6-8.2.7-11.4 1.9-6.7 2.1-10.6.4-13.8 4.4-11.4.6-12.2 3.9h-7.4c-1.2-.1-8.6-1.1-10.9-3.3l-13.6-2.3-10.1-.4-11 2.7-11 1.1-9.4.7-9 .4-5.1 1.9-6.3 2.6-13.7 1.1-3.2 3.2-3.9 2.4-10.2-.4-8.5-2.9-6.7.5-4.6-3.6-9-.9-7.4.5-7.5.5-9.8 1.4-7.1 1.3-12.1-2.1-16.8-2.5-5.4-2-7-1.1-5-1.8-3.9-3-6.2-1-9.4-.4-7.1.7-3.1-2.5-3.9-2.5-8.9-2.7-8.6-2.4c-4.7-.7-7.4-1.1-8.2-1.1-1.2-.1-7.1 2-9.5 4l-11.4 1.1-9.5 4.3-4.3 2.7-.1 3.1-6.7 1.3-5.5 3.4-7-1.3s-5.1-.2-11 1.4l-9-.1s-2.8-1.2-11-1.5l-7 1.2-5.5-3.5-6.7-1.4-.1-3.1-4.3-2.7-5.1-1.7-7.5-4.5-10.3-1.3s-5.9-2.2-7.1-2.1c-1.2 0-3.5-.7-8.2 1l-8.6 2.3-9 2.6-3.9 2.4-3.1 2.4-7.1-.8-15.6 1.2-8.9 4.6-7 1-9.5.4-17.5 3.1-10.1 3.6-4-2.5-9.8-1.6-7.5-.6-7.4-.6-9 .8-4.6 3.5-9.8.3-7.7 3.8-7.8-1.6-3.9-2.5-7.5-1.9-9.4-3.1-6.3-2.7-5.1-1.9-9-.5-6.8-1.9-10.9 7.7-8.6-1.1-8.1-.1V-42h-368v456.8l16.7.6 11.6-2.3 11-2.4 8.9-2.1 11.5.4 14.2-2 12 1.7 9.4 1.9 6.9-2.5 13.1-1.4 6.9-3.4 10.5.4 11.5.4 5.1 4.8 9.9-.2 5.3-3.8 16.7.6 9.9 1.9 8.9 2.5 12.9 6 4.1 3.4 11.5.4 4.1 3.1 11.9 5.7 8.9 1.5 4.6 3.2 7.8-7 2.5 4.4 3.5 4.7 11.5 2.6 4.7-4.4 7.8 3.7 6.3-7.1 11.5.4 7.4-4.3 5.3 5.3 10-5.2 5.3 3.2 8.4-4.3 10.6-3 2.7-6.3 7.9-3.1.1-4.3 12.1.4 8.4-1.2 5.4-2.9.2-8 3.7-2.9.1-5.8 10-1.8 3 5.9 12.5 1.4 12.5 2.9 13.6 2-.1 3.4 6.2 3.6 8.9.7-.1 3.4-.1 3.7 9.9 4 3.6 3.2 12.4 6 16.8-.8 6.4-4.8s10.5-1.4 10.5-2.4c0-.9 0-2.1 8.9-2.4l6.9-2.2 14.2-1.9 4.1 4.1 12 1.3 8.3 2.5 7.8 3 11-.8 14.2-2.1v5.3l8.6 1.7 11.3-3.3 10.5-1.8 6.9-2.8 19.3.7 11.6-2.3 14.2-4.7 11.5 2.2 11-3.1 11.9 1.3L294 415l7-2.5 10.5-1.1 7.1-2.1 12.6-.8h11.6l5.1 4.8 9.9-.2 5.3-3.8 16.7.6 9.9 1.9 8.9 2.5 21.7-16.6 6.2 4.2 12 1.1 10.6-.6-.1 3.2c3.2.9 6.2 1.5 9.1 1.7l5.9 4.4 2.6 3.1c.6.3 1 1 2.4 3.6 3.3.1 6.6 1 10.1 2.6 3.1 1.9 4.7 2.9 4.7 2.9l7.6 3.6 11.5.4c4.3.1 7.3-.6 9.1-1.9 3.1-1.5 6.3-2.8 9.5-4 .3-.1.5-.3 2.7-3.4.3-.4.7-.6 7.8-1.9 1.8-1.2 3.7-2.5 5.7-4.1l10.4.9 8.3 1.2 12.5.5 11.6.7 7.1 4.3 12 3.2 11.5 2.9c6.2.8 9.9 1.3 10.9 1.3 1.6.1 9.5-2.4 12.7-4.8l15.2-1.3 5.8-3.2 10.7-4-.1 3.3 9.9 4 3.6 3.2 12.4 6 16.8-.8 6.4-4.8s10.5-1.5 10.5-2.4c0-.9 0-2.1 8.9-2.4l6.9-2.2 14.2-1.9 4.1 4.1 12 1.3 8.3 2.5 7.8 3 11-.8 18.9-3.8v7.1l8.6 1.7 11.3-3.3 10.5-1.8 6.9-2.8 19.3.7 11.6-2.3 14.2-4.7 11.5 2.2 8.9-2.5 9.3.7 15.1.3 7.9 1.4 6.9-2.5 13.1-1.4 12.5-2.6h16.3l5.1 4.8 9.9-.3 5.3-3.8 16.7.6 9.9 1.9 8.9 2.5 12.9 6 4.1 3.4 11.5.4 4.1 3.1 7.8 3.3 13 2.3v-5.8l8.9 1.5 6.2 4.5 3.6 3.5 6.2 3.3 5.2-3.1 4.7 2.9 7.8 3.7 6.3-7.1 11.5.4 7.4-4.3 5.3 5.3 7.4 1.7 5.3-3.2 11-3 6.9-4.2 3.7 6.6 2.7-6.3 7.9-3.1.1-4.3 13-2 12 3.2 11.5 2.9c6.2.8 9.9 1.3 10.9 1.3 1.6.1 9.5-2.4 12.7-4.8l15.2-1.3 12.7-5.1 8.6-5.8-.1 3.4-.1 3.7 9.9 4 3.6 3.2 12.4 6 16.8-.8 6.4-4.8s10.5-1.5 10.5-2.4c0-.9 0-2.1 8.9-2.4l6.9-2.2 14.2-1.9 4.1 4.1 12 1.3 8.3 2.5 7.8 3 11-.8 15.2-2.2 8.9-2.4 14.1-.4 18.4-5.2 15.2-.7 16.3-4.6s8.4 0 9.9.1c1.6.1 11.5 1.3 14.6 3.9l18.2 2.8 13.6.5 14.7-3.1 14.7-1.3 12.6-.8 12-.5 6.9-2.2 8.4-3.1 18.3-1.8 4.3-3.8 5.3-2.9 13.6.5 11.4 3.5 8.9-.6 6.2 4.2 12 1 9.9-.6 10-.6 13.1-1.7 9.5-1.5 16.1 2.4 22.5 3 7.3 2.4 9.4 1.3 6.7 2.1 5.2 3.6 8.3 1.2 12.5.5 9.4-.9 4.1 2.9 5.2 2.9 12 3.2 11.5 2.9c6.2.8 9.9 1.3 10.9 1.3 1.6.1 9.5-2.4 12.7-4.8l15.2-1.3 12.7-5.1 5.8-3.2.1-3.7 8.9-1.5 7.4-4 9.4 1.6s6.8.3 14.7-1.6l12 .1s3.7 1.4 14.7 1.8l9.4-1.4 7.4 4.1 8.9 1.6.1 3.7 5.8 3.2 6.8 2 10.1 5.3 14.1 1.8s7.9 2.6 9.5 2.5c1.6 0 4.7.8 10.9-1.2l11.5-2.7 12-3 5.2-2.9 4.1-2.9 9.4 1 20.9-1.4 11.9-5.5 9.4-1.1 13.1-.6 23.5-3.6 13.5-4.3 5.3 2.9 13.1 1.9 10 .7 9.9.7 12-.9 6.2-4.1 13.1-.3 10.4-4.5 10.5 1.9 5.3 3 10 2.2 12.6 3.7 8.4 3.2 6.9 2.3 12 .6 9.1 2.3 14.6-9.1 11.6 1.2 10.8.1V-42H2090z"/></g></mask><path d="M1601.6 442l-.2-.1c-6.6-2.1-3.7-1.2 1.5.5l-.5-.2-.8-.2zm34.5-134.4c-1.2-.2-2.5-.4-3.7-.5l3.9.9-.2-.4zm-14.7-27.1l-.3.5-.3.4-1.2 2.4-.3.7.7.1c.1-.2.1-.4.2-.5l.5-1.2.6-.9c.4-.8.8-1.6 1.2-2.5l-.2-.4-1.8 3.1.9-1.7zm-5.8-3.2l-.1.2.1.1.1-.1-.1-.2zm-285.7 259.5c-.2.5-.3 1-.5 1.6l2.7-5.4c-.2.2-.4.4-.6.5-.7.5-1.2 2.1-1.6 3.3zm-4.4 9.3l1.2-2.4c-1.3.6-1.4 1.5-1.2 2.4zm60.4 148.6c-.1 0-.3.1-.4.1.3.2.5.5.8.7.1.1.4-.1.6-.2-.3-.2-.6-.4-1-.6zm15 6.9c1.4.5 2.8 1.6 4.2 1 .1 0 0-.3 0-.4-.6-1-1.2-1.2-5.1-1.3.6.4.7.6.9.7zm28.2 9.6l.2-.2h-.7l.5.2zm80.6-19.1l-.2.9-1.6 7-.9 3.7-.5 4.4-.7 5-1.6 5.9-1.4 5.6c-.2 1-.2 1.9-.3 2.9.9-2.2 1.7-4.5 2.3-6.8.7-2.4 1.2-4.5 1.9-7.5l.5-4.4c.1-.8.1-1.7.3-2.5l.5-2.4.7-2.4.7-2.7c.5-1.8.9-3.6 1.3-5.5l.3-1.2-.1-.7-.3-2.6v-2.2l1.9-6.9 1.3-3.1 1.6-3.6c.3-1 .5-1.9.8-2.9.2-.8.4-1.5.6-2.3.6-.9 1.1-1.9 1.7-2.9l.3-.6.1-.3c.3-1.1.7-2.3 1.1-3.5-1.4.1-1.5 1.4-1.8 2.1l-.3 1-.1.2-.2.4-1.9 3-1.4 5.2-2.7 6.4-.1.3-2.1 7.2-.1 2.4.3 2.6.1.8zm19-18.6c0 .3.1.7.3 1.1l.3 1.2 2-4.2c-.3.3-.7.4-1.2.5-.7.1-1.1.3-1.3.7-.1.2-.1.4-.1.7zm-3.7 30.8c.1-.7.3-1.2.2-1.4-.4-.7-.9-1.3-1.4-1.9-.5.3-1.1.7-2.2 1.4 1.4.8 2.3 1.3 3.4 1.9zm-3.1 5l.5.5-.4-1c-.1.2-.2.5-.1.5zm2.1 1c.2-.1.3-.3.5-.6l.3-.6c.1-.2.3-.5.4-.6-1.1-.5-1.8.9-2.7 1.3.7.5 1.1.7 1.5.5zm2.7-20.4c-.2.7-.4 1.3-.5 2-.1.4-.1.8-.2 1.3l.7-3.3zm-3.4 9.1c-.1.3-.4.7-.3.9.2.4.5.7.7 1.1 0-.5-.1-1-.2-1.5.1-.3-.1-.4-.2-.5zm21.8-69.6c.2-.3.5-.5.6-.8.1-.3-.1-.5-.2-.8l-.6.9.2.7zm-6.6 29c.2-.4 0-1 0-1.6-.3.2-.6.4-.8.7-.3.5-.4 1.1-.7 2.3.8-.7 1.3-1 1.5-1.4zm3.7-11.7c.1-.6.2-1.1.4-2.6-.5 1.4-.7 2.1-.9 2.7-.1.2 0 .4 0 .6.2-.2.5-.4.5-.7zm8.3-25.8c.4-.3.8-.6 1.1-.9-.1-.3-.1-.7-.3-.7-.2 0-.6.2-.8.5-.1.1 0 .5 0 1.1zm7-15.2c.3.2.7.4 1.1.6-.3-.3-.6-.7-.9-1-.1-.1-.2 0-.4 0 .1.1.1.3.2.4zm-249.6-37.9l.1.3.2-.5-.3.2zm-6.8 11.7c-.1.1-.3.3-.3.4-.1.1 0 .3 0 .5.1-.2.3-.3.3-.4v-.5zm-29.9 41.3l-.9 1.5c.4-.4.8-.8 1.1-1.2.1-.1.2-.4.3-.5-.2 0-.4 0-.5.2zm74.8 49.8c-7.1-2.7-14.2-5.4-21.5-6.9 6.9 3 14.2 5.1 21.5 6.9zm-41.5-13.4c.5.2.7.3.9.4l.2-.2c-.3-.1-.5-.2-1.1-.2zm-8.6-3l-.1.3c1.1.4 2.2.9 3.2 1.3l.1-.3-3.2-1.3zm181.3 92.2c-.1 0-.3.5-.2.7 1.3 1.5 2.9 1.7 5.2 1.7-1.6-1.7-3.2-2.3-5-2.4zm-50.9-16c-1.1-.3-2.3-.5-3.3-1-1.8-.9-3.5-2-5.1-2.9-1.4.8-.1 1.5.2 2.1.4.9.7 1.8 1 2.6 2.5-1 5.3-.2 8 1.1 1.1-1-.3-1.4-.8-1.9zm-.6-.5c.1.1.1.2.2.3.1.1.2.1.2.1l-.4-.4zm-73.3-30.5c-.3-.1-.7-.1-1-.2.2.1.3.2.5.3l1 .2c-.2-.1-.4-.3-.5-.3zm-15-5.3h-.5l.5.3h.5c-.2-.1-.4-.2-.5-.3zm326.7-393.4c-.5.8-.9 1.6-1.4 2.5-.2.5-.3 1.1-.5 1.6-.1.3-.1.7-.2 1l-.1.5-.2.8c-.2.9-.8 2-1.2 3l-.2.5-1.8 2.7c-.1.2-.3.7-.4.8V312.9v.1l-.1.7-.8 5.3c-.7 2.1-1.4 4.1-2.1 6.1l-.6 1.5-.3 3.4-.7 2.1-2.2 6.3c-.7 2.1-1.6 4.2-2.4 6.4-1.6 4.2-3 8.1-4.5 12.1l-.5 1.2-.6 1.5c-.4 1-.9 1.9-1.3 2.9l-1.4 2.2-.1.2-.2.8-.4 1.7-.8 2.9-.6 2.1c-.4 1.4-.7 2.8-1 4.2-.4 2.2-1 4.5-1.6 6.7-.7 2.1-1.5 4.3-2.2 6.4-.4 1.1-.7 2-1.1 3l-.1.3-.1.1-.1.2c-.1.1-.2.4-.4.5-.1.2-.2.5-.3.7-.1.2-.2.8-.5 2.5-.2 1.4-.5 2.8-.7 4.2l-1.5 4.5c-.3.9-.3 1.2-.5 1.7-.1.5-.2.9-.3 1.4-.2 1.2-.4 2.3-.7 3.5l-.4 1.7-.7 2.6-.9 2.5c-.1 1.4-.2 2.9-.4 4.3l-1.1 4.9-.8 3.4-1.8 6.6c-.1.4-.1.3-.2.5l-.2.8c-.2.9-.5 1.8-.7 2.7-.3.9-.6 1.9-.9 2.9-.3.8-.7 1.7-.9 2.3.2.1.2.1 0 0 0 .1-.1.2-.1.2l-.1.1v.1h-.1l-.5 1-1.2 2.4c-.8 1.6-1.6 3.1-2.5 4.7l.8-1.7-.6 1.1c-.6 1.2-1.2 2.3-1.7 3.4l-.2.4-.3.6-.5 1.4c-.3.9-.6 1.8-.9 2.8-.6 1.3-1.2 2.7-1.6 4.2-.2.6-.2.8-.3 1.1-.1.3-.2.6-.4.9-.1.2-.3.4-.7.5-.2.1-.6.1-1 .1-.7-.5-1.9 1.4-2.8 3-.3.5-.7 1-1 1.6-.3.5-.7 1.3-.9 1.6.4-.1.9-.5 1.4-.8.5-.3.9-.6 1.5-1-.3.9-.6 1.8-.9 2.5-.2.5-.4 1.1-.6 1.6l-4.2 10.4h-.9c-.1.4-.3.7-.4 1.1l-.4 1.2-.4 1c-.3.6-.5 1.3-.8 2-.3.7-.6 1.3-1 2l-.6 1.1c-.1.3-.2.2-.2.3l-.2.1c-.2.2-.4.3-.5.5l-.2.2c0 .1-.1.1-.2.4-.2.4-.3.8-.4 1.2l-.3 1.2c0 .2-.1.4-.1.6 0 .2 0 .2.1.4s.1.4.2.6c.1.3.2.5.1 1.1-.1.8-.2 1.6-.3 2.3-.1.8-.3 1.5-.5 2.3l-.3 1.1-.4 1.3c-.3.9-.6 1.9-1 2.8l-.6 1.3-.3.6-.1.2-.5 6.6c-.2 2.3-.3 4.6-.6 6.6l-1.1 7.8-2.4 8.5c-.1.5-.1.9-.2 1.3-.2 1.3-.5 2.5-.7 3.8l-.5 2-.4 1.5-.2.6-.3 1.1-.2.6v.1l-.1.2-1.3 3-1.7 4.1c-.6 1.3-1.2 2.4-1.7 3.6l-1.7 3.5-1.7 3.3-1.1 2c-.5 1-1.1 2-1.6 3.1-.9 1.3-1.8 2.7-2.5 4l-.3.5-.3.4-.5.8c-.1.2-.2.3-.3.5-.5 1.1-.9 2.2-1.4 3.3-.9 2.2.1 2.2 1.1 2.1-1.2 1.4-2.3 2.9-3.7 4.5.5.6 1 1.1 1.3 1.9.2.6.3 1.7 0 2.2-.2.3-.3.6-.5.9l-2.4 4.6c-.5.4-1 .8-1.7 1-.4.1-.9.1-1.5-.1-.4.2-.8.5-1.1.9-.1.2-.3.4-.4.6l-.6 1.3c-.5 1.2-.9 2.4-1.4 3.5l-1 1.9c.8-.4 1.6-.6 2.4-1.3l.1-.1c.6-.6 1.3-2.3 1.7-2.7.2-.2.6-.3.8-.2.2.1.4.7.3.9l-1.1 2.8-1.3 2.7-.5.9-.2.3c-.1.1-.2.1-.3.2-.1.1-.1.1-.1.2s.1.2.1.3c0 .1.1.2 0 .4-.1.5-.2.9-.4 1.4-.3.9-.7 1.8-1.1 2.7-.8 1.8-1.7 3.5-1.8 5.5 0 .4-.6 1-1 1.5l-2.7 3.6-1.3 1.8c-.4.6-.9 1.4-1.1 1.4-.2.2-.2.5-.2.8 0 .3.1.5.1.8v.5l-.2 1.1c-.1.7-.3 1.5-.4 2.2-.7 3-1.6 6-2.1 9-.9 5.2-2.7 9.5-6.9 11.2-1.6.6-3 2-3 5 0 .6-.2 1.3-.4 2.1l-.5 1.5-1.6 2.5c-.5.8-1.1 1.6-1.7 2.4-.1.2-.2.3-.3.4.1.6.1 1.3.2 2-.1 1.6-.4 3.2-.5 4.8 0 .6.1 1.1.3 1.6.2.5.4 1 .8 1.2.3.3.3.6.1.9-.2.4-.6.5-1.4 1.6l-.1-.7c0-.2 0-.5-.1-.6l-.4-.8c-.2.3-.3.3-.5.8l-.3.9c.1.6.3 1.1.6 1.5.5.6 1.5.4 2.2.5l.1.8v-3.6c.2.9.3 1.8.4 2.6l.1.6c.1-.1.2-.1.4-.2l-.3 1.2.2 1.6-1.3 5.6c-.4 1.9-1 3.7-1.6 5.4l-.9 2.7-.2.7-.1.5v.7s0 .5-.1.9l-.1 1.1c0 .6-.3 1.3-.5 1.9-.1.4-.3.7-.5 1.1-.2.5-.4.8-.7 1-.5.5-1 .4-1.5 0-.2-.2-.4-.9-.6-1-.5-.2-1.1 0-1.7 0-.1 1-.3 2-.4 2.9 0 .2-.1.3-.1.5-.2 1.1-.2 2.8-1.1 2.9-1.8 0-1.9 1.6-1.7 2.8.3 1.3.6 2.4.3 3.9-.3 1.1-.7 2.1-1.5.8-.6-.9-1.1-.2-1.3.6-.2.7-.3 1.7-.1 2.2.7 1.2.9 2.2-.2 3.6-.6.7-1 1.7-1.4 2.6-.1.2-.1.3-.2.5l-7.5 21.2-18.8-8.3c-1.1-.5-2-.5-2.2.6-.2 1.2-1 1.4-2.4.9-2.9-1.2-5.8-2.3-8.6-3.6-.9-.4-1.9-1.1-2.3-1.8-.9-1.5-2.1-2.2-4.1-2.8-2.1-.6-3.4-.4-4.9.1-3.7-.2-3.7-.2-2.7-2.6 0-.1-.1-.3-.2-.6-1.5-.3-3.1-.7-4.6-.9-2-.3.2 1.2-.9 1.5-1.2-.6-3.1-1-4.1-2-2-2-4.5-2.6-7-3.5.4.6.7 1.1 1.5 2.3-2-.7-3.3-1.3-4.6-1.5-1.5-.3-3-.2-4.6-.2-.9-1-.5-2.7-2.9-3.7-.6 1.1-1.1 2-1.7 3-7.6-.8-7.7-.8-11.6-3.9-.8-.3-1.6-.6-2.3-1-.4.4-.8 1.1-1.2 1-.9-.2-1.9-.8-2.8-1.3-1.3-.7-1.9-1.4-.9-2.3.3-.3.5-.8.3-1.2-.8-1.4-1.5-2.8-2.7-4-.6-.7-2.1-1-3.1-1.5-.2.7-.3 1.3-.6 2-.1.2-.4.4-.7.7-1.2-.2-2.6-.4-4-.6.1-1.3 1.4-2-1-3.3-3.1-1.7-6.1-3.3-9.4-4.5-2.4-.9-5-1.9-7.7-1.7.2 1.1.3 2.1.5 3 .3.2.7.3 1 .6.2.2.2.5.3.7-.3-.1-.7-.1-1-.3-.3-.2-.4-.5-.7-.8-1.7-.1-3.4.1-4.8-1.4-.3-.3-.3-.8-.4-1.2.5 0 1.1.1 1.6.1.2 0 .4.1.5.2.4-1.8-.9-3-3.1-3.9l-24.6-8.9c-11.1-4-22.2-8-33.3-12.2-2.8-1-6-1.7-7.6-4.6-.3-.6-1.7-1-2.7-1.4-2.1-.9-4.3-1.7-6.3-2.7-1.3-.6-2.4-1.5-3.5-2.3-.4-.3-.6-1-.5-1.3.1-.3.9-.4 1.4-.3 3.2.9 6.4 1.8 9.4 3 5 2 10.4 2.2 15 5.5.6.4 1.6.7 2.3.8 1.9.2 3.4.6 5 1.9 1 .8 2.5 1.4 3.9 1.8l14.7 4.8c2.4.8 4.9 2.3 7 2.3 3.1 0 4.6 2.2 7 3 .7.2 1.8.4 2.1.2 1.5-1.3 3.4-.5 5.4.1 10.8 3.7 21.6 7.1 32.3 11.2 5.3 2 10.4 3.3 15.7 4.1-.8-.8-1.6-1.6-2.6-2.7 1 .2 1.4.2 1.8.4 2.3 1 4.2 2.8 7.1 2.8 1.4 0 4 .9 4.5 3 3.3-.3 6.7-.1 9.9 1.6 2.7 1.4 5.3 2.9 8.4 3 .3 0 .7.3 1.1.6 3.1 2.3 3.2 2.3 5.2 2.2 1.1-.1 1.8.2 2.5 1.1 1.1 1.3 2.6 1.9 4.2 1.5 1.2-.3 2.2 0 3.3.9.6.5 1.3 1.1 2 1.2 2.7.6 5.5.8 8 2.4 2.3-.3 4.4.8 6.4 1.8 3.2 1.6 6.5 2.1 9.9 2.4-1.6-1-3.3-1.7-5-2.3-6-2.2-12.1-4.3-18.1-6.5-6-2.1-11.7-5.3-18-6.5-1-.2-1.9-.7-2.9-1.1-2.1-.7-4.3-1.5-6.4-2.2-3.5-1.3-7-2.5-10.5-3.9-1-.4-1.9-1.4-2.8-2.1-3.1-.8-6.3-1.6-9.4-2.4.2-3.1.2-3.1-4.6-4.6-1.5 2.2-1.9 2.4-4.6 1.7-1.8-.5-3.6-1.1-5.3-1.6l-7.7-2.5c-6.1-2.1-12.2-4.1-18.2-6.2-1.4-.5-2.7-1.1-4-1.8-.8-.5-1.9-1-1-2.1 3.2.8 6.7 1.7 8.2-1.2-1.8-1.3-3.6-1.4-5.5-1-3.2.8-6.2-.4-9.1-2.3-.7-.4-1.2-1.1-1.9-1.5-2.4-1.3-4.7-2.5-7.5-2.6-1.5-.1-3.2-.6-4.7-1.2-.8-.3-.3-.7.3-.7.2 0 .4.1.6 0 .1 0 0-.2.1-.5-3.5-1.1-7.1-2.2-10.7-3.1-.8-.2-1.7.2-2.6.3h-.1.1c-1.5-1.2-2.7-2.5-5-3-4.2-1-8.4-2.3-12.4-3.8-10.1-3.7-20.1-7.7-30.2-11.5-1-.4-2-.7-2.9-1.2-4.2-2.4-8.8-3.7-13.2-5.4-1-.4-2-.6-2.9-1-.7-.3-1.6-.6-.9-1.6 3.5.8 7 1.7 10.6 2.6 5.2 1.2 10.4 2.4 15.5 3.6 1.8.4 3.6 1 4.8 2.4 2.1.8 4.3 1.1 6.5 1.5 1.9.4 3.9 1.9 6.1 2.6 5.1 1.6 10.2 3.4 15.3 5.1 6.3 2.1 12.6 4.1 18.9 6.2 6.9 2.2 13.8 4.2 20.7 6.5l25.6 8.6-24.3-10c-.5-.1-1-.2-1.5-.4-2.8-.9-5.5-1.7-8.3-2.5l-20.7-6c-1-.3-2.1-.5-2.9-1-3.6-2.3-7.7-2.9-11.6-4.2-2.9-1-5.8-2.1-8.7-3.2-.6-.3-1.2-.9-2.6-2.1 3.3.6 5.5 1 7.7 1.5-3.4-1.2-6.8-2.5-10.3-3.6-1.2-.4-2.8-1.2-3.6.1-.1.2-1 .2-1.6 0-5.6-1.5-11.1-3.1-16.2-6.1-1.6-.9-3.3-1.6-4.6-2.3-.5.5-.9 1.1-1.2 1.1-3.6-1.1-6.5-3.3-9.6-5.2 5 .9 9.9 2 14.9 3.1 2.2.5 4.4.9 6.5 1.5 3.2.9 6.5 1.9 9.7 2.9l-31.2-12.8 47.5-94c-1.8-.7-2-1.5-1-3.8.9-2.1 2.2-4 3.3-6 .4-.8 1.4-1.6.6-2.7-2.3 4-4.7 7.9-6.9 11.9-.8 1.4-1 2.9.1 4.1 1.2 1.3 1 1.5-1.2 3.4-.6.6-1.2 1.5-1.6 2.4-1.4 3-2.3 6.4-4 9.1-3.1 4.9-4.7 10.8-8.8 15-3 7.4-8.3 12.9-12.3 19.4-.5.7-1.6 1.6-2.1 1.5-.9-.1-.5-1.5-.1-2.4 1.4-3.2 2.9-6.5 4.3-9.7l1.3-2.8c-2.2 2.6-4 5.3-5.8 8.2-3.2 5.1-6.8 9.8-9.5 15.4-1.3 2.8-3 5.4-4.7 8.1-1.5 2.4-3.3 4.8-4.9 7.1-.7 1-1.2 2.3-2.7 2.1.6-2.1 1.1-4.1 1.7-6.2l-2.4 2.7c-.7.8-1.2 1.7-1.9 2.4s-.8 2.3-2.2 2.4c.5-1.2.8-2.2 1.2-3.1 1.1-2.5 2.3-5 3.4-7.4 1.1-2.5 2.2-4.9 1.3-7.3-.3-.9.2-2.7.6-4 1.4-4.1 2.8-8.2 4.5-12.3 2.6-6.3 5.5-12.4 8.3-18.7-2.1 3-3.7 6.1-5.3 9.3-1.6 3.3-4.9 5.3-5.6 9.3-.1.3-.5.8-.7.8-1.6.2-2.2 1.7-2.9 3.3-1.4 3.3-3 6.5-4.6 9.6-.6 1.2-1.3 2.8-2.8 2.3.1-.6.1-1.2.3-1.7 1.1-4.4 3.4-8.5 5.4-12.6.8-1.7 1.9-3.4 1.6-5.6-2.2 3.8-2.2 3.8-4.4 5.6 1.2-2.3 2-4 2.8-5.6 1.1-2 2.1-4 4.3-4.5.9-.2.7-1.6.4-2.4 1.1-2.3 3.1-4.1 3.4-6.8.1-.6 0-1.2.2-1.7 2.6-5.9 6.7-11.1 8.2-17.4 3.9-7.7 7.8-15.3 11.5-23 1.1-2.2 2-4.6 2.6-7 .4-1.6.5-3.1 1.9-4.4.2-.2.4-.9.3-1-2.2-2 .2-4.5 1.2-6.7 2.5-5.5 5.7-10.7 7.8-16.5.7-2.1 2.1-4.1 3.3-6 1.4-2.1 2.7-4 2.5-6.7-.1-1.3.7-3.1 1.4-4.6.9-2.1 2.1-4.1 3.1-6.2 2.4-4.9 5-9.8 7-14.8 1.9-4.7 4-9.2 6.9-13.3 1.9-2.8 3.3-5.7 4-9 .5-2.3 1.5-4.7 2.6-7 1.9-4 4-7.8 6.1-11.7.6-1.1 1.3-2.3 1.5-3.4.7-3.9 2.7-7.4 4.5-10.9l17.3-32.8 5-9.5c4.1-8 8.1-16.1 12.4-23.9 3.4-6.2 7.3-12.2 10.8-18.4 2.7-4.7 4.7-9.9 8-14.2.2-.3.4-.7.5-1.1.9-3.1 2.8-5.6 4.5-8.2 1-1.6 1.9-3.2 2.8-4.9 3.9-7.1 7.9-14.3 11.9-21.4l1.4-2.5.7-1.2 1.1-2.1 5-9.3c1.8-3.4 3.5-7.1 5.4-10.4 5.1-8.8 10-17.5 14.8-26.3 2.7.5 5.4 1.1 8.1 1.7l42.3 8.5c.8.2 1.7.3 2.5.5l1.4.2c.9.1 1.9.3 2.8.4 1.9.3 3.7.6 5.3 1.3 3.9 1.7 7.9 2.1 11.9 3 2.6.5 5.2 1.2 7.8 1.9 1.2.3 2.4.8 3.6.9 4.8.3 9.4 1.5 14 2.6 3.6.9 7.3 1.7 10.9.8.8-.2 2.1 0 3 .2.7.2 1.3.7 1.9 1.1-.5.4-1.1.9-1.7 1.4.7.3 1.3.5 1.9.6 5.7 1.2 11.3 2.6 17 3.7 3 .6 6.1.6 9.1.8.6 0 1.1-.3 1.6-.4-.2-.1-.3-.1-.5-.2-.1-.1-.1-.2-.2-.3l.7.4c4.2-.4 8.1.2 11.9 2.2 1.3.7 3.1 1 4.6 1.4 1.2.3 2.5.3 3.7.6 7.2 1.8 14.4 3.8 21.6 5.5 2.1.5 4.2 1.2 6.3 1.7l37.3 9.8-17.6 29.8z" opacity=".3" mask="url(#mask-2_3_)" fill-rule="evenodd" clip-rule="evenodd" fill="#f0f0f1" enable-background="new"/></svg>
